SplineFontDB: 3.0
FontName: Exo-DemiBoldItalic
FullName: Exo DemiBold Italic
FamilyName: Exo
Weight: Demi
Copyright: Copyright (c) 2011 Natanael Gama (exo@ndiscovered.com), with Reserved Font Name "Exo"
Version: 1
ItalicAngle: 0
UnderlinePosition: -50
UnderlineWidth: 50
Ascent: 800
Descent: 200
sfntRevision: 0x00010000
LayerCount: 2
Layer: 0 1 "Back"  1
Layer: 1 1 "Fore"  0
XUID: [1021 267 1480484927 1704031]
FSType: 0
OS2Version: 4
OS2_WeightWidthSlopeOnly: 0
OS2_UseTypoMetrics: 1
CreationTime: 1317848041
ModificationTime: 1328305022
PfmFamily: 17
TTFWeight: 600
TTFWidth: 5
LineGap: 0
VLineGap: 0
Panose: 2 0 7 3 0 0 0 0 0 0
OS2TypoAscent: 202
OS2TypoAOffset: 1
OS2TypoDescent: -127
OS2TypoDOffset: 1
OS2TypoLinegap: 0
OS2WinAscent: 2
OS2WinAOffset: 1
OS2WinDescent: 44
OS2WinDOffset: 1
HheadAscent: 2
HheadAOffset: 1
HheadDescent: -44
HheadDOffset: 1
OS2SubXSize: 650
OS2SubYSize: 700
OS2SubXOff: 0
OS2SubYOff: 140
OS2SupXSize: 650
OS2SupYSize: 700
OS2SupXOff: 0
OS2SupYOff: 480
OS2StrikeYSize: 49
OS2StrikeYPos: 258
OS2Vendor: 'PfEd'
OS2CodePages: 20000093.00000000
OS2UnicodeRanges: a00000ef.4000204b.00000000.00000000
Lookup: 4 0 0 "'ordn' Ordinals lookup 0"  {"'ordn' Ordinals lookup 0 subtable"  } ['ordn' ('DFLT' <'dflt' > 'grek' <'dflt' > 'latn' <'dflt' > ) ]
Lookup: 1 0 0 "'smcp' Lowercase to Small Capitals lookup 1"  {"'smcp' Lowercase to Small Capitals lookup 1 subtable"  } ['smcp' ('DFLT' <'dflt' > 'grek' <'dflt' > 'latn' <'FRA ' 'dflt' > ) ]
Lookup: 1 0 0 "'c2sc' Capitals to Small Capitals in Latin lookup 2"  {"'c2sc' Capitals to Small Capitals in Latin lookup 2 subtable"  } ['c2sc' ('latn' <'dflt' > ) ]
Lookup: 4 0 0 "'dlig' Discretionary Ligatures lookup 3"  {"'dlig' Discretionary Ligatures lookup 3 subtable"  } ['dlig' ('DFLT' <'dflt' > 'grek' <'dflt' > 'latn' <'dflt' > ) ]
Lookup: 4 0 1 "'liga' Standard Ligatures lookup 4"  {"'liga' Standard Ligatures lookup 4 subtable"  } ['liga' ('DFLT' <'dflt' > 'grek' <'dflt' > 'latn' <'FRA ' 'dflt' > ) ]

StartChar: .notdef
Encoding: 0 -1 0
AltUni2: 000000.ffffffff.0
Width: 758
Flags: W
LayerCount: 2
Fore
SplineSet
100 0 m 1,0,-1
 100 531 l 1,1,-1
 658 531 l 1,2,-1
 658 0 l 1,3,-1
 100 0 l 1,0,-1
114 22 m 1,4,-1
 370 266 l 1,5,-1
 114 507 l 1,6,-1
 114 22 l 1,4,-1
124 518 m 1,7,-1
 381 276 l 1,8,-1
 635 518 l 1,9,-1
 124 518 l 1,7,-1
127 13 m 1,10,-1
 634 13 l 1,11,-1
 381 256 l 1,12,-1
 127 13 l 1,10,-1
392 266 m 1,13,-1
 644 25 l 1,14,-1
 644 506 l 1,15,-1
 392 266 l 1,13,-1
EndSplineSet
EndChar

StartChar: exclam
Encoding: 33 33 4
Width: 269
GlyphClass: 2
Flags: W
LayerCount: 2
Fore
SplineSet
116 126 m 2,0,-1
 192 126 l 2,1,2
 214 126 214 126 211 101 c 1,3,-1
 198 23 l 2,4,5
 195 0 195 0 172 0 c 2,6,-1
 96 0 l 2,7,8
 86 0 86 0 80 6.5 c 128,-1,9
 74 13 74 13 75 23 c 2,10,-1
 88 101 l 1,11,12
 91 126 91 126 116 126 c 2,0,-1
112 199 m 1,13,-1
 186 731 l 1,14,-1
 308 731 l 1,15,-1
 212 199 l 1,16,-1
 112 199 l 1,13,-1
EndSplineSet
Substitution2: "'smcp' Lowercase to Small Capitals lookup 1 subtable" exclam.smcp
EndChar

StartChar: quotedbl
Encoding: 34 34 5
Width: 421
GlyphClass: 2
Flags: W
LayerCount: 2
Fore
SplineSet
167 531 m 1,0,-1
 177 665 l 1,1,-1
 188 732 l 1,2,-1
 301 732 l 1,3,-1
 290 665 l 1,4,-1
 259 531 l 1,5,-1
 167 531 l 1,0,-1
331 531 m 1,6,-1
 341 665 l 1,7,-1
 352 732 l 1,8,-1
 465 732 l 1,9,-1
 454 665 l 1,10,-1
 423 531 l 1,11,-1
 331 531 l 1,6,-1
EndSplineSet
Substitution2: "'smcp' Lowercase to Small Capitals lookup 1 subtable" quotedbl.smcp
EndChar

StartChar: numbersign
Encoding: 35 35 6
Width: 708
GlyphClass: 2
Flags: W
LayerCount: 2
Fore
SplineSet
51 218 m 1,0,-1
 76 298 l 1,1,-1
 230 298 l 1,2,-1
 274 435 l 1,3,-1
 119 435 l 1,4,-1
 145 515 l 1,5,-1
 302 515 l 1,6,-1
 373 732 l 1,7,-1
 453 732 l 1,8,-1
 382 515 l 1,9,-1
 520 515 l 1,10,-1
 591 732 l 1,11,-1
 671 732 l 1,12,-1
 600 515 l 1,13,-1
 774 515 l 1,14,-1
 748 435 l 1,15,-1
 574 435 l 1,16,-1
 530 297 l 1,17,-1
 704 297 l 1,18,-1
 680 217 l 1,19,-1
 502 217 l 1,20,-1
 431 0 l 1,21,-1
 351 0 l 1,22,-1
 422 217 l 1,23,-1
 283 218 l 1,24,-1
 212 0 l 1,25,-1
 132 0 l 1,26,-1
 203 218 l 1,27,-1
 51 218 l 1,0,-1
310 298 m 1,28,-1
 450 297 l 1,29,-1
 494 435 l 1,30,-1
 354 435 l 1,31,-1
 310 298 l 1,28,-1
EndSplineSet
Substitution2: "'smcp' Lowercase to Small Capitals lookup 1 subtable" numbersign.smcp
EndChar

StartChar: dollar
Encoding: 36 36 7
Width: 571
GlyphClass: 2
Flags: W
LayerCount: 2
Fore
SplineSet
233 101.5 m 128,-1,1
 280 100 280 100 306.5 100 c 128,-1,2
 333 100 333 100 344 101 c 128,-1,3
 355 102 355 102 367.5 105 c 128,-1,4
 380 108 380 108 391 114 c 128,-1,5
 402 120 402 120 412 128 c 0,6,7
 432 144 432 144 437 174 c 2,8,-1
 445 224 l 2,9,10
 451 262 451 262 445.5 277.5 c 128,-1,11
 440 293 440 293 425 298 c 128,-1,12
 410 303 410 303 384 303 c 2,13,-1
 279 303 l 2,14,15
 203 303 203 303 167 338 c 256,16,17
 131 373 131 373 125 417 c 0,18,19
 121 440 121 440 121 459.5 c 128,-1,20
 121 479 121 479 124 498 c 2,21,-1
 134 562 l 2,22,23
 152 679 152 679 238 716 c 0,24,25
 285 736 285 736 356 738 c 1,26,-1
 370 824 l 1,27,-1
 446 824 l 1,28,-1
 432 736 l 1,29,30
 521 730 521 730 611 711 c 1,31,-1
 596 620 l 1,32,33
 385 630 385 630 349 630 c 128,-1,34
 313 630 313 630 285 613 c 128,-1,35
 257 596 257 596 248 546 c 1,36,-1
 241 499 l 2,37,38
 239 485 239 485 239 477 c 128,-1,39
 239 469 239 469 240 459 c 128,-1,40
 241 449 241 449 249 439 c 0,41,42
 265 419 265 419 317 419 c 2,43,-1
 424 419 l 2,44,45
 506 419 506 419 538 374 c 0,46,47
 567 333 567 333 567 285 c 0,48,49
 567 270 567 270 562 224 c 1,50,-1
 553 168 l 2,51,52
 525 -8 525 -8 328 -8 c 0,53,54
 321 -8 321 -8 314 -8 c 1,55,-1
 301 -90 l 1,56,-1
 225 -90 l 1,57,-1
 239 -5 l 1,58,59
 142 2 142 2 72 20 c 1,60,-1
 87 107 l 1,61,62
 95 107 95 107 140.5 105 c 128,-1,0
 186 103 186 103 233 101.5 c 128,-1,1
EndSplineSet
Substitution2: "'smcp' Lowercase to Small Capitals lookup 1 subtable" dollar.smcp
EndChar

StartChar: percent
Encoding: 37 37 8
Width: 963
GlyphClass: 2
Flags: W
LayerCount: 2
Fore
SplineSet
283 732 m 2,0,-1
 384 732 l 2,1,2
 451 732 451 732 477 699 c 1,3,4
 497 676 497 676 497 634 c 0,5,6
 497 618 497 618 494 599 c 2,7,-1
 474 473 l 2,8,9
 466 427 466 427 451 401 c 0,10,11
 419 349 419 349 322 349 c 2,12,-1
 221 349 l 2,13,14
 158 349 158 349 129 384 c 0,15,16
 107 411 107 411 107 453 c 0,17,18
 107 467 107 467 110 483 c 2,19,-1
 130 609 l 2,20,21
 140 675 140 675 172.5 703.5 c 128,-1,22
 205 732 205 732 283 732 c 2,0,-1
198 488 m 2,23,24
 196 478 196 478 196 466 c 128,-1,25
 196 454 196 454 203.5 444.5 c 128,-1,26
 211 435 211 435 242 435 c 2,27,-1
 326 435 l 2,28,29
 360 435 360 435 372.5 446 c 128,-1,30
 385 457 385 457 390 488 c 2,31,-1
 406 593 l 1,32,33
 409 606 409 606 409 613.5 c 128,-1,34
 409 621 409 621 407 630 c 0,35,36
 402 646 402 646 361 646 c 2,37,-1
 278 646 l 2,38,39
 244 646 244 646 231.5 635 c 128,-1,40
 219 624 219 624 214 593 c 2,41,-1
 198 488 l 2,23,24
213 0 m 1,42,-1
 773 732 l 1,43,-1
 862 732 l 1,44,-1
 305 0 l 1,45,-1
 213 0 l 1,42,-1
859 384 m 2,46,47
 972 384 972 384 972 285 c 0,48,49
 972 269 972 269 969 250 c 2,50,-1
 950 124 l 2,51,52
 939 56 939 56 906 28.5 c 128,-1,53
 873 1 873 1 796 1 c 2,54,-1
 695 1 l 2,55,56
 633 1 633 1 604 35 c 0,57,58
 583 61 583 61 583 103 c 0,59,60
 583 117 583 117 585 133 c 2,61,-1
 605 259 l 2,62,63
 615 325 615 325 647.5 354.5 c 128,-1,64
 680 384 680 384 758 384 c 2,65,-1
 859 384 l 2,46,47
673 140 m 2,66,67
 671 128 671 128 671 117 c 128,-1,68
 671 106 671 106 677 99 c 0,69,70
 687 87 687 87 718 87 c 2,71,-1
 801 87 l 2,72,73
 835 87 835 87 847.5 98 c 128,-1,74
 860 109 860 109 865 140 c 2,75,-1
 881 245 l 2,76,77
 883 258 883 258 883 270 c 128,-1,78
 883 282 883 282 876.5 290 c 128,-1,79
 870 298 870 298 836 298 c 2,80,-1
 753 298 l 2,81,82
 719 298 719 298 706.5 287 c 128,-1,83
 694 276 694 276 689 245 c 2,84,-1
 673 140 l 2,66,67
EndSplineSet
Substitution2: "'smcp' Lowercase to Small Capitals lookup 1 subtable" percent.smcp
EndChar

StartChar: ampersand
Encoding: 38 38 9
Width: 655
GlyphClass: 2
Flags: W
LayerCount: 2
Fore
SplineSet
401 628 m 2,0,1
 308 628 308 628 308 583 c 0,2,3
 308 559 308 559 330 522 c 2,4,-1
 483 255 l 1,5,-1
 618 373 l 1,6,-1
 653 330 l 1,7,-1
 583 210 l 1,8,-1
 536 165 l 1,9,-1
 632 0 l 1,10,-1
 507 0 l 1,11,-1
 448 100 l 1,12,-1
 374 37 l 2,13,14
 322 -6 322 -6 251 -6 c 0,15,16
 213 -6 213 -6 175 9 c 0,17,18
 120 30 120 30 88.5 81.5 c 128,-1,19
 57 133 57 133 57 185 c 0,20,21
 57 286 57 286 163 366 c 2,22,-1
 255 436 l 1,23,-1
 212 511 l 2,24,25
 189 553 189 553 189 590 c 0,26,27
 189 602 189 602 192 614 c 0,28,29
 202 661 202 661 237.5 692 c 128,-1,30
 273 723 273 723 317 728 c 1,31,32
 376 733 376 733 410.5 733 c 128,-1,33
 445 733 445 733 482 730 c 128,-1,34
 519 727 519 727 593 710 c 1,35,-1
 580 628 l 1,36,-1
 401 628 l 2,0,1
260 101 m 0,37,38
 294 101 294 101 326 127 c 1,39,-1
 396 188 l 1,40,-1
 302 345 l 1,41,-1
 230 290 l 2,42,43
 166 242 166 242 166 193 c 0,44,45
 166 168 166 168 183 143 c 0,46,47
 212 101 212 101 260 101 c 0,37,38
EndSplineSet
AlternateSubs2: "'salt' Stylistic Alternatives in Latin lookup 16 subtable" ampersand.salt
Substitution2: "'smcp' Lowercase to Small Capitals lookup 1 subtable" ampersand.smcp
EndChar

StartChar: quotesingle
Encoding: 39 39 10
Width: 210
GlyphClass: 2
Flags: W
LayerCount: 2
Fore
SplineSet
142 531 m 1,0,-1
 152 665 l 1,1,-1
 163 732 l 1,2,-1
 280 732 l 1,3,-1
 269 665 l 1,4,-1
 238 531 l 1,5,-1
 142 531 l 1,0,-1
EndSplineSet
Substitution2: "'smcp' Lowercase to Small Capitals lookup 1 subtable" quotesingle.smcp
EndChar

StartChar: parenleft
Encoding: 40 40 11
Width: 361
GlyphClass: 2
Flags: W
LayerCount: 2
Fore
SplineSet
278.5 475.5 m 128,-1,1
 246 389 246 389 232.5 314.5 c 128,-1,2
 219 240 219 240 218 200.5 c 128,-1,3
 217 161 217 161 217 130.5 c 128,-1,4
 217 100 217 100 223 54 c 128,-1,5
 229 8 229 8 239 -39 c 128,-1,6
 249 -86 249 -86 262 -120 c 0,7,8
 289 -191 289 -191 305 -218 c 1,9,-1
 312 -231 l 1,10,-1
 200 -231 l 1,11,12
 155 -165 155 -165 125 -42 c 0,13,14
 102 52 102 52 102 154 c 0,15,16
 102 328 102 328 162 494 c 0,17,18
 193 582 193 582 227 641 c 0,19,20
 297 765 297 765 345 817 c 2,21,-1
 365 839 l 1,22,-1
 482 839 l 1,23,24
 455 806 455 806 414 743.5 c 128,-1,25
 373 681 373 681 342 621.5 c 128,-1,0
 311 562 311 562 278.5 475.5 c 128,-1,1
EndSplineSet
Substitution2: "'case' Case-Sensitive Forms lookup 18 subtable" parenleft.alt
Substitution2: "'c2sc' Capitals to Small Capitals in Latin lookup 2 subtable" parenleft.smcp
Substitution2: "'smcp' Lowercase to Small Capitals lookup 1 subtable" parenleft.smcp
EndChar

StartChar: parenright
Encoding: 41 41 12
Width: 363
GlyphClass: 2
Flags: W
LayerCount: 2
Fore
SplineSet
186.5 130 m 128,-1,1
 219 218 219 218 233.5 301 c 128,-1,2
 248 384 248 384 248 425 c 0,3,4
 248 546 248 546 232 619 c 0,5,6
 203 745 203 745 167 813 c 2,7,-1
 153 839 l 1,8,-1
 266 839 l 1,9,10
 310 770 310 770 340 646 c 0,11,12
 363 550 363 550 363 447 c 0,13,14
 363 280 363 280 304 110 c 0,15,16
 274 22 274 22 241 -38 c 0,17,18
 173 -160 173 -160 128 -210 c 1,19,-1
 108 -231 l 1,20,-1
 -16 -231 l 1,21,22
 11 -200 11 -200 51.5 -138 c 128,-1,23
 92 -76 92 -76 123 -17 c 128,-1,0
 154 42 154 42 186.5 130 c 128,-1,1
EndSplineSet
Substitution2: "'case' Case-Sensitive Forms lookup 18 subtable" parenright.alt
Substitution2: "'c2sc' Capitals to Small Capitals in Latin lookup 2 subtable" parenright.smcp
Substitution2: "'smcp' Lowercase to Small Capitals lookup 1 subtable" parenright.smcp
EndChar

StartChar: asterisk
Encoding: 42 42 13
Width: 431
GlyphClass: 2
Flags: W
LayerCount: 2
Fore
SplineSet
131 566 m 1,0,-1
 139 616 l 1,1,-1
 282 642 l 1,2,-1
 274 561 l 1,3,-1
 131 566 l 1,0,-1
169 415 m 1,4,-1
 214 551 l 1,5,-1
 290 532 l 1,6,-1
 213 400 l 1,7,-1
 169 415 l 1,4,-1
271 470 m 1,8,-1
 326 538 l 1,9,-1
 423 448 l 1,10,-1
 388 407 l 1,11,-1
 271 470 l 1,8,-1
283 719 m 1,12,-1
 334 737 l 1,13,-1
 385 616 l 1,14,-1
 305 584 l 1,15,-1
 283 719 l 1,12,-1
334 571 m 1,16,-1
 466 649 l 1,17,-1
 485 606 l 1,18,-1
 375 509 l 1,19,-1
 334 571 l 1,16,-1
EndSplineSet
Substitution2: "'smcp' Lowercase to Small Capitals lookup 1 subtable" asterisk.smcp
EndChar

StartChar: plus
Encoding: 43 43 14
Width: 495
GlyphClass: 2
Flags: W
LayerCount: 2
Fore
SplineSet
87 305 m 1,0,-1
 104 407 l 1,1,-1
 260 407 l 1,2,-1
 285 564 l 1,3,-1
 387 564 l 1,4,-1
 362 407 l 1,5,-1
 520 407 l 1,6,-1
 503 305 l 1,7,-1
 345 305 l 1,8,-1
 320 148 l 1,9,-1
 218 148 l 1,10,-1
 243 305 l 1,11,-1
 87 305 l 1,0,-1
EndSplineSet
EndChar

StartChar: comma
Encoding: 44 44 15
Width: 263
GlyphClass: 2
Flags: W
LayerCount: 2
Fore
SplineSet
97 0 m 2,0,1
 86 0 86 0 80 6.5 c 128,-1,2
 74 13 74 13 76 25 c 2,3,-1
 88 100 l 2,4,5
 92 127 92 127 117 127 c 2,6,-1
 189 127 l 2,7,8
 209 127 209 127 209 107 c 0,9,10
 209 104 209 104 209 100 c 2,11,-1
 191 -11 l 2,12,13
 186 -40 186 -40 171 -59 c 0,14,15
 146 -92 146 -92 90 -92 c 0,16,17
 81 -92 81 -92 75 -90 c 2,18,-1
 63 -88 l 1,19,-1
 70 -46 l 1,20,21
 84 -46 84 -46 92 -40.5 c 128,-1,22
 100 -35 100 -35 102 -30.5 c 128,-1,23
 104 -26 104 -26 105 -18 c 2,24,-1
 108 0 l 1,25,-1
 97 0 l 2,0,1
EndSplineSet
EndChar

StartChar: hyphen
Encoding: 45 45 16
Width: 354
GlyphClass: 2
Flags: W
LayerCount: 2
Fore
SplineSet
60 239 m 1,0,-1
 77 341 l 1,1,-1
 391 341 l 1,2,-1
 374 239 l 1,3,-1
 60 239 l 1,0,-1
EndSplineSet
Substitution2: "'case' Case-Sensitive Forms lookup 18 subtable" hyphen.alt
Substitution2: "'c2sc' Capitals to Small Capitals in Latin lookup 2 subtable" hyphen.smcp
Substitution2: "'smcp' Lowercase to Small Capitals lookup 1 subtable" hyphen.smcp
EndChar

StartChar: period
Encoding: 46 46 17
Width: 265
GlyphClass: 2
Flags: W
LayerCount: 2
Fore
SplineSet
116 126 m 2,0,-1
 190 126 l 2,1,2
 211 126 211 126 211 108 c 0,3,4
 211 105 211 105 211 101 c 2,5,-1
 198 23 l 2,6,7
 194 0 194 0 170 0 c 2,8,-1
 96 0 l 2,9,10
 85 0 85 0 79.5 6.5 c 128,-1,11
 74 13 74 13 75 23 c 2,12,-1
 88 101 l 1,13,14
 91 126 91 126 116 126 c 2,0,-1
EndSplineSet
EndChar

StartChar: slash
Encoding: 47 47 18
Width: 436
GlyphClass: 2
Flags: W
LayerCount: 2
Fore
SplineSet
5 -72 m 1,0,-1
 419 770 l 1,1,-1
 540 770 l 1,2,-1
 126 -72 l 1,3,-1
 5 -72 l 1,0,-1
EndSplineSet
Substitution2: "'numr' Numerators in Latin lookup 13 subtable" fraction
Substitution2: "'frac' Diagonal Fractions lookup 6 subtable" fraction
EndChar

StartChar: zero
Encoding: 48 48 19
Width: 633
GlyphClass: 2
Flags: W
LayerCount: 2
Fore
SplineSet
347 732 m 2,0,-1
 511 732 l 2,1,2
 558 732 558 732 591.5 717 c 128,-1,3
 625 702 625 702 641 678 c 0,4,5
 668 638 668 638 668 592 c 0,6,7
 668 576 668 576 664 560 c 1,8,-1
 603 172 l 1,9,10
 588 84 588 84 540.5 42 c 128,-1,11
 493 0 493 0 408 0 c 2,12,-1
 244 0 l 2,13,14
 161 0 161 0 117 43 c 0,15,16
 82 76 82 76 82 135 c 0,17,18
 82 152 82 152 86 172 c 2,19,-1
 147 556 l 2,20,21
 175 732 175 732 347 732 c 2,0,-1
204 187 m 2,22,23
 202 174 202 174 202 164 c 128,-1,24
 202 154 202 154 203.5 146 c 128,-1,25
 205 138 205 138 208.5 132 c 128,-1,26
 212 126 212 126 215.5 122 c 128,-1,27
 219 118 219 118 225 115.5 c 128,-1,28
 231 113 231 113 235.5 112 c 128,-1,29
 240 111 240 111 248 110 c 0,30,31
 258 109 258 109 266.5 109 c 128,-1,32
 275 109 275 109 275 109 c 1,33,-1
 396 109 l 2,34,35
 476 109 476 109 489 186 c 2,36,-1
 546 546 l 2,37,38
 548 558 548 558 548 575 c 128,-1,39
 548 592 548 592 535.5 607.5 c 128,-1,40
 523 623 523 623 481 623 c 2,41,-1
 354 623 l 2,42,43
 273 623 273 623 261 546 c 2,44,-1
 204 187 l 2,22,23
EndSplineSet
Substitution2: "'dnom' Denominators in Latin lookup 19 subtable" zero.denominator
Substitution2: "'sups' Superscript lookup 17 subtable" zerosuperior
Substitution2: "'onum' Oldstyle Figures in Latin lookup 15 subtable" zero.oldstyle
Substitution2: "'tnum' Tabular Numbers in Latin lookup 14 subtable" zero.tnum
Substitution2: "'numr' Numerators in Latin lookup 13 subtable" zero.numerator
Substitution2: "'zero' Slashed Zero lookup 12 subtable" uni0338
Substitution2: "'sinf' Scientific Inferiors lookup 11 subtable" zeroinferior
Substitution2: "'frac' Diagonal Fractions lookup 5 subtable" zero.numerator
Substitution2: "'smcp' Lowercase to Small Capitals lookup 1 subtable" zero.smcp
EndChar

StartChar: one
Encoding: 49 49 20
Width: 367
GlyphClass: 2
Flags: W
LayerCount: 2
Fore
SplineSet
124 571 m 1,0,-1
 136 648 l 1,1,2
 178 648 178 648 229.5 679 c 128,-1,3
 281 710 281 710 301 732 c 1,4,-1
 415 732 l 1,5,-1
 300 0 l 1,6,-1
 184 0 l 1,7,-1
 281 606 l 1,8,9
 259 590 259 590 215 580.5 c 128,-1,10
 171 571 171 571 124 571 c 1,0,-1
EndSplineSet
Substitution2: "'dnom' Denominators in Latin lookup 19 subtable" one.denominator
Substitution2: "'sups' Superscript lookup 17 subtable" onesuperior
Substitution2: "'onum' Oldstyle Figures in Latin lookup 15 subtable" one.oldstyle
Substitution2: "'tnum' Tabular Numbers in Latin lookup 14 subtable" one.tnum
Substitution2: "'numr' Numerators in Latin lookup 13 subtable" one.numerator
Substitution2: "'sinf' Scientific Inferiors lookup 11 subtable" oneinferior
Substitution2: "'frac' Diagonal Fractions lookup 5 subtable" one.numerator
Substitution2: "'smcp' Lowercase to Small Capitals lookup 1 subtable" one.smcp
EndChar

StartChar: two
Encoding: 50 50 21
Width: 589
GlyphClass: 2
Flags: W
LayerCount: 2
Fore
SplineSet
516 522 m 0,0,1
 518 537 518 537 518 553 c 0,2,3
 518 632 518 632 409 632 c 2,4,-1
 134 632 l 1,5,-1
 148 719 l 1,6,7
 303 742 303 742 453 742 c 0,8,9
 521 742 521 742 565 709 c 128,-1,10
 609 676 609 676 621.5 633.5 c 128,-1,11
 634 591 634 591 634 562.5 c 128,-1,12
 634 534 634 534 631 506.5 c 128,-1,13
 628 479 628 479 609 440 c 128,-1,14
 590 401 590 401 567 369 c 128,-1,15
 544 337 544 337 506.5 300 c 128,-1,16
 469 263 469 263 441.5 239 c 128,-1,17
 414 215 414 215 373 184 c 0,18,19
 325 147 325 147 270 109 c 1,20,-1
 564 109 l 1,21,-1
 547 0 l 1,22,-1
 41 0 l 1,23,-1
 58 103 l 1,24,25
 247 219 247 219 381 338 c 0,26,27
 432 384 432 384 471 434 c 128,-1,28
 510 484 510 484 516 522 c 0,0,1
EndSplineSet
Substitution2: "'dnom' Denominators in Latin lookup 19 subtable" two.denominator
Substitution2: "'sups' Superscript lookup 17 subtable" twosuperior
Substitution2: "'onum' Oldstyle Figures in Latin lookup 15 subtable" two.oldstyle
Substitution2: "'tnum' Tabular Numbers in Latin lookup 14 subtable" two.tnum
Substitution2: "'numr' Numerators in Latin lookup 13 subtable" two.numerator
Substitution2: "'sinf' Scientific Inferiors lookup 11 subtable" twoinferior
Substitution2: "'frac' Diagonal Fractions lookup 5 subtable" two.numerator
Substitution2: "'smcp' Lowercase to Small Capitals lookup 1 subtable" two.smcp
EndChar

StartChar: three
Encoding: 51 51 22
Width: 587
GlyphClass: 2
Flags: W
LayerCount: 2
Fore
SplineSet
339 -7 m 2,0,-1
 281 -7 l 2,1,2
 268 -7 268 -7 262 -7 c 128,-1,3
 256 -7 256 -7 228.5 -6.5 c 128,-1,4
 201 -6 201 -6 191.5 -5.5 c 128,-1,5
 182 -5 182 -5 159 -3.5 c 128,-1,6
 136 -2 136 -2 124 0 c 128,-1,7
 112 2 112 2 94 5 c 0,8,9
 65 10 65 10 34 21 c 1,10,-1
 48 103 l 1,11,-1
 318 103 l 2,12,13
 423 103 423 103 435 180 c 2,14,-1
 442 222 l 2,15,16
 448 263 448 263 438 280 c 0,17,18
 430 294 430 294 421.5 297.5 c 128,-1,19
 413 301 413 301 407.5 303 c 128,-1,20
 402 305 402 305 392 306 c 0,21,22
 378 308 378 308 357 309 c 2,23,-1
 143 317 l 1,24,-1
 158 410 l 1,25,-1
 374 419 l 2,26,27
 426 421 426 421 447 435.5 c 128,-1,28
 468 450 468 450 476.5 464.5 c 128,-1,29
 485 479 485 479 488 500 c 2,30,-1
 495 548 l 2,31,32
 497 558 497 558 497 568.5 c 128,-1,33
 497 579 497 579 493 591.5 c 128,-1,34
 489 604 489 604 474 612 c 0,35,36
 450 625 450 625 407 625 c 2,37,-1
 124 625 l 1,38,-1
 136 706 l 1,39,40
 222 735 222 735 357 735 c 0,41,42
 407 735 407 735 463 734 c 0,43,44
 539 732 539 732 582 682 c 0,45,46
 616 643 616 643 616 588 c 0,47,48
 616 572 616 572 613 555 c 2,49,-1
 604 496 l 1,50,51
 585 381 585 381 509 364 c 1,52,53
 562 341 562 341 562 256 c 0,54,55
 562 234 562 234 559 210 c 1,56,-1
 550 161 l 1,57,58
 524 -7 524 -7 339 -7 c 2,0,-1
EndSplineSet
Substitution2: "'dnom' Denominators in Latin lookup 19 subtable" three.denominator
Substitution2: "'sups' Superscript lookup 17 subtable" threesuperior
Substitution2: "'onum' Oldstyle Figures in Latin lookup 15 subtable" three.oldstyle
Substitution2: "'tnum' Tabular Numbers in Latin lookup 14 subtable" three.tnum
Substitution2: "'numr' Numerators in Latin lookup 13 subtable" three.numerator
Substitution2: "'sinf' Scientific Inferiors lookup 11 subtable" threeinferior
Substitution2: "'frac' Diagonal Fractions lookup 5 subtable" three.numerator
Substitution2: "'smcp' Lowercase to Small Capitals lookup 1 subtable" three.smcp
EndChar

StartChar: four
Encoding: 52 52 23
Width: 614
GlyphClass: 2
Flags: W
LayerCount: 2
Fore
SplineSet
52 224 m 1,0,-1
 414 732 l 1,1,-1
 548 732 l 1,2,-1
 230 282 l 1,3,-1
 444 282 l 1,4,-1
 473 464 l 1,5,-1
 520 540 l 1,6,-1
 603 540 l 1,7,-1
 562 282 l 1,8,-1
 641 282 l 1,9,-1
 627 192 l 1,10,-1
 544 170 l 1,11,-1
 518 2 l 1,12,-1
 400 2 l 1,13,-1
 426 170 l 1,14,-1
 77 170 l 1,15,-1
 52 224 l 1,0,-1
EndSplineSet
Substitution2: "'dnom' Denominators in Latin lookup 19 subtable" four.denominator
Substitution2: "'sups' Superscript lookup 17 subtable" foursuperior
Substitution2: "'onum' Oldstyle Figures in Latin lookup 15 subtable" four.oldstyle
Substitution2: "'tnum' Tabular Numbers in Latin lookup 14 subtable" four.tnum
Substitution2: "'numr' Numerators in Latin lookup 13 subtable" four.numerator
Substitution2: "'sinf' Scientific Inferiors lookup 11 subtable" fourinferior
Substitution2: "'frac' Diagonal Fractions lookup 5 subtable" four.numerator
Substitution2: "'smcp' Lowercase to Small Capitals lookup 1 subtable" four.smcp
EndChar

StartChar: five
Encoding: 53 53 24
Width: 599
GlyphClass: 2
Flags: W
LayerCount: 2
Fore
SplineSet
258 430 m 1,0,1
 293 459 293 459 384 459 c 0,2,3
 399 459 399 459 425 458 c 128,-1,4
 451 457 451 457 456 456 c 0,5,6
 529 454 529 454 566 402 c 1,7,8
 595 363 595 363 595 308 c 0,9,10
 595 291 595 291 592 273 c 2,11,-1
 576 162 l 1,12,13
 561 70 561 70 501 28 c 0,14,15
 456 -4 456 -4 371 -5 c 0,16,17
 360 -5 360 -5 312 -5 c 0,18,19
 203 -5 203 -5 67 19 c 1,20,-1
 82 109 l 1,21,-1
 372 109 l 2,22,23
 416 109 416 109 437 133 c 128,-1,24
 458 157 458 157 462 188 c 1,25,-1
 475 268 l 2,26,27
 477 281 477 281 477 292 c 0,28,29
 477 351 477 351 414 351 c 2,30,-1
 300 351 l 2,31,32
 259 351 259 351 237 323 c 0,33,34
 224 308 224 308 221 286 c 1,35,-1
 111 286 l 1,36,-1
 203 732 l 1,37,-1
 640 732 l 1,38,-1
 623 623 l 1,39,-1
 298 623 l 1,40,-1
 258 430 l 1,0,1
EndSplineSet
Substitution2: "'dnom' Denominators in Latin lookup 19 subtable" five.denominator
Substitution2: "'sups' Superscript lookup 17 subtable" fivesuperior
Substitution2: "'onum' Oldstyle Figures in Latin lookup 15 subtable" five.oldstyle
Substitution2: "'tnum' Tabular Numbers in Latin lookup 14 subtable" five.tnum
Substitution2: "'numr' Numerators in Latin lookup 13 subtable" five.numerator
Substitution2: "'sinf' Scientific Inferiors lookup 11 subtable" fiveinferior
Substitution2: "'frac' Diagonal Fractions lookup 5 subtable" five.numerator
Substitution2: "'smcp' Lowercase to Small Capitals lookup 1 subtable" five.smcp
EndChar

StartChar: six
Encoding: 54 54 25
Width: 613
GlyphClass: 2
Flags: W
LayerCount: 2
Fore
SplineSet
237 417 m 1,0,1
 350 439 350 439 467 439 c 0,2,3
 545 439 545 439 578 401 c 0,4,5
 610 364 610 364 610 319 c 0,6,7
 610 301 610 301 606 268 c 2,8,-1
 588 148 l 2,9,10
 575 65 575 65 525 32.5 c 128,-1,11
 475 0 475 0 392 0 c 2,12,-1
 248 0 l 2,13,14
 214 0 214 0 188.5 10 c 128,-1,15
 163 20 163 20 142 47 c 0,16,17
 100 100 100 100 100 222 c 0,18,19
 100 295 100 295 115 390.5 c 128,-1,20
 130 486 130 486 155.5 555.5 c 128,-1,21
 181 625 181 625 213 662 c 128,-1,22
 245 699 245 699 276.5 716.5 c 128,-1,23
 308 734 308 734 343 736 c 128,-1,24
 378 738 378 738 413 738 c 0,25,26
 531 738 531 738 652 717 c 1,27,-1
 639 629 l 1,28,-1
 374 629 l 2,29,30
 343 629 343 629 318 608 c 128,-1,31
 293 587 293 587 277 552 c 0,32,33
 250 491 250 491 237 417 c 1,0,1
223 333 m 1,34,35
 213 267 213 267 213 231.5 c 128,-1,36
 213 196 213 196 217 177 c 128,-1,37
 221 158 221 158 229 141 c 0,38,39
 245 107 245 107 289 107 c 2,40,-1
 393 107 l 2,41,42
 467 107 467 107 478 177 c 2,43,-1
 491 265 l 2,44,45
 494 279 494 279 494 294.5 c 128,-1,46
 494 310 494 310 483.5 321.5 c 128,-1,47
 473 333 473 333 432 333 c 2,48,-1
 223 333 l 1,34,35
EndSplineSet
Substitution2: "'dnom' Denominators in Latin lookup 19 subtable" six.denominator
Substitution2: "'sups' Superscript lookup 17 subtable" sixsuperior
Substitution2: "'onum' Oldstyle Figures in Latin lookup 15 subtable" six.oldstyle
Substitution2: "'tnum' Tabular Numbers in Latin lookup 14 subtable" six.tnum
Substitution2: "'numr' Numerators in Latin lookup 13 subtable" six.numerator
Substitution2: "'sinf' Scientific Inferiors lookup 11 subtable" sixinferior
Substitution2: "'frac' Diagonal Fractions lookup 5 subtable" six.numerator
Substitution2: "'smcp' Lowercase to Small Capitals lookup 1 subtable" six.smcp
EndChar

StartChar: seven
Encoding: 55 55 26
Width: 551
GlyphClass: 2
Flags: W
LayerCount: 2
Fore
SplineSet
124 623 m 1,0,-1
 141 732 l 1,1,-1
 608 732 l 1,2,-1
 632 674 l 1,3,-1
 274 0 l 1,4,-1
 144 0 l 1,5,-1
 480 623 l 1,6,-1
 124 623 l 1,0,-1
EndSplineSet
Substitution2: "'dnom' Denominators in Latin lookup 19 subtable" seven.denominator
Substitution2: "'sups' Superscript lookup 17 subtable" sevensuperior
Substitution2: "'onum' Oldstyle Figures in Latin lookup 15 subtable" seven.oldstyle
Substitution2: "'tnum' Tabular Numbers in Latin lookup 14 subtable" seven.tnum
Substitution2: "'numr' Numerators in Latin lookup 13 subtable" seven.numerator
Substitution2: "'sinf' Scientific Inferiors lookup 11 subtable" seveninferior
Substitution2: "'frac' Diagonal Fractions lookup 5 subtable" seven.numerator
Substitution2: "'smcp' Lowercase to Small Capitals lookup 1 subtable" seven.smcp
EndChar

StartChar: eight
Encoding: 56 56 27
Width: 626
GlyphClass: 2
Flags: W
LayerCount: 2
Fore
SplineSet
207 359 m 1,0,1
 139 386 139 386 139 472 c 0,2,3
 139 489 139 489 142 506 c 2,4,-1
 152 571 l 2,5,6
 168 670 168 670 225 706 c 1,7,8
 276 737 276 737 362 737 c 2,9,-1
 512 737 l 2,10,11
 620 737 620 737 649 655 c 0,12,13
 657 630 657 630 657 604.5 c 128,-1,14
 657 579 657 579 654 557 c 2,15,-1
 644 499 l 1,16,17
 642 474 642 474 627 448 c 0,18,19
 598 398 598 398 548 389 c 1,20,21
 608 372 608 372 608 274 c 0,22,23
 608 260 608 260 605 248 c 1,24,-1
 591 158 l 2,25,26
 572 39 572 39 492 13 c 0,27,28
 454 0 454 0 394 0 c 2,29,-1
 245 0 l 2,30,31
 144 0 144 0 108 52 c 0,32,33
 85 85 85 85 85 134 c 0,34,35
 85 148 85 148 89 170 c 2,36,-1
 101 252 l 1,37,38
 112 316 112 316 159 343 c 0,39,40
 180 355 180 355 207 359 c 1,0,1
206 172 m 2,41,42
 204 162 204 162 204 151.5 c 128,-1,43
 204 141 204 141 209 129 c 0,44,45
 219 105 219 105 278 106 c 1,46,-1
 391 106 l 2,47,48
 436 106 436 106 459 133 c 0,49,50
 472 148 472 148 475 172 c 1,51,-1
 489 254 l 2,52,53
 490 262 490 262 490 277 c 128,-1,54
 490 292 490 292 475.5 307.5 c 128,-1,55
 461 323 461 323 428 323 c 2,56,-1
 306 323 l 2,57,58
 230 323 230 323 219 254 c 2,59,-1
 206 172 l 2,41,42
255 477 m 0,60,61
 255 452 255 452 272.5 438 c 128,-1,62
 290 424 290 424 321 424 c 2,63,-1
 443 424 l 2,64,65
 486 424 486 424 503.5 443 c 128,-1,66
 521 462 521 462 526 494 c 2,67,-1
 535 549 l 2,68,69
 538 566 538 566 538 585 c 128,-1,70
 538 604 538 604 526 618 c 128,-1,71
 514 632 514 632 474 632 c 2,72,-1
 361 632 l 2,73,74
 313 632 313 632 293 613.5 c 128,-1,75
 273 595 273 595 265 549 c 1,76,-1
 257 494 l 2,77,78
 255 485 255 485 255 477 c 0,60,61
EndSplineSet
Substitution2: "'dnom' Denominators in Latin lookup 19 subtable" eight.denominator
Substitution2: "'sups' Superscript lookup 17 subtable" eightsuperior
Substitution2: "'onum' Oldstyle Figures in Latin lookup 15 subtable" eight.oldstyle
Substitution2: "'tnum' Tabular Numbers in Latin lookup 14 subtable" eight.tnum
Substitution2: "'numr' Numerators in Latin lookup 13 subtable" eight.numerator
Substitution2: "'sinf' Scientific Inferiors lookup 11 subtable" eightinferior
Substitution2: "'frac' Diagonal Fractions lookup 5 subtable" eight.numerator
Substitution2: "'smcp' Lowercase to Small Capitals lookup 1 subtable" eight.smcp
EndChar

StartChar: nine
Encoding: 57 57 28
Width: 612
GlyphClass: 2
Flags: W
LayerCount: 2
Fore
SplineSet
493 318 m 1,0,1
 380 297 380 297 262 297 c 0,2,3
 184 297 184 297 152 336 c 0,4,5
 121 375 121 375 121 419 c 0,6,7
 121 437 121 437 124 471 c 1,8,-1
 141 584 l 1,9,10
 155 668 155 668 204.5 702 c 128,-1,11
 254 736 254 736 337 736 c 2,12,-1
 481 736 l 2,13,14
 630 736 630 736 630 509 c 0,15,16
 630 381 630 381 596 248 c 0,17,18
 559 103 559 103 485 39 c 0,19,20
 443 3 443 3 395 0 c 128,-1,21
 347 -3 347 -3 308 -3 c 0,22,23
 186 -3 186 -3 77 19 c 1,24,-1
 91 107 l 1,25,-1
 356 107 l 2,26,27
 381 107 381 107 402.5 121.5 c 128,-1,28
 424 136 424 136 438 158 c 128,-1,29
 452 180 452 180 464 210 c 0,30,31
 482 258 482 258 493 318 c 1,0,1
507 403 m 1,32,33
 516 466 516 466 516 499 c 128,-1,34
 516 532 516 532 512.5 562 c 128,-1,35
 509 592 509 592 490.5 610.5 c 128,-1,36
 472 629 472 629 441 629 c 2,37,-1
 336 629 l 2,38,39
 263 629 263 629 252 559 c 2,40,-1
 239 471 l 2,41,42
 236 457 236 457 236 446.5 c 128,-1,43
 236 436 236 436 239 425 c 0,44,45
 247 403 247 403 298 403 c 2,46,-1
 507 403 l 1,32,33
EndSplineSet
Substitution2: "'dnom' Denominators in Latin lookup 19 subtable" nine.denominator
Substitution2: "'sups' Superscript lookup 17 subtable" ninesuperior
Substitution2: "'onum' Oldstyle Figures in Latin lookup 15 subtable" nine.oldstyle
Substitution2: "'tnum' Tabular Numbers in Latin lookup 14 subtable" nine.tnum
Substitution2: "'numr' Numerators in Latin lookup 13 subtable" nine.numerator
Substitution2: "'sinf' Scientific Inferiors lookup 11 subtable" nineinferior
Substitution2: "'frac' Diagonal Fractions lookup 5 subtable" nine.numerator
Substitution2: "'smcp' Lowercase to Small Capitals lookup 1 subtable" nine.smcp
EndChar

StartChar: colon
Encoding: 58 58 29
Width: 266
GlyphClass: 2
Flags: W
LayerCount: 2
Fore
SplineSet
116 126 m 2,0,-1
 190 126 l 2,1,2
 211 126 211 126 211 108 c 0,3,4
 211 105 211 105 211 101 c 2,5,-1
 198 23 l 2,6,7
 194 0 194 0 170 0 c 2,8,-1
 96 0 l 2,9,10
 85 0 85 0 79.5 6.5 c 128,-1,11
 74 13 74 13 75 23 c 2,12,-1
 88 101 l 1,13,14
 91 126 91 126 116 126 c 2,0,-1
180 532 m 2,16,-1
 254 532 l 2,17,18
 275 532 275 532 275 514 c 0,19,20
 275 511 275 511 275 507 c 2,21,-1
 263 429 l 2,22,23
 259 406 259 406 234 406 c 2,24,-1
 160 406 l 2,25,26
 149 406 149 406 143.5 412 c 128,-1,27
 138 418 138 418 140 429 c 2,28,-1
 152 507 l 2,29,15
 155 532 155 532 180 532 c 2,16,-1
EndSplineSet
EndChar

StartChar: semicolon
Encoding: 59 59 30
Width: 266
GlyphClass: 2
Flags: W
LayerCount: 2
Fore
SplineSet
97 0 m 2,0,1
 87 0 87 0 80.5 7.5 c 128,-1,2
 74 15 74 15 76 25 c 2,3,-1
 88 100 l 2,4,5
 89 112 89 112 97.5 119.5 c 128,-1,6
 106 127 106 127 117 127 c 2,7,-1
 189 127 l 2,8,9
 209 127 209 127 209 107 c 0,10,11
 209 104 209 104 209 100 c 2,12,-1
 191 -11 l 2,13,14
 186 -40 186 -40 171 -59 c 0,15,16
 146 -92 146 -92 90 -92 c 0,17,18
 81 -92 81 -92 75 -90 c 2,19,-1
 63 -88 l 1,20,-1
 70 -46 l 1,21,22
 84 -46 84 -46 92 -40.5 c 128,-1,23
 100 -35 100 -35 102 -30.5 c 128,-1,24
 104 -26 104 -26 105 -18 c 2,25,-1
 108 0 l 1,26,-1
 97 0 l 2,0,1
181 532 m 2,27,-1
 255 532 l 2,28,29
 277 532 277 532 277 514 c 0,30,31
 277 511 277 511 276 507 c 2,32,-1
 264 429 l 2,33,34
 260 406 260 406 236 406 c 2,35,-1
 162 406 l 2,36,37
 151 406 151 406 145.5 412.5 c 128,-1,38
 140 419 140 419 141 429 c 2,39,-1
 153 507 l 2,40,41
 157 532 157 532 181 532 c 2,27,-1
EndSplineSet
EndChar

StartChar: less
Encoding: 60 60 31
Width: 458
GlyphClass: 2
Flags: W
LayerCount: 2
Fore
SplineSet
89 297 m 1,0,-1
 107 409 l 1,1,-1
 505 560 l 1,2,-1
 488 448 l 1,3,-1
 219 349 l 1,4,-1
 456 245 l 1,5,-1
 438 136 l 1,6,-1
 89 297 l 1,0,-1
EndSplineSet
EndChar

StartChar: equal
Encoding: 61 61 32
Width: 467
GlyphClass: 2
Flags: W
LayerCount: 2
Fore
SplineSet
50 194 m 1,0,-1
 67 296 l 1,1,-1
 494 296 l 1,2,-1
 477 194 l 1,3,-1
 50 194 l 1,0,-1
83 407 m 1,4,-1
 100 509 l 1,5,-1
 527 509 l 1,6,-1
 510 407 l 1,7,-1
 83 407 l 1,4,-1
EndSplineSet
EndChar

StartChar: greater
Encoding: 62 62 33
Width: 459
GlyphClass: 2
Flags: W
LayerCount: 2
Fore
SplineSet
64 136 m 1,0,-1
 82 249 l 1,1,-1
 354 357 l 1,2,-1
 113 454 l 1,3,-1
 131 560 l 1,4,-1
 481 409 l 1,5,-1
 464 297 l 1,6,-1
 64 136 l 1,0,-1
EndSplineSet
EndChar

StartChar: question
Encoding: 63 63 34
Width: 541
GlyphClass: 2
Flags: W
LayerCount: 2
Fore
SplineSet
321 289 m 1,0,-1
 307 195 l 1,1,-1
 207 195 l 1,2,-1
 236 378 l 1,3,4
 277 377 277 377 308.5 377 c 128,-1,5
 340 377 340 377 363.5 378 c 128,-1,6
 387 379 387 379 408 387.5 c 128,-1,7
 429 396 429 396 445.5 415.5 c 128,-1,8
 462 435 462 435 467 465 c 2,9,-1
 478 536 l 2,10,11
 480 549 480 549 480 560 c 0,12,13
 480 594 480 594 459 613 c 128,-1,14
 438 632 438 632 373 632 c 2,15,-1
 116 632 l 1,16,-1
 130 716 l 1,17,18
 277 740 277 740 370 740 c 0,19,20
 393 740 393 740 416 739 c 1,21,22
 483 739 483 739 528 710 c 0,23,24
 598 664 598 664 598 578 c 0,25,26
 598 561 598 561 595 544 c 2,27,-1
 582 453 l 1,28,29
 566 349 566 349 501 312 c 1,30,31
 453 286 453 286 378 286 c 0,32,33
 351 286 351 286 321 289 c 1,0,-1
209 126 m 2,34,-1
 283 126 l 2,35,36
 305 126 305 126 305 108 c 0,37,38
 305 105 305 105 304 101 c 2,39,-1
 292 23 l 2,40,41
 288 0 288 0 264 0 c 2,42,-1
 190 0 l 2,43,44
 179 0 179 0 173 6.5 c 128,-1,45
 167 13 167 13 169 23 c 2,46,-1
 181 101 l 2,47,48
 185 126 185 126 209 126 c 2,34,-1
EndSplineSet
Substitution2: "'smcp' Lowercase to Small Capitals lookup 1 subtable" question.smcp
EndChar

StartChar: at
Encoding: 64 64 35
Width: 886
GlyphClass: 2
Flags: W
LayerCount: 2
Fore
SplineSet
739 713 m 2,0,1
 897 713 897 713 897 554 c 0,2,3
 897 529 897 529 892 500 c 2,4,-1
 842 164 l 2,5,6
 829 78 829 78 782 39 c 0,7,8
 738 3 738 3 658 3 c 2,9,-1
 580 3 l 1,10,-1
 556 60 l 1,11,12
 503 -4 503 -4 415 -4 c 0,13,14
 255 -4 255 -4 255 187 c 0,15,16
 255 230 255 230 263 281 c 0,17,18
 303 545 303 545 488 545 c 0,19,20
 648 545 648 545 715 480 c 1,21,-1
 660 102 l 1,22,23
 700 102 700 102 719 118.5 c 128,-1,24
 738 135 738 135 746 192 c 2,25,-1
 793 507 l 2,26,27
 803 570 803 570 786 592 c 0,28,29
 775 607 775 607 762 610 c 0,30,31
 744 614 744 614 719 614 c 2,32,-1
 351 614 l 2,33,34
 284 614 284 614 258 575 c 0,35,36
 238 544 238 544 232 507 c 2,37,-1
 155 20 l 2,38,39
 152 4 152 4 152 -17.5 c 128,-1,40
 152 -39 152 -39 164 -59 c 0,41,42
 182 -88 182 -88 241 -88 c 2,43,-1
 627 -88 l 1,44,-1
 615 -159 l 1,45,46
 480 -186 480 -186 323 -186 c 2,47,-1
 228 -186 l 2,48,49
 160 -186 160 -186 117 -156 c 0,50,51
 52 -110 52 -110 52 -18 c 0,52,53
 52 3 52 3 56 26 c 2,54,-1
 134 521 l 2,55,56
 149 617 149 617 206.5 665 c 128,-1,57
 264 713 264 713 371 713 c 2,58,-1
 739 713 l 2,0,1
375 339.5 m 128,-1,60
 365 306 365 306 359.5 263 c 128,-1,61
 354 220 354 220 354 187 c 128,-1,62
 354 154 354 154 361 133 c 0,63,64
 375 94 375 94 428 94 c 0,65,66
 471 94 471 94 503 108.5 c 128,-1,67
 535 123 535 123 567 158 c 1,68,-1
 610 435 l 1,69,70
 560 447 560 447 514.5 447 c 128,-1,71
 469 447 469 447 454 442.5 c 128,-1,72
 439 438 439 438 424 425.5 c 128,-1,73
 409 413 409 413 397 393 c 128,-1,59
 385 373 385 373 375 339.5 c 128,-1,60
EndSplineSet
Substitution2: "'case' Case-Sensitive Forms lookup 18 subtable" at.alt
Substitution2: "'smcp' Lowercase to Small Capitals lookup 1 subtable" at.smcp
EndChar

StartChar: A
Encoding: 65 65 36
Width: 677
GlyphClass: 2
Flags: W
LayerCount: 2
Fore
SplineSet
38 0 m 1,0,-1
 409 732 l 1,1,-1
 537 732 l 1,2,-1
 666 0 l 1,3,-1
 548 0 l 1,4,-1
 515 177 l 1,5,-1
 256 177 l 1,6,-1
 166 0 l 1,7,-1
 38 0 l 1,0,-1
306 283 m 1,8,-1
 501 283 l 1,9,-1
 452 579 l 1,10,-1
 306 283 l 1,8,-1
EndSplineSet
Substitution2: "'c2sc' Capitals to Small Capitals in Latin lookup 2 subtable" a.smcp
EndChar

StartChar: B
Encoding: 66 66 37
Width: 598
GlyphClass: 2
Flags: W
LayerCount: 2
Fore
SplineSet
475 732 m 2,0,1
 563 732 563 732 604 689 c 0,2,3
 648 643 648 643 648 573 c 0,4,5
 648 552 648 552 646 530 c 0,6,7
 638 467 638 467 604.5 428.5 c 128,-1,8
 571 390 571 390 523 380 c 1,9,10
 560 374 560 374 586 324 c 0,11,12
 605 288 605 288 605 238 c 0,13,14
 605 219 605 219 603 199 c 0,15,16
 589 93 589 93 532.5 46.5 c 128,-1,17
 476 0 476 0 361 0 c 2,18,-1
 68 0 l 1,19,-1
 184 732 l 1,20,-1
 475 732 l 2,0,1
487 216 m 0,21,22
 489 231 489 231 489 253.5 c 128,-1,23
 489 276 489 276 477 299 c 0,24,25
 458 333 458 333 410 333 c 2,26,-1
 237 333 l 1,27,-1
 201 106 l 1,28,-1
 375 106 l 2,29,30
 469 106 469 106 487 216 c 0,21,22
495 459 m 0,31,32
 532 493 532 493 532 569 c 0,33,34
 532 591 532 591 514.5 609 c 128,-1,35
 497 627 497 627 455 627 c 2,36,-1
 284 627 l 1,37,-1
 253 435 l 1,38,-1
 423 435 l 2,39,40
 468 435 468 435 495 459 c 0,31,32
EndSplineSet
Substitution2: "'c2sc' Capitals to Small Capitals in Latin lookup 2 subtable" b.smcp
EndChar

StartChar: C
Encoding: 67 67 38
Width: 573
GlyphClass: 2
Flags: W
LayerCount: 2
Fore
SplineSet
410 740 m 0,0,1
 533 740 533 740 657 707 c 1,2,-1
 642 615 l 1,3,4
 524 631 524 631 430 631 c 0,5,6
 423 631 423 631 419 631 c 128,-1,7
 415 631 415 631 406.5 631 c 128,-1,8
 398 631 398 631 390 630.5 c 128,-1,9
 382 630 382 630 367 627.5 c 128,-1,10
 352 625 352 625 343 620.5 c 128,-1,11
 334 616 334 616 320 607 c 128,-1,12
 306 598 306 598 296.5 585 c 128,-1,13
 287 572 287 572 275 552 c 128,-1,14
 263 532 263 532 255 506 c 0,15,16
 234 445 234 445 222.5 375.5 c 128,-1,17
 211 306 211 306 211 256.5 c 128,-1,18
 211 207 211 207 224 173 c 0,19,20
 248 107 248 107 328 103 c 0,21,22
 344 103 344 103 392 103 c 128,-1,23
 440 103 440 103 565 111 c 1,24,-1
 551 20 l 1,25,26
 465 -6 465 -6 315 -6 c 0,27,28
 241 -6 241 -6 201 16 c 0,29,30
 95 72 95 72 95 256 c 0,31,32
 95 312 95 312 108 391.5 c 128,-1,33
 121 471 121 471 141.5 534.5 c 128,-1,34
 162 598 162 598 197 646 c 0,35,36
 265 740 265 740 410 740 c 0,0,1
EndSplineSet
Substitution2: "'c2sc' Capitals to Small Capitals in Latin lookup 2 subtable" c.smcp
EndChar

StartChar: D
Encoding: 68 68 39
Width: 660
GlyphClass: 2
Flags: W
LayerCount: 2
Fore
SplineSet
472 732 m 0,0,1
 577 732 577 732 626 668 c 0,2,3
 673 606 673 606 680 521 c 0,4,5
 682 493 682 493 682 472 c 0,6,7
 682 412 682 412 672 352 c 0,8,9
 643 172 643 172 569.5 86 c 128,-1,10
 496 0 496 0 362 0 c 2,11,-1
 68 0 l 1,12,-1
 184 731 l 2,13,14
 184 732 184 732 472 732 c 0,0,1
366 107 m 2,15,16
 443 107 443 107 490.5 177 c 128,-1,17
 538 247 538 247 556 364 c 1,18,19
 567 428 567 428 567 481 c 0,20,21
 567 626 567 626 445 626 c 2,22,-1
 283 626 l 1,23,-1
 201 107 l 1,24,-1
 366 107 l 2,15,16
EndSplineSet
Substitution2: "'c2sc' Capitals to Small Capitals in Latin lookup 2 subtable" d.smcp
EndChar

StartChar: E
Encoding: 69 69 40
Width: 562
GlyphClass: 2
Flags: W
LayerCount: 2
Fore
SplineSet
319 732 m 0,0,1
 323 732 323 732 460.5 727 c 128,-1,2
 598 722 598 722 638 716 c 1,3,-1
 623 621 l 1,4,-1
 331 621 l 2,5,6
 295 621 295 621 283 603 c 0,7,8
 273 588 273 588 270 565 c 2,9,-1
 247 421 l 1,10,-1
 546 411 l 1,11,-1
 531 316 l 1,12,-1
 229 307 l 1,13,-1
 206 160 l 2,14,15
 200 122 200 122 220 114 c 0,16,17
 235 108 235 108 260 108 c 2,18,-1
 543 108 l 1,19,-1
 527 14 l 1,20,21
 494 10 494 10 289 0 c 2,22,-1
 221 -3 l 2,23,24
 216 -3 216 -3 202 -3 c 128,-1,25
 188 -3 188 -3 166 3 c 0,26,27
 84 24 84 24 84 110 c 0,28,29
 84 124 84 124 86 140 c 2,30,-1
 158 592 l 2,31,32
 180 732 180 732 319 732 c 0,0,1
EndSplineSet
Substitution2: "'c2sc' Capitals to Small Capitals in Latin lookup 2 subtable" e.smcp
EndChar

StartChar: F
Encoding: 70 70 41
Width: 564
GlyphClass: 2
Flags: W
LayerCount: 2
Fore
SplineSet
321 732 m 0,0,1
 325 732 325 732 462 727 c 128,-1,2
 599 722 599 722 639 716 c 1,3,-1
 625 621 l 1,4,-1
 332 621 l 2,5,6
 299 621 299 621 287 606 c 128,-1,7
 275 591 275 591 271 565 c 2,8,-1
 249 420 l 1,9,-1
 548 410 l 1,10,-1
 533 315 l 1,11,-1
 230 305 l 1,12,-1
 182 0 l 1,13,-1
 66 0 l 1,14,-1
 158 585 l 2,15,16
 171 665 171 665 215.5 698.5 c 128,-1,17
 260 732 260 732 321 732 c 0,0,1
EndSplineSet
Substitution2: "'c2sc' Capitals to Small Capitals in Latin lookup 2 subtable" f.smcp
EndChar

StartChar: G
Encoding: 71 71 42
Width: 612
GlyphClass: 2
Flags: W
LayerCount: 2
Fore
SplineSet
216 248 m 0,0,1
 216 104 216 104 325 104 c 2,2,3
 325 104 325 104 326 104 c 0,4,5
 358 104 358 104 396.5 117 c 128,-1,6
 435 130 435 130 457 143 c 2,7,-1
 480 156 l 1,8,-1
 506 307 l 1,9,-1
 379 307 l 1,10,-1
 391 382 l 1,11,12
 462 406 462 406 570 406 c 0,13,14
 601 406 601 406 637 404 c 1,15,-1
 573 0 l 1,16,-1
 488 0 l 1,17,-1
 465 54 l 1,18,19
 439 29 439 29 394 12 c 0,20,21
 345 -6 345 -6 290 -6 c 128,-1,22
 235 -6 235 -6 196 16 c 0,23,24
 96 72 96 72 96 253 c 0,25,26
 96 312 96 312 109 384.5 c 128,-1,27
 122 457 122 457 137 509.5 c 128,-1,28
 152 562 152 562 175.5 608 c 128,-1,29
 199 654 199 654 230 681 c 0,30,31
 297 739 297 739 411 739 c 0,32,33
 413 739 413 739 416 739 c 0,34,35
 529 739 529 739 665 707 c 1,36,-1
 651 617 l 1,37,38
 616 622 616 622 542 628 c 0,39,40
 462 634 462 634 425.5 634 c 128,-1,41
 389 634 389 634 372 631 c 128,-1,42
 355 628 355 628 330.5 613 c 128,-1,43
 306 598 306 598 289 571 c 0,44,45
 247 505 247 505 227 366 c 1,46,47
 216 299 216 299 216 248 c 0,0,1
EndSplineSet
Substitution2: "'c2sc' Capitals to Small Capitals in Latin lookup 2 subtable" g.smcp
EndChar

StartChar: H
Encoding: 72 72 43
Width: 646
GlyphClass: 2
Flags: W
LayerCount: 2
Fore
SplineSet
71 0 m 1,0,-1
 187 732 l 1,1,-1
 303 732 l 1,2,-1
 251 408 l 1,3,-1
 538 408 l 1,4,-1
 590 732 l 1,5,-1
 706 732 l 1,6,-1
 590 0 l 1,7,-1
 474 0 l 1,8,-1
 522 300 l 1,9,-1
 235 300 l 1,10,-1
 187 0 l 1,11,-1
 71 0 l 1,0,-1
EndSplineSet
Substitution2: "'c2sc' Capitals to Small Capitals in Latin lookup 2 subtable" h.smcp
EndChar

StartChar: I
Encoding: 73 73 44
Width: 244
GlyphClass: 2
Flags: W
LayerCount: 2
Fore
SplineSet
74 0 m 1,0,-1
 190 732 l 1,1,-1
 306 732 l 1,2,-1
 190 0 l 1,3,-1
 74 0 l 1,0,-1
EndSplineSet
Substitution2: "'c2sc' Capitals to Small Capitals in Latin lookup 2 subtable" i.smcp
EndChar

StartChar: J
Encoding: 74 74 45
Width: 357
GlyphClass: 2
Flags: W
LayerCount: 2
Fore
SplineSet
33 22 m 1,0,-1
 50 111 l 1,1,2
 124 101 124 101 141 105.5 c 128,-1,3
 158 110 158 110 172.5 116 c 128,-1,4
 187 122 187 122 196 134 c 0,5,6
 216 161 216 161 223 204 c 2,7,-1
 307 732 l 1,8,-1
 423 732 l 1,9,-1
 333 165 l 2,10,11
 316 52 316 52 257 18 c 0,12,13
 216 -5 216 -5 143.5 -5 c 128,-1,14
 71 -5 71 -5 33 22 c 1,0,-1
EndSplineSet
Substitution2: "'c2sc' Capitals to Small Capitals in Latin lookup 2 subtable" j.smcp
EndChar

StartChar: K
Encoding: 75 75 46
Width: 602
GlyphClass: 2
Flags: W
LayerCount: 2
Fore
SplineSet
68 0 m 1,0,-1
 184 732 l 1,1,-1
 296 732 l 1,2,-1
 246 418 l 1,3,-1
 313 418 l 1,4,-1
 560 732 l 1,5,-1
 702 732 l 1,6,-1
 414 357 l 1,7,-1
 586 0 l 1,8,-1
 452 0 l 1,9,-1
 307 312 l 1,10,-1
 230 312 l 1,11,-1
 181 0 l 1,12,-1
 68 0 l 1,0,-1
EndSplineSet
Substitution2: "'c2sc' Capitals to Small Capitals in Latin lookup 2 subtable" k.smcp
EndChar

StartChar: L
Encoding: 76 76 47
Width: 531
GlyphClass: 2
Flags: W
LayerCount: 2
Fore
SplineSet
263 109 m 2,0,-1
 534 109 l 1,1,-1
 517 0 l 1,2,-1
 213 0 l 2,3,4
 150 0 150 0 118 29 c 128,-1,5
 86 58 86 58 86 105 c 0,6,7
 86 120 86 120 88 136 c 2,8,-1
 184 732 l 1,9,-1
 299 732 l 1,10,-1
 208 161 l 1,11,12
 203 123 203 123 223 115 c 0,13,14
 237 109 237 109 263 109 c 2,0,-1
EndSplineSet
Substitution2: "'c2sc' Capitals to Small Capitals in Latin lookup 2 subtable" l.smcp
EndChar

StartChar: M
Encoding: 77 77 48
Width: 818
GlyphClass: 2
Flags: W
LayerCount: 2
Fore
SplineSet
57 0 m 1,0,-1
 232 732 l 1,1,-1
 388 732 l 1,2,-1
 454 192 l 1,3,-1
 685 732 l 1,4,-1
 847 732 l 1,5,-1
 795 0 l 1,6,-1
 680 0 l 1,7,-1
 721 529 l 1,8,-1
 491 0 l 1,9,-1
 363 0 l 1,10,-1
 298 528 l 1,11,-1
 174 0 l 1,12,-1
 57 0 l 1,0,-1
EndSplineSet
AlternateSubs2: "'salt' Stylistic Alternatives in Latin lookup 16 subtable" M.salt
Substitution2: "'c2sc' Capitals to Small Capitals in Latin lookup 2 subtable" m.smcp
EndChar

StartChar: N
Encoding: 78 78 49
Width: 665
GlyphClass: 2
Flags: W
LayerCount: 2
Fore
SplineSet
68 0 m 1,0,-1
 184 732 l 1,1,-1
 299 732 l 1,2,-1
 533 213 l 1,3,-1
 615 732 l 1,4,-1
 731 732 l 1,5,-1
 615 0 l 1,6,-1
 501 0 l 1,7,-1
 266 515 l 1,8,-1
 185 0 l 1,9,-1
 68 0 l 1,0,-1
EndSplineSet
AlternateSubs2: "'salt' Stylistic Alternatives in Latin lookup 16 subtable" N.salt
Substitution2: "'c2sc' Capitals to Small Capitals in Latin lookup 2 subtable" n.smcp
EndChar

StartChar: O
Encoding: 79 79 50
Width: 666
GlyphClass: 2
Flags: W
LayerCount: 2
Fore
SplineSet
395 735.5 m 128,-1,1
 418 737 418 737 454.5 737 c 128,-1,2
 491 737 491 737 521.5 733.5 c 128,-1,3
 552 730 552 730 582.5 719.5 c 128,-1,4
 613 709 613 709 633 691 c 0,5,6
 681 650 681 650 694 575 c 0,7,8
 700 541 700 541 700 514 c 128,-1,9
 700 487 700 487 699 455 c 128,-1,10
 698 423 698 423 687.5 353.5 c 128,-1,11
 677 284 677 284 662 231 c 128,-1,12
 647 178 647 178 629.5 140.5 c 128,-1,13
 612 103 612 103 587.5 76.5 c 128,-1,14
 563 50 563 50 539 34.5 c 128,-1,15
 515 19 515 19 482 10 c 0,16,17
 427 -4 427 -4 367 -4 c 128,-1,18
 307 -4 307 -4 277 -1 c 128,-1,19
 247 2 247 2 216 12 c 128,-1,20
 185 22 185 22 165 38 c 0,21,22
 116 77 116 77 102 150 c 0,23,24
 96 185 96 185 96 211.5 c 128,-1,25
 96 238 96 238 96.5 269 c 128,-1,26
 97 300 97 300 107 363 c 128,-1,27
 117 426 117 426 128.5 472.5 c 128,-1,28
 140 519 140 519 152.5 554.5 c 128,-1,29
 165 590 165 590 182.5 617.5 c 128,-1,30
 200 645 200 645 216 664 c 128,-1,31
 232 683 232 683 254.5 696.5 c 128,-1,32
 277 710 277 710 297 718 c 128,-1,33
 317 726 317 726 344.5 730 c 128,-1,0
 372 734 372 734 395 735.5 c 128,-1,1
254 498 m 0,34,35
 212 356 212 356 212 221 c 0,36,37
 212 156 212 156 243 131 c 0,38,39
 263 116 263 116 289 110.5 c 128,-1,40
 315 105 315 105 360.5 105 c 128,-1,41
 406 105 406 105 438 114.5 c 128,-1,42
 470 124 470 124 497 152 c 0,43,44
 547 202 547 202 572 361 c 0,45,46
 584 439 584 439 584 475.5 c 128,-1,47
 584 512 584 512 582.5 532.5 c 128,-1,48
 581 553 581 553 571.5 572.5 c 128,-1,49
 562 592 562 592 552 603 c 128,-1,50
 542 614 542 614 522 619 c 0,51,52
 492 628 492 628 454.5 628 c 128,-1,53
 417 628 417 628 403 627.5 c 128,-1,54
 389 627 389 627 370.5 624 c 128,-1,55
 352 621 352 621 340.5 616 c 128,-1,56
 329 611 329 611 315 601.5 c 128,-1,57
 301 592 301 592 292 578 c 0,58,59
 266 539 266 539 254 498 c 0,34,35
EndSplineSet
Substitution2: "'c2sc' Capitals to Small Capitals in Latin lookup 2 subtable" o.smcp
EndChar

StartChar: P
Encoding: 80 80 51
Width: 596
GlyphClass: 2
Flags: W
LayerCount: 2
Fore
SplineSet
459 280 m 2,0,-1
 428 281 l 2,1,2
 421 281 421 281 403.5 281 c 128,-1,3
 386 281 386 281 309 288.5 c 128,-1,4
 232 296 232 296 228 299 c 1,5,-1
 180 0 l 1,6,-1
 64 0 l 1,7,-1
 180 732 l 1,8,-1
 486 732 l 2,9,10
 559 732 559 732 607 685 c 0,11,12
 649 645 649 645 649 558 c 0,13,14
 649 488 649 488 631 434 c 128,-1,15
 613 380 613 380 598 357 c 128,-1,16
 583 334 583 334 565 317.5 c 128,-1,17
 547 301 547 301 528 294 c 0,18,19
 487 280 487 280 459 280 c 2,0,-1
527 510 m 0,20,21
 531 530 531 530 531 542 c 128,-1,22
 531 554 531 554 529 568.5 c 128,-1,23
 527 583 527 583 522 595.5 c 128,-1,24
 517 608 517 608 506 614 c 1,25,26
 488 626 488 626 462 626 c 2,27,-1
 279 626 l 1,28,-1
 241 386 l 1,29,-1
 424 386 l 2,30,31
 464 386 464 386 490 412 c 128,-1,32
 516 438 516 438 527 510 c 0,20,21
EndSplineSet
Substitution2: "'c2sc' Capitals to Small Capitals in Latin lookup 2 subtable" p.smcp
EndChar

StartChar: Q
Encoding: 81 81 52
Width: 669
GlyphClass: 2
Flags: W
LayerCount: 2
Fore
SplineSet
398 736 m 128,-1,1
 421 737 421 737 457 737 c 128,-1,2
 493 737 493 737 524 733 c 128,-1,3
 555 729 555 729 585 718.5 c 128,-1,4
 615 708 615 708 636 690 c 0,5,6
 683 649 683 649 696 574 c 0,7,8
 702 539 702 539 702 512 c 128,-1,9
 702 485 702 485 701.5 453 c 128,-1,10
 701 421 701 421 690.5 351.5 c 128,-1,11
 680 282 680 282 664.5 229 c 128,-1,12
 649 176 649 176 631.5 139 c 128,-1,13
 614 102 614 102 589.5 75.5 c 128,-1,14
 565 49 565 49 541.5 34 c 128,-1,15
 518 19 518 19 484 10 c 0,16,17
 430 -4 430 -4 369.5 -4 c 128,-1,18
 309 -4 309 -4 279.5 -1 c 128,-1,19
 250 2 250 2 219 12 c 128,-1,20
 188 22 188 22 167 39 c 0,21,22
 118 78 118 78 105 151 c 0,23,24
 98 186 98 186 98 213 c 128,-1,25
 98 240 98 240 98.5 270.5 c 128,-1,26
 99 301 99 301 109 364.5 c 128,-1,27
 119 428 119 428 130.5 474.5 c 128,-1,28
 142 521 142 521 155 556 c 128,-1,29
 168 591 168 591 185 618.5 c 128,-1,30
 202 646 202 646 218.5 665 c 128,-1,31
 235 684 235 684 257.5 697.5 c 128,-1,32
 280 711 280 711 299.5 718.5 c 128,-1,33
 319 726 319 726 347 730.5 c 128,-1,0
 375 735 375 735 398 736 c 128,-1,1
242 446 m 0,34,35
 214 320 214 320 214 221 c 0,36,37
 214 156 214 156 246 131 c 0,38,39
 265 116 265 116 291 110.5 c 128,-1,40
 317 105 317 105 363 105 c 128,-1,41
 409 105 409 105 440.5 114.5 c 128,-1,42
 472 124 472 124 499 152 c 0,43,44
 549 202 549 202 574 361 c 0,45,46
 587 441 587 441 587 482.5 c 128,-1,47
 587 524 587 524 582.5 543.5 c 128,-1,48
 578 563 578 563 573 577 c 128,-1,49
 568 591 568 591 557 600.5 c 128,-1,50
 546 610 546 610 536 615.5 c 128,-1,51
 526 621 526 621 509 624 c 0,52,53
 483 628 483 628 450 628 c 128,-1,54
 417 628 417 628 401 627 c 128,-1,55
 385 626 385 626 365 622.5 c 128,-1,56
 345 619 345 619 333 611.5 c 128,-1,57
 321 604 321 604 306 591 c 128,-1,58
 291 578 291 578 281 558 c 0,59,60
 256 507 256 507 242 446 c 0,34,35
452 -71 m 0,61,62
 485 -71 485 -71 529 -58 c 1,63,-1
 513 -159 l 1,64,65
 483 -167 483 -167 453 -167 c 128,-1,66
 423 -167 423 -167 394 -159 c 0,67,68
 331 -141 331 -141 309 -94 c 0,69,70
 298 -71 298 -71 298 -54.5 c 128,-1,71
 298 -38 298 -38 299 -33 c 1,72,-1
 368 -33 l 1,73,74
 394 -71 394 -71 452 -71 c 0,61,62
EndSplineSet
Substitution2: "'c2sc' Capitals to Small Capitals in Latin lookup 2 subtable" q.smcp
EndChar

StartChar: R
Encoding: 82 82 53
Width: 606
GlyphClass: 2
Flags: W
LayerCount: 2
Fore
SplineSet
490 732 m 2,0,1
 572 732 572 732 615 676 c 0,2,3
 647 634 647 634 647 557 c 0,4,5
 647 471 647 471 626 419 c 128,-1,6
 605 367 605 367 589.5 347 c 128,-1,7
 574 327 574 327 551 314 c 128,-1,8
 528 301 528 301 516.5 298 c 128,-1,9
 505 295 505 295 490 293 c 1,10,-1
 594 0 l 1,11,-1
 464 0 l 1,12,-1
 374 285 l 1,13,-1
 227 296 l 1,14,-1
 180 0 l 1,15,-1
 64 0 l 1,16,-1
 180 732 l 1,17,-1
 490 732 l 2,0,1
424 388 m 2,18,19
 528 388 528 388 528 548 c 0,20,21
 528 586 528 586 519 602 c 0,22,23
 504 626 504 626 465 626 c 2,24,-1
 280 626 l 1,25,-1
 243 388 l 1,26,-1
 424 388 l 2,18,19
EndSplineSet
Substitution2: "'c2sc' Capitals to Small Capitals in Latin lookup 2 subtable" r.smcp
EndChar

StartChar: S
Encoding: 83 83 54
Width: 576
GlyphClass: 2
Flags: W
LayerCount: 2
Fore
SplineSet
335 101 m 0,0,1
 440 101 440 101 451 174 c 2,2,-1
 459 224 l 2,3,4
 461 239 461 239 461 255 c 128,-1,5
 461 271 461 271 454 283 c 0,6,7
 443 303 443 303 399 303 c 2,8,-1
 284 303 l 2,9,10
 201 303 201 303 165 337.5 c 128,-1,11
 129 372 129 372 124 413 c 0,12,13
 121 434 121 434 121 451.5 c 128,-1,14
 121 469 121 469 124 490 c 2,15,-1
 135 563 l 2,16,17
 156 705 156 705 274 731 c 0,18,19
 309 738 309 738 333.5 738 c 128,-1,20
 358 738 358 738 362 738 c 2,21,-1
 364 738 l 2,22,23
 427 738 427 738 503.5 730 c 128,-1,24
 580 722 580 722 625 711 c 1,25,-1
 611 620 l 1,26,27
 402 629 402 629 382 629 c 128,-1,28
 362 629 362 629 356 629 c 0,29,30
 309 629 309 629 283.5 614.5 c 128,-1,31
 258 600 258 600 250 546 c 2,32,-1
 243 499 l 2,33,34
 238 467 238 467 241 455.5 c 128,-1,35
 244 444 244 444 246.5 438.5 c 128,-1,36
 249 433 249 433 256 429 c 128,-1,37
 263 425 263 425 267.5 423 c 128,-1,38
 272 421 272 421 283 420 c 0,39,40
 297 419 297 419 318 419 c 2,41,-1
 435 419 l 2,42,43
 512 419 512 419 545 377 c 256,44,45
 578 335 578 335 578 286 c 0,46,47
 578 263 578 263 575 233 c 2,48,-1
 567 166 l 2,49,50
 562 119 562 119 543.5 85 c 128,-1,51
 525 51 525 51 502.5 33.5 c 128,-1,52
 480 16 480 16 447 6 c 0,53,54
 399 -8 399 -8 332 -8 c 0,55,56
 167 -8 167 -8 74 20 c 1,57,-1
 88 111 l 1,58,59
 169 101 169 101 335 101 c 0,0,1
EndSplineSet
Substitution2: "'c2sc' Capitals to Small Capitals in Latin lookup 2 subtable" s.smcp
EndChar

StartChar: T
Encoding: 84 84 55
Width: 585
GlyphClass: 2
Flags: W
LayerCount: 2
Fore
SplineSet
128 623 m 1,0,-1
 146 732 l 1,1,-1
 675 732 l 1,2,-1
 657 623 l 1,3,-1
 448 623 l 1,4,-1
 349 0 l 1,5,-1
 233 0 l 1,6,-1
 332 623 l 1,7,-1
 128 623 l 1,0,-1
EndSplineSet
Substitution2: "'c2sc' Capitals to Small Capitals in Latin lookup 2 subtable" t.smcp
EndChar

StartChar: U
Encoding: 85 85 56
Width: 654
GlyphClass: 2
Flags: W
LayerCount: 2
Fore
SplineSet
232 308 m 2,0,1
 224 260 224 260 224 217 c 128,-1,2
 224 174 224 174 239 148 c 0,3,4
 265 104 265 104 350 104 c 128,-1,5
 435 104 435 104 477 150.5 c 128,-1,6
 519 197 519 197 536 308 c 2,7,-1
 603 732 l 1,8,-1
 720 732 l 1,9,-1
 655 298 l 1,10,11
 630 140 630 140 556.5 67.5 c 128,-1,12
 483 -5 483 -5 336 -5 c 0,13,14
 203 -5 203 -5 153 59 c 0,15,16
 107 117 107 117 107 202 c 0,17,18
 107 251 107 251 116 319 c 1,19,-1
 182 732 l 1,20,-1
 299 732 l 1,21,-1
 232 308 l 2,0,1
EndSplineSet
Substitution2: "'c2sc' Capitals to Small Capitals in Latin lookup 2 subtable" u.smcp
EndChar

StartChar: V
Encoding: 86 86 57
Width: 680
GlyphClass: 2
Flags: W
LayerCount: 2
Fore
SplineSet
143 732 m 1,0,-1
 265 732 l 1,1,-1
 354 161 l 1,2,-1
 634 732 l 1,3,-1
 764 732 l 1,4,-1
 396 0 l 1,5,-1
 266 0 l 1,6,-1
 143 732 l 1,0,-1
EndSplineSet
Substitution2: "'c2sc' Capitals to Small Capitals in Latin lookup 2 subtable" v.smcp
EndChar

StartChar: W
Encoding: 87 87 58
Width: 1007
GlyphClass: 2
Flags: W
LayerCount: 2
Fore
SplineSet
143 732 m 1,0,-1
 263 732 l 1,1,-1
 354 165 l 1,2,-1
 623 732 l 1,3,-1
 749 732 l 1,4,-1
 642 512 l 1,5,-1
 696 162 l 1,6,-1
 968 732 l 1,7,-1
 1092 732 l 1,8,-1
 738 0 l 1,9,-1
 611 0 l 1,10,-1
 559 327 l 1,11,-1
 399 0 l 1,12,-1
 266 0 l 1,13,-1
 143 732 l 1,0,-1
EndSplineSet
Substitution2: "'c2sc' Capitals to Small Capitals in Latin lookup 2 subtable" w.smcp
EndChar

StartChar: X
Encoding: 88 88 59
Width: 628
GlyphClass: 2
Flags: W
LayerCount: 2
Fore
SplineSet
34 0 m 1,0,-1
 307 371 l 1,1,-1
 148 732 l 1,2,-1
 273 732 l 1,3,-1
 386 464 l 1,4,-1
 583 732 l 1,5,-1
 716 732 l 1,6,-1
 436 351 l 1,7,-1
 590 0 l 1,8,-1
 464 0 l 1,9,-1
 357 257 l 1,10,-1
 168 0 l 1,11,-1
 34 0 l 1,0,-1
EndSplineSet
AlternateSubs2: "'salt' Stylistic Alternatives in Latin lookup 16 subtable" X.salt
Substitution2: "'c2sc' Capitals to Small Capitals in Latin lookup 2 subtable" x.smcp
EndChar

StartChar: Y
Encoding: 89 89 60
Width: 647
GlyphClass: 2
Flags: W
LayerCount: 2
Fore
SplineSet
143 732 m 1,0,-1
 268 732 l 1,1,-1
 368 371 l 1,2,-1
 597 732 l 1,3,-1
 731 732 l 1,4,-1
 408 239 l 1,5,-1
 370 0 l 1,6,-1
 254 0 l 1,7,-1
 292 239 l 1,8,-1
 143 732 l 1,0,-1
EndSplineSet
Substitution2: "'c2sc' Capitals to Small Capitals in Latin lookup 2 subtable" y.smcp
EndChar

StartChar: Z
Encoding: 90 90 61
Width: 559
GlyphClass: 2
Flags: W
LayerCount: 2
Fore
SplineSet
30 0 m 1,0,-1
 47 109 l 1,1,-1
 484 623 l 1,2,-1
 128 623 l 1,3,-1
 146 732 l 1,4,-1
 646 732 l 1,5,-1
 628 623 l 1,6,-1
 198 109 l 1,7,-1
 547 109 l 1,8,-1
 530 0 l 1,9,-1
 30 0 l 1,0,-1
EndSplineSet
Substitution2: "'c2sc' Capitals to Small Capitals in Latin lookup 2 subtable" z.smcp
EndChar

StartChar: bracketleft
Encoding: 91 91 62
Width: 329
GlyphClass: 2
Flags: W
LayerCount: 2
Fore
SplineSet
366 821 m 2,0,-1
 446 821 l 1,1,-1
 430 719 l 1,2,-1
 367 719 l 2,3,4
 347 719 347 719 333 713 c 0,5,6
 302 699 302 699 293 640 c 2,7,-1
 184 -38 l 1,8,9
 179 -62 179 -62 179 -75 c 128,-1,10
 179 -88 179 -88 182 -102 c 0,11,12
 188 -129 188 -129 231 -129 c 2,13,-1
 295 -129 l 1,14,-1
 279 -231 l 1,15,-1
 194 -231 l 2,16,17
 155 -231 155 -231 128 -217 c 0,18,19
 63 -184 63 -184 63 -86 c 0,20,21
 63 -61 63 -61 68 -31 c 2,22,-1
 179 659 l 2,23,24
 193 743 193 743 233 782 c 128,-1,25
 273 821 273 821 366 821 c 2,0,-1
EndSplineSet
EndChar

StartChar: backslash
Encoding: 92 92 63
Width: 428
GlyphClass: 2
Flags: W
LayerCount: 2
Fore
SplineSet
138 770 m 1,0,-1
 253 770 l 1,1,-1
 401 -72 l 1,2,-1
 286 -72 l 1,3,-1
 138 770 l 1,0,-1
EndSplineSet
EndChar

StartChar: bracketright
Encoding: 93 93 64
Width: 327
GlyphClass: 2
Flags: W
LayerCount: 2
Fore
SplineSet
63 -129 m 2,0,1
 94 -129 94 -129 112 -112 c 128,-1,2
 130 -95 130 -95 138 -50 c 2,3,-1
 245 628 l 2,4,5
 249 653 249 653 249 672 c 128,-1,6
 249 691 249 691 243 701 c 0,7,8
 232 719 232 719 197 719 c 2,9,-1
 134 719 l 1,10,-1
 151 821 l 1,11,-1
 232 821 l 2,12,13
 307 821 307 821 337 777 c 0,14,15
 365 735 365 735 365 686 c 0,16,17
 365 667 365 667 361 627 c 1,18,-1
 255 -69 l 2,19,20
 244 -142 244 -142 210 -183 c 0,21,22
 170 -231 170 -231 71 -231 c 2,23,-1
 -16 -231 l 1,24,-1
 0 -129 l 1,25,-1
 63 -129 l 2,0,1
EndSplineSet
EndChar

StartChar: asciicircum
Encoding: 94 94 65
Width: 387
GlyphClass: 2
Flags: W
LayerCount: 2
Fore
SplineSet
126 531 m 1,0,-1
 259 665 l 1,1,-1
 351 665 l 1,2,-1
 429 531 l 1,3,-1
 345 531 l 1,4,-1
 300 601 l 1,5,-1
 227 531 l 1,6,-1
 126 531 l 1,0,-1
EndSplineSet
EndChar

StartChar: underscore
Encoding: 95 95 66
Width: 673
GlyphClass: 2
Flags: W
LayerCount: 2
Fore
SplineSet
22 -1 m 1,0,-1
 39 101 l 1,1,-1
 673 101 l 1,2,-1
 656 -1 l 1,3,-1
 22 -1 l 1,0,-1
EndSplineSet
EndChar

StartChar: grave
Encoding: 96 96 67
Width: 250
GlyphClass: 2
Flags: W
LayerCount: 2
Fore
SplineSet
122 668 m 1,0,-1
 230 668 l 1,1,-1
 317 531 l 1,2,-1
 234 531 l 1,3,-1
 122 668 l 1,0,-1
EndSplineSet
Substitution2: "'smcp' Lowercase to Small Capitals lookup 1 subtable" grave.smcp
EndChar

StartChar: a
Encoding: 97 97 68
Width: 541
GlyphClass: 2
Flags: W
LayerCount: 2
Fore
SplineSet
263 533.5 m 128,-1,1
 287 539 287 539 310.5 540.5 c 128,-1,2
 334 542 334 542 367 542 c 128,-1,3
 400 542 400 542 467.5 527.5 c 128,-1,4
 535 513 535 513 571 479 c 1,5,-1
 501 1 l 1,6,-1
 413 1 l 1,7,-1
 395 57 l 1,8,9
 373 34 373 34 323 14 c 128,-1,10
 273 -6 273 -6 228 -6 c 128,-1,11
 183 -6 183 -6 152 8 c 128,-1,12
 121 22 121 22 98 57 c 0,13,14
 71 97 71 97 71 159.5 c 128,-1,15
 71 222 71 222 82 287.5 c 128,-1,16
 93 353 93 353 113.5 399 c 128,-1,17
 134 445 134 445 156 471 c 128,-1,18
 178 497 178 497 208.5 512.5 c 128,-1,0
 239 528 239 528 263 533.5 c 128,-1,1
448 431 m 1,19,20
 400 446 400 446 366.5 446 c 128,-1,21
 333 446 333 446 315.5 442.5 c 128,-1,22
 298 439 298 439 286.5 435 c 128,-1,23
 275 431 275 431 259 420 c 128,-1,24
 243 409 243 409 232 391 c 0,25,26
 207 347 207 347 194 264 c 1,27,28
 186 221 186 221 186 189.5 c 128,-1,29
 186 158 186 158 194 137 c 0,30,31
 208 96 208 96 255.5 96 c 128,-1,32
 303 96 303 96 335 108 c 128,-1,33
 367 120 367 120 405 145 c 1,34,-1
 448 431 l 1,19,20
EndSplineSet
AlternateSubs2: "'salt' Stylistic Alternatives in Latin lookup 16 subtable" a.salt
Substitution2: "'smcp' Lowercase to Small Capitals lookup 1 subtable" a.smcp
EndChar

StartChar: b
Encoding: 98 98 69
Width: 555
GlyphClass: 2
Flags: W
LayerCount: 2
Fore
SplineSet
245 502 m 1,0,1
 335 539 335 539 425 539 c 0,2,3
 465 539 465 539 495.5 522 c 128,-1,4
 526 505 526 505 542 479 c 1,5,6
 566 435 566 435 566 357 c 0,7,8
 566 277 566 277 541 179 c 0,9,10
 522 102 522 102 499.5 72 c 128,-1,11
 477 42 477 42 455 25 c 0,12,13
 416 -6 416 -6 351 -6 c 0,14,15
 299 -6 299 -6 248.5 14.5 c 128,-1,16
 198 35 198 35 175 56 c 1,17,-1
 143 0 l 1,18,-1
 51 0 l 1,19,-1
 175 785 l 1,20,-1
 290 785 l 1,21,-1
 245 502 l 1,0,1
332 97 m 0,22,23
 376 97 376 97 401 136.5 c 128,-1,24
 426 176 426 176 440 266 c 1,25,26
 450 320 450 320 450 351 c 128,-1,27
 450 382 450 382 445 399 c 1,28,29
 435 442 435 442 386 442 c 0,30,31
 306 442 306 442 233 420 c 1,32,-1
 188 135 l 1,33,34
 254 97 254 97 332 97 c 0,22,23
EndSplineSet
AlternateSubs2: "'salt' Stylistic Alternatives in Latin lookup 16 subtable" b.salt
Substitution2: "'smcp' Lowercase to Small Capitals lookup 1 subtable" b.smcp
EndChar

StartChar: c
Encoding: 99 99 70
Width: 493
GlyphClass: 2
Flags: W
LayerCount: 2
Fore
SplineSet
243.5 534.5 m 128,-1,1
 267 539 267 539 305 539 c 128,-1,2
 343 539 343 539 413 530.5 c 128,-1,3
 483 522 483 522 534 508 c 1,4,-1
 522 433 l 1,5,6
 411 441 411 441 355.5 441 c 128,-1,7
 300 441 300 441 288 439 c 128,-1,8
 276 437 276 437 261 427.5 c 128,-1,9
 246 418 246 418 236 399 c 0,10,11
 214 355 214 355 197 263 c 1,12,13
 188 202 188 202 188 172 c 128,-1,14
 188 142 188 142 198.5 124 c 128,-1,15
 209 106 209 106 225 99 c 128,-1,16
 241 92 241 92 274 92 c 0,17,18
 349 92 349 92 445 100 c 1,19,-1
 477 102 l 1,20,-1
 465 26 l 1,21,22
 406 7 406 7 355.5 0.5 c 128,-1,23
 305 -6 305 -6 268 -6 c 128,-1,24
 231 -6 231 -6 220 -6 c 0,25,26
 138 -5 138 -5 98 64 c 0,27,28
 73 107 73 107 73 164.5 c 128,-1,29
 73 222 73 222 83.5 284 c 128,-1,30
 94 346 94 346 111.5 395 c 128,-1,31
 129 444 129 444 148 471.5 c 128,-1,32
 167 499 167 499 193.5 514.5 c 128,-1,0
 220 530 220 530 243.5 534.5 c 128,-1,1
EndSplineSet
Substitution2: "'smcp' Lowercase to Small Capitals lookup 1 subtable" c.smcp
EndChar

StartChar: d
Encoding: 100 100 71
Width: 550
GlyphClass: 2
Flags: W
LayerCount: 2
Fore
SplineSet
223 525 m 128,-1,1
 257 539 257 539 296.5 539 c 128,-1,2
 336 539 336 539 384 529 c 128,-1,3
 432 519 432 519 468 502 c 1,4,-1
 513 785 l 1,5,-1
 628 785 l 1,6,-1
 503 0 l 1,7,-1
 411 0 l 1,8,-1
 396 56 l 1,9,10
 365 33 365 33 315 13.5 c 128,-1,11
 265 -6 265 -6 219 -6 c 128,-1,12
 173 -6 173 -6 140 18.5 c 128,-1,13
 107 43 107 43 93 82 c 0,14,15
 74 136 74 136 74 187 c 128,-1,16
 74 238 74 238 82 281.5 c 128,-1,17
 90 325 90 325 100 360.5 c 128,-1,18
 110 396 110 396 127 431.5 c 128,-1,19
 144 467 144 467 166.5 489 c 128,-1,0
 189 511 189 511 223 525 c 128,-1,1
192 192 m 0,20,21
 192 97 192 97 254 97 c 0,22,23
 332 97 332 97 409 135 c 1,24,-1
 454 420 l 1,25,26
 389 442 389 442 308 442 c 0,27,28
 281 442 281 442 263 429 c 0,29,30
 221 400 221 400 199 266 c 0,31,32
 192 224 192 224 192 192 c 0,20,21
EndSplineSet
AlternateSubs2: "'salt' Stylistic Alternatives in Latin lookup 16 subtable" d.salt
Substitution2: "'smcp' Lowercase to Small Capitals lookup 1 subtable" d.smcp
EndChar

StartChar: e
Encoding: 101 101 72
Width: 526
GlyphClass: 2
Flags: W
LayerCount: 2
Fore
SplineSet
352 541 m 0,0,1
 553 541 553 541 553 407 c 0,2,3
 553 341 553 341 524 297.5 c 128,-1,4
 495 254 495 254 457 236 c 0,5,6
 385 201 385 201 308 201 c 0,7,8
 270 201 270 201 236 205.5 c 128,-1,9
 202 210 202 210 190 215 c 1,10,11
 185 184 185 184 185 158 c 128,-1,12
 185 132 185 132 195 117 c 0,13,14
 211 91 211 91 265 90 c 0,15,16
 284 89 284 89 335 89 c 128,-1,17
 386 89 386 89 493 106 c 1,18,-1
 480 22 l 1,19,20
 377 -8 377 -8 255 -8 c 0,21,22
 234 -8 234 -8 213 -7 c 0,23,24
 118 -4 118 -4 87 70 c 0,25,26
 70 110 70 110 70 166.5 c 128,-1,27
 70 223 70 223 80.5 279.5 c 128,-1,28
 91 336 91 336 100 367 c 128,-1,29
 109 398 109 398 122.5 428.5 c 128,-1,30
 136 459 136 459 155 478 c 128,-1,31
 174 497 174 497 201 512 c 0,32,33
 253 541 253 541 352 541 c 0,0,1
201 293 m 1,34,35
 226 290 226 290 250.5 290 c 128,-1,36
 275 290 275 290 291.5 290.5 c 128,-1,37
 308 291 308 291 334 296 c 128,-1,38
 360 301 360 301 379.5 310 c 128,-1,39
 399 319 399 319 415 336 c 0,40,41
 436 359 436 359 436 389.5 c 128,-1,42
 436 420 436 420 417 431.5 c 128,-1,43
 398 443 398 443 345 443 c 0,44,45
 273 443 273 443 244 410 c 0,46,47
 219 381 219 381 209 334 c 0,48,49
 207 324 207 324 204 310.5 c 128,-1,50
 201 297 201 297 201 293 c 1,34,35
EndSplineSet
Substitution2: "'smcp' Lowercase to Small Capitals lookup 1 subtable" e.smcp
EndChar

StartChar: f
Encoding: 102 102 73
Width: 404
GlyphClass: 2
Flags: W
LayerCount: 2
Fore
SplineSet
372 785 m 0,0,1
 454 785 454 785 508 761 c 1,2,-1
 497 691 l 1,3,-1
 398 691 l 1,4,5
 398 691 398 691 397 691 c 0,6,7
 354 691 354 691 339.5 668 c 128,-1,8
 325 645 325 645 313 568 c 2,9,-1
 307 531 l 1,10,-1
 449 531 l 1,11,-1
 434 436 l 1,12,-1
 292 436 l 1,13,-1
 220 0 l 1,14,-1
 104 0 l 1,15,-1
 175 436 l 1,16,-1
 85 436 l 1,17,-1
 98 513 l 1,18,-1
 191 531 l 1,19,-1
 201 589 l 2,20,21
 213 663 213 663 233 705 c 1,22,23
 274 785 274 785 372 785 c 0,0,1
EndSplineSet
AlternateSubs2: "'salt' Stylistic Alternatives in Latin lookup 16 subtable" f.salt
Substitution2: "'smcp' Lowercase to Small Capitals lookup 1 subtable" f.smcp
EndChar

StartChar: g
Encoding: 103 103 74
Width: 555
GlyphClass: 2
Flags: W
LayerCount: 2
Fore
SplineSet
275 -171 m 2,0,1
 313 -171 313 -171 340.5 -146.5 c 128,-1,2
 368 -122 368 -122 375 -76 c 2,3,-1
 392 34 l 1,4,5
 317 -4 317 -4 249 -4 c 128,-1,6
 181 -4 181 -4 144.5 18 c 128,-1,7
 108 40 108 40 92 79 c 1,8,9
 75 125 75 125 75 180 c 128,-1,10
 75 235 75 235 84 288 c 0,11,12
 105 416 105 416 163.5 477.5 c 128,-1,13
 222 539 222 539 313 539 c 0,14,15
 384 539 384 539 462 530 c 128,-1,16
 540 521 540 521 585 512 c 1,17,-1
 490 -86 l 2,18,19
 475 -185 475 -185 421.5 -229 c 128,-1,20
 368 -273 368 -273 297 -273 c 0,21,22
 284 -273 284 -273 269 -272 c 2,23,-1
 26 -248 l 1,24,-1
 38 -171 l 1,25,-1
 275 -171 l 2,0,1
190 177 m 0,26,27
 190 93 190 93 263 93 c 0,28,29
 315 93 315 93 344.5 99.5 c 128,-1,30
 374 106 374 106 405 116 c 1,31,-1
 458 444 l 1,32,-1
 323 444 l 2,33,34
 228 444 228 444 201 276 c 0,35,36
 200 274 200 274 198 259 c 0,37,38
 190 206 190 206 190 177 c 0,26,27
EndSplineSet
AlternateSubs2: "'salt' Stylistic Alternatives in Latin lookup 16 subtable" g.salt
Substitution2: "'smcp' Lowercase to Small Capitals lookup 1 subtable" g.smcp
EndChar

StartChar: h
Encoding: 104 104 75
Width: 547
GlyphClass: 2
Flags: W
LayerCount: 2
Fore
SplineSet
379.5 535.5 m 128,-1,1
 404 540 404 540 439 540 c 128,-1,2
 474 540 474 540 504 525 c 0,3,4
 555 500 555 500 566 428 c 0,5,6
 567 415 567 415 567 398 c 128,-1,7
 567 381 567 381 563 360 c 2,8,-1
 506 0 l 1,9,-1
 390 0 l 1,10,-1
 447 361 l 2,11,12
 449 373 449 373 449 384 c 0,13,14
 449 442 449 442 390 442 c 0,15,16
 344 442 344 442 311 430.5 c 128,-1,17
 278 419 278 419 229 392 c 1,18,-1
 167 0 l 1,19,-1
 51 0 l 1,20,-1
 175 783 l 1,21,-1
 291 783 l 1,22,-1
 241 472 l 1,23,24
 244 474 244 474 260 483.5 c 128,-1,25
 276 493 276 493 291 501 c 128,-1,26
 306 509 306 509 330.5 520 c 128,-1,0
 355 531 355 531 379.5 535.5 c 128,-1,1
EndSplineSet
Substitution2: "'smcp' Lowercase to Small Capitals lookup 1 subtable" h.smcp
EndChar

StartChar: i
Encoding: 105 105 76
Width: 214
GlyphClass: 2
Flags: W
LayerCount: 2
Fore
SplineSet
49 0 m 1,0,-1
 133 531 l 1,1,-1
 249 531 l 1,2,-1
 165 0 l 1,3,-1
 49 0 l 1,0,-1
178 713 m 2,4,-1
 263 713 l 2,5,6
 282 713 282 713 282 694 c 0,7,8
 282 691 282 691 281 688 c 2,9,-1
 270 612 l 2,10,11
 267 589 267 589 243 589 c 2,12,-1
 158 589 l 2,13,14
 148 589 148 589 142.5 595 c 128,-1,15
 137 601 137 601 138 612 c 2,16,-1
 150 688 l 2,17,18
 153 713 153 713 178 713 c 2,4,-1
EndSplineSet
Substitution2: "'smcp' Lowercase to Small Capitals lookup 1 subtable" i.smcp
EndChar

StartChar: j
Encoding: 106 106 77
Width: 233
GlyphClass: 2
Flags: W
LayerCount: 2
Fore
SplineSet
16 -270 m 1,0,-1
 143 531 l 1,1,-1
 259 531 l 1,2,-1
 174 -4 l 1,3,4
 149 -172 149 -172 99 -270 c 1,5,-1
 16 -270 l 1,0,-1
273 713 m 2,6,7
 292 713 292 713 292 693 c 0,8,9
 292 691 292 691 292 688 c 2,10,-1
 280 612 l 2,11,12
 276 589 276 589 253 589 c 2,13,-1
 168 589 l 2,14,15
 157 589 157 589 151.5 595 c 128,-1,16
 146 601 146 601 148 612 c 2,17,-1
 160 688 l 2,18,19
 163 713 163 713 188 713 c 2,20,-1
 273 713 l 2,6,7
EndSplineSet
Substitution2: "'smcp' Lowercase to Small Capitals lookup 1 subtable" j.smcp
EndChar

StartChar: k
Encoding: 107 107 78
Width: 515
GlyphClass: 2
Flags: W
LayerCount: 2
Fore
SplineSet
51 0 m 1,0,-1
 175 782 l 1,1,-1
 291 782 l 1,2,-1
 219 330 l 1,3,4
 285 352 285 352 354 412.5 c 128,-1,5
 423 473 423 473 438 531 c 1,6,-1
 563 531 l 1,7,8
 540 448 540 448 477 382.5 c 128,-1,9
 414 317 414 317 354 288 c 1,10,-1
 531 0 l 1,11,-1
 399 0 l 1,12,-1
 245 253 l 1,13,-1
 207 252 l 1,14,-1
 167 0 l 1,15,-1
 51 0 l 1,0,-1
EndSplineSet
Substitution2: "'smcp' Lowercase to Small Capitals lookup 1 subtable" k.smcp
EndChar

StartChar: l
Encoding: 108 108 79
Width: 301
GlyphClass: 2
Flags: W
LayerCount: 2
Fore
SplineSet
202 0 m 2,0,1
 74 0 74 0 74 133 c 0,2,3
 74 158 74 158 79 189 c 2,4,-1
 173 783 l 1,5,-1
 289 783 l 1,6,-1
 198 203 l 2,7,8
 186 130 186 130 202 112 c 0,9,10
 211 101 211 101 232 95 c 0,11,12
 293 76 293 76 296 76 c 1,13,-1
 284 0 l 1,14,-1
 202 0 l 2,0,1
EndSplineSet
Substitution2: "'smcp' Lowercase to Small Capitals lookup 1 subtable" l.smcp
EndChar

StartChar: m
Encoding: 109 109 80
Width: 883
GlyphClass: 2
Flags: W
LayerCount: 2
Fore
SplineSet
507 516.5 m 128,-1,1
 541 495 541 495 552 461 c 1,2,3
 665 538 665 538 767 538 c 0,4,5
 842 538 842 538 877 488 c 0,6,7
 902 452 902 452 902 399 c 0,8,9
 902 379 902 379 898 357 c 2,10,-1
 842 0 l 1,11,-1
 726 0 l 1,12,-1
 783 358 l 2,13,14
 784 369 784 369 784 385.5 c 128,-1,15
 784 402 784 402 770 421 c 128,-1,16
 756 440 756 440 715 440 c 0,17,18
 634 440 634 440 564 393 c 0,19,20
 564 392 564 392 561.5 374.5 c 128,-1,21
 559 357 559 357 559 356 c 2,22,-1
 502 0 l 1,23,-1
 386 0 l 1,24,-1
 443 358 l 2,25,26
 444 368 444 368 444 379.5 c 128,-1,27
 444 391 444 391 439 406 c 0,28,29
 427 440 427 440 383.5 440 c 128,-1,30
 340 440 340 440 309.5 429 c 128,-1,31
 279 418 279 418 228 390 c 1,32,-1
 167 0 l 1,33,-1
 51 0 l 1,34,-1
 135 531 l 1,35,-1
 225 531 l 1,36,-1
 242 471 l 1,37,38
 246 474 246 474 265 485.5 c 128,-1,39
 284 497 284 497 290 500 c 128,-1,40
 296 503 296 503 312 511.5 c 128,-1,41
 328 520 328 520 338 523 c 128,-1,42
 348 526 348 526 363 530 c 0,43,44
 389 538 389 538 431 538 c 128,-1,0
 473 538 473 538 507 516.5 c 128,-1,1
EndSplineSet
AlternateSubs2: "'salt' Stylistic Alternatives in Latin lookup 16 subtable" m.salt
Substitution2: "'smcp' Lowercase to Small Capitals lookup 1 subtable" m.smcp
EndChar

StartChar: n
Encoding: 110 110 81
Width: 547
GlyphClass: 2
Flags: W
LayerCount: 2
Fore
SplineSet
361 530 m 128,-1,1
 396 540 396 540 435 540 c 128,-1,2
 474 540 474 540 504 525 c 0,3,4
 555 500 555 500 566 428 c 0,5,6
 567 415 567 415 567 398 c 128,-1,7
 567 381 567 381 563 360 c 2,8,-1
 506 0 l 1,9,-1
 390 0 l 1,10,-1
 447 361 l 2,11,12
 449 373 449 373 449 384 c 0,13,14
 449 442 449 442 390 442 c 0,15,16
 344 442 344 442 311 430.5 c 128,-1,17
 278 419 278 419 229 392 c 1,18,-1
 167 0 l 1,19,-1
 51 0 l 1,20,-1
 135 531 l 1,21,-1
 225 531 l 1,22,-1
 242 472 l 1,23,24
 245 474 245 474 266 486.5 c 128,-1,25
 287 499 287 499 306.5 509.5 c 128,-1,0
 326 520 326 520 361 530 c 128,-1,1
EndSplineSet
AlternateSubs2: "'salt' Stylistic Alternatives in Latin lookup 16 subtable" n.salt
Substitution2: "'smcp' Lowercase to Small Capitals lookup 1 subtable" n.smcp
EndChar

StartChar: o
Encoding: 111 111 82
Width: 560
GlyphClass: 2
Flags: W
LayerCount: 2
Fore
SplineSet
363 537 m 0,0,1
 492 537 492 537 538 467 c 0,2,3
 568 422 568 422 568 342 c 0,4,5
 568 300 568 300 560 249 c 0,6,7
 536 101 536 101 478.5 48 c 128,-1,8
 421 -5 421 -5 287.5 -5 c 128,-1,9
 154 -5 154 -5 106 59 c 0,10,11
 74 103 74 103 74 182 c 0,12,13
 74 220 74 220 84.5 284.5 c 128,-1,14
 95 349 95 349 115 400.5 c 128,-1,15
 135 452 135 452 169 483 c 128,-1,16
 203 514 203 514 248.5 525.5 c 128,-1,17
 294 537 294 537 363 537 c 0,0,1
219 354 m 128,-1,19
 208 319 208 319 199 265 c 128,-1,20
 190 211 190 211 190 187 c 128,-1,21
 190 163 190 163 194 147 c 128,-1,22
 198 131 198 131 205 120 c 128,-1,23
 212 109 212 109 227 103 c 0,24,25
 250 93 250 93 291 93.5 c 128,-1,26
 332 94 332 94 352 98 c 128,-1,27
 372 102 372 102 391.5 118.5 c 128,-1,28
 411 135 411 135 423 168 c 128,-1,29
 435 201 435 201 443 253 c 0,30,31
 453 312 453 312 453 341 c 128,-1,32
 453 370 453 370 449 389 c 128,-1,33
 445 408 445 408 431 419 c 0,34,35
 407 439 407 439 359.5 439 c 128,-1,36
 312 439 312 439 290 433 c 128,-1,37
 268 427 268 427 249 408 c 128,-1,18
 230 389 230 389 219 354 c 128,-1,19
EndSplineSet
Substitution2: "'smcp' Lowercase to Small Capitals lookup 1 subtable" o.smcp
EndChar

StartChar: p
Encoding: 112 112 83
Width: 557
GlyphClass: 2
Flags: W
LayerCount: 2
Fore
SplineSet
406 535 m 0,0,1
 567 535 567 535 567 325 c 0,2,3
 567 287 567 287 559 248 c 1,4,5
 542 124 542 124 488 57.5 c 128,-1,6
 434 -9 434 -9 332 -9 c 0,7,8
 294 -9 294 -9 248.5 0.5 c 128,-1,9
 203 10 203 10 172 29 c 1,10,-1
 124 -270 l 1,11,-1
 8 -270 l 1,12,-1
 137 514 l 1,13,14
 249 535 249 535 406 535 c 0,0,1
358 96.5 m 128,-1,16
 379 106 379 106 395 124 c 0,17,18
 426 160 426 160 444 267 c 0,19,20
 450 307 450 307 450 338 c 0,21,22
 450 440 450 440 378 440 c 2,23,-1
 240 440 l 1,24,-1
 186 111 l 1,25,26
 238 87 238 87 287.5 87 c 128,-1,15
 337 87 337 87 358 96.5 c 128,-1,16
EndSplineSet
AlternateSubs2: "'salt' Stylistic Alternatives in Latin lookup 16 subtable" p.salt
Substitution2: "'smcp' Lowercase to Small Capitals lookup 1 subtable" p.smcp
EndChar

StartChar: q
Encoding: 113 113 84
Width: 553
GlyphClass: 2
Flags: W
LayerCount: 2
Fore
SplineSet
317 538 m 0,0,1
 456 538 456 538 584 511 c 1,2,-1
 461 -270 l 1,3,-1
 345 -270 l 1,4,-1
 392 29 l 1,5,6
 314 -10 314 -10 247 -10 c 128,-1,7
 180 -10 180 -10 144 11 c 128,-1,8
 108 32 108 32 92 71 c 0,9,10
 74 116 74 116 74 171 c 128,-1,11
 74 226 74 226 84 278 c 1,12,13
 105 412 105 412 163 475 c 128,-1,14
 221 538 221 538 317 538 c 0,0,1
200 270 m 0,15,16
 189 196 189 196 189 180.5 c 128,-1,17
 189 165 189 165 190 149.5 c 128,-1,18
 191 134 191 134 194.5 126.5 c 128,-1,19
 198 119 198 119 203.5 110 c 128,-1,20
 209 101 209 101 217 97 c 0,21,22
 237 87 237 87 264 87 c 128,-1,23
 291 87 291 87 311 89 c 0,24,25
 348 92 348 92 405 110 c 1,26,-1
 457 443 l 1,27,-1
 319 443 l 2,28,29
 226 443 226 443 200 270 c 0,15,16
EndSplineSet
Substitution2: "'smcp' Lowercase to Small Capitals lookup 1 subtable" q.smcp
EndChar

StartChar: r
Encoding: 114 114 85
Width: 421
GlyphClass: 2
Flags: W
LayerCount: 2
Fore
SplineSet
352 525 m 128,-1,1
 387 537 387 537 428 537 c 128,-1,2
 469 537 469 537 484 530 c 1,3,-1
 466 417 l 1,4,5
 440 421 440 421 390.5 421 c 128,-1,6
 341 421 341 421 304 408.5 c 128,-1,7
 267 396 267 396 224 362 c 1,8,-1
 167 0 l 1,9,-1
 51 0 l 1,10,-1
 135 531 l 1,11,-1
 229 531 l 1,12,-1
 240 464 l 1,13,14
 273 487 273 487 295 500 c 128,-1,0
 317 513 317 513 352 525 c 128,-1,1
EndSplineSet
AlternateSubs2: "'salt' Stylistic Alternatives in Latin lookup 16 subtable" r.salt
Substitution2: "'smcp' Lowercase to Small Capitals lookup 1 subtable" r.smcp
EndChar

StartChar: s
Encoding: 115 115 86
Width: 508
GlyphClass: 2
Flags: W
LayerCount: 2
Fore
SplineSet
330 93 m 2,0,1
 372 93 372 93 379 134 c 2,2,-1
 385 171 l 1,3,4
 387 177 387 177 387 186 c 0,5,6
 387 213 387 213 349 213 c 2,7,-1
 219 213 l 2,8,9
 147 213 147 213 112 248 c 0,10,11
 86 275 86 275 86 323 c 0,12,13
 86 339 86 339 89 358 c 2,14,-1
 97 407 l 2,15,16
 108 473 108 473 145.5 506 c 128,-1,17
 183 539 183 539 259 539 c 128,-1,18
 335 539 335 539 417.5 533.5 c 128,-1,19
 500 528 500 528 529 516 c 1,20,-1
 517 439 l 1,21,-1
 269 439 l 2,22,23
 238 439 238 439 226.5 426.5 c 128,-1,24
 215 414 215 414 212 395 c 2,25,-1
 207 359 l 2,26,27
 202 328 202 328 214 321 c 0,28,29
 223 316 223 316 235 316.5 c 128,-1,30
 247 317 247 317 249 317 c 2,31,-1
 382 317 l 2,32,33
 451 317 451 317 482 276 c 0,34,35
 505 246 505 246 505 203 c 0,36,37
 505 190 505 190 503 176 c 2,38,-1
 494 114 l 2,39,40
 482 36 482 36 433 12 c 0,41,42
 394 -8 394 -8 330.5 -8 c 128,-1,43
 267 -8 267 -8 174.5 -1 c 128,-1,44
 82 6 82 6 59 17 c 1,45,-1
 71 93 l 1,46,-1
 330 93 l 2,0,1
EndSplineSet
Substitution2: "'smcp' Lowercase to Small Capitals lookup 1 subtable" s.smcp
EndChar

StartChar: t
Encoding: 116 116 87
Width: 376
GlyphClass: 2
Flags: W
LayerCount: 2
Fore
SplineSet
253 0 m 2,0,1
 129 0 129 0 129 132 c 0,2,3
 129 158 129 158 134 189 c 2,4,-1
 173 437 l 1,5,-1
 82 437 l 1,6,-1
 93 507 l 1,7,-1
 188 532 l 1,8,-1
 233 680 l 1,9,-1
 327 680 l 1,10,-1
 304 532 l 1,11,-1
 436 532 l 1,12,-1
 421 437 l 1,13,-1
 289 437 l 1,14,-1
 252 203 l 2,15,16
 241 130 241 130 256 111 c 0,17,18
 265 101 265 101 286 95 c 0,19,20
 348 76 348 76 351 76 c 1,21,-1
 339 0 l 1,22,-1
 253 0 l 2,0,1
EndSplineSet
AlternateSubs2: "'salt' Stylistic Alternatives in Latin lookup 16 subtable" t.salt
Substitution2: "'smcp' Lowercase to Small Capitals lookup 1 subtable" t.smcp
EndChar

StartChar: u
Encoding: 117 117 88
Width: 546
GlyphClass: 2
Flags: W
LayerCount: 2
Fore
SplineSet
185 170 m 2,0,1
 183 156 183 156 183 137.5 c 128,-1,2
 183 119 183 119 196 104.5 c 128,-1,3
 209 90 209 90 248.5 90 c 128,-1,4
 288 90 288 90 321 101 c 128,-1,5
 354 112 354 112 404 140 c 1,6,-1
 465 531 l 1,7,-1
 581 531 l 1,8,-1
 497 0 l 1,9,-1
 406 0 l 1,10,-1
 391 58 l 1,11,12
 353 35 353 35 332 23.5 c 128,-1,13
 311 12 311 12 275 1.5 c 128,-1,14
 239 -9 239 -9 201 -9 c 0,15,16
 118 -9 118 -9 88 40 c 0,17,18
 66 75 66 75 66 126 c 0,19,20
 66 147 66 147 70 172 c 2,21,-1
 126 531 l 1,22,-1
 242 531 l 1,23,-1
 185 170 l 2,0,1
EndSplineSet
AlternateSubs2: "'salt' Stylistic Alternatives in Latin lookup 16 subtable" u.salt
Substitution2: "'smcp' Lowercase to Small Capitals lookup 1 subtable" u.smcp
EndChar

StartChar: v
Encoding: 118 118 89
Width: 527
GlyphClass: 2
Flags: W
LayerCount: 2
Fore
SplineSet
570 493 m 0,0,1
 570 448 570 448 546 399 c 1,2,-1
 340 0 l 1,3,-1
 197 0 l 1,4,-1
 87 531 l 1,5,-1
 209 531 l 1,6,-1
 284 132 l 1,7,-1
 432 431 l 2,8,9
 456 481 456 481 462 532 c 1,10,-1
 566 532 l 1,11,12
 570 513 570 513 570 493 c 0,0,1
EndSplineSet
Substitution2: "'smcp' Lowercase to Small Capitals lookup 1 subtable" v.smcp
EndChar

StartChar: w
Encoding: 119 119 90
Width: 817
GlyphClass: 2
Flags: W
LayerCount: 2
Fore
SplineSet
559 530 m 1,0,1
 564 510 564 510 564 482 c 128,-1,2
 564 454 564 454 549 418 c 2,3,-1
 528 371 l 1,4,-1
 573 139 l 1,5,-1
 726 431 l 1,6,7
 750 481 750 481 756 532 c 1,8,-1
 857 532 l 1,9,10
 862 511 862 511 862 490 c 0,11,12
 862 444 862 444 837 399 c 2,13,-1
 619 0 l 1,14,-1
 494 0 l 1,15,-1
 448 232 l 1,16,-1
 332 0 l 1,17,-1
 197 0 l 1,18,-1
 87 531 l 1,19,-1
 208 531 l 1,20,-1
 280 136 l 1,21,-1
 429 429 l 1,22,23
 453 479 453 479 459 530 c 1,24,-1
 559 530 l 1,0,1
EndSplineSet
Substitution2: "'smcp' Lowercase to Small Capitals lookup 1 subtable" w.smcp
EndChar

StartChar: x
Encoding: 120 120 91
Width: 555
GlyphClass: 2
Flags: W
LayerCount: 2
Fore
SplineSet
20 0 m 1,0,-1
 250 272 l 1,1,-1
 104 531 l 1,2,-1
 241 531 l 1,3,-1
 331 356 l 1,4,-1
 476 531 l 1,5,-1
 619 531 l 1,6,-1
 389 253 l 1,7,-1
 530 0 l 1,8,-1
 396 0 l 1,9,-1
 307 170 l 1,10,-1
 167 0 l 1,11,-1
 20 0 l 1,0,-1
EndSplineSet
AlternateSubs2: "'salt' Stylistic Alternatives in Latin lookup 16 subtable" x.salt
Substitution2: "'smcp' Lowercase to Small Capitals lookup 1 subtable" x.smcp
EndChar

StartChar: y
Encoding: 121 121 92
Width: 558
GlyphClass: 2
Flags: W
LayerCount: 2
Fore
SplineSet
600 492 m 0,0,1
 600 447 600 447 577 397 c 2,2,-1
 388 1 l 1,3,4
 319 -146 319 -146 239 -211 c 0,5,6
 169 -267 169 -267 94 -281 c 1,7,-1
 94 -199 l 1,8,9
 153 -165 153 -165 192 -115.5 c 128,-1,10
 231 -66 231 -66 265 0 c 1,11,12
 216 0 216 0 180.5 29.5 c 128,-1,13
 145 59 145 59 137 126 c 2,14,-1
 88 531 l 1,15,-1
 208 531 l 1,16,-1
 253 144 l 2,17,18
 258 105 258 105 306 105 c 0,19,20
 309 105 309 105 310 105 c 2,21,-1
 465 432 l 2,22,23
 483 471 483 471 491 533 c 1,24,-1
 595 533 l 1,25,26
 600 513 600 513 600 492 c 0,0,1
EndSplineSet
Substitution2: "'smcp' Lowercase to Small Capitals lookup 1 subtable" y.smcp
EndChar

StartChar: z
Encoding: 122 122 93
Width: 467
GlyphClass: 2
Flags: W
LayerCount: 2
Fore
SplineSet
40 1 m 1,0,-1
 55 102 l 1,1,-1
 360 429 l 1,2,-1
 95 429 l 1,3,-1
 109 531 l 1,4,-1
 526 531 l 1,5,-1
 512 429 l 1,6,-1
 215 103 l 1,7,-1
 458 103 l 1,8,-1
 442 1 l 1,9,-1
 40 1 l 1,0,-1
EndSplineSet
Substitution2: "'smcp' Lowercase to Small Capitals lookup 1 subtable" z.smcp
EndChar

StartChar: braceleft
Encoding: 123 123 94
Width: 320
GlyphClass: 2
Flags: W
LayerCount: 2
Fore
SplineSet
418 719 m 0,0,1
 373 719 373 719 347 694.5 c 128,-1,2
 321 670 321 670 311 607 c 2,3,-1
 279 406 l 2,4,5
 266 327 266 327 172 314 c 1,6,7
 212 307 212 307 231.5 285 c 128,-1,8
 251 263 251 263 251 237 c 0,9,10
 251 230 251 230 249 223 c 2,11,-1
 212 -8 l 2,12,13
 208 -34 208 -34 208 -61 c 0,14,15
 208 -133 208 -133 279 -133 c 0,16,17
 283 -133 283 -133 286 -132 c 1,18,-1
 270 -231 l 1,19,20
 214 -231 214 -231 174.5 -213.5 c 128,-1,21
 135 -196 135 -196 117 -168 c 0,22,23
 89 -123 89 -123 89 -67 c 0,24,25
 89 -45 89 -45 94 -22 c 1,26,-1
 132 214 l 2,27,28
 133 219 133 219 133 223 c 0,29,30
 133 245 133 245 114.5 259.5 c 128,-1,31
 96 274 96 274 69 274 c 0,32,33
 66 274 66 274 62 273 c 1,34,-1
 77 365 l 2,35,36
 78 365 78 365 87 365.5 c 128,-1,37
 96 366 96 366 98.5 366 c 128,-1,38
 101 366 101 366 109 367 c 128,-1,39
 117 368 117 368 120 368.5 c 128,-1,40
 123 369 123 369 130 371 c 128,-1,41
 137 373 137 373 140 375.5 c 128,-1,42
 143 378 143 378 148 381.5 c 128,-1,43
 153 385 153 385 156 389 c 0,44,45
 162 400 162 400 164 411 c 2,46,-1
 201 645 l 2,47,48
 215 734 215 734 273 777.5 c 128,-1,49
 331 821 331 821 437 821 c 1,50,-1
 420 719 l 2,51,52
 419 719 419 719 418 719 c 0,0,1
EndSplineSet
EndChar

StartChar: bar
Encoding: 124 124 95
Width: 246
GlyphClass: 2
Flags: W
LayerCount: 2
Fore
SplineSet
61 -72 m 1,0,-1
 194 770 l 1,1,-1
 296 770 l 1,2,-1
 163 -72 l 1,3,-1
 61 -72 l 1,0,-1
EndSplineSet
EndChar

StartChar: braceright
Encoding: 125 125 96
Width: 317
GlyphClass: 2
Flags: W
LayerCount: 2
Fore
SplineSet
2 -133 m 0,0,1
 47 -133 47 -133 73 -108 c 128,-1,2
 99 -83 99 -83 108 -25 c 2,3,-1
 144 198 l 2,4,5
 156 271 156 271 249 288 c 1,6,7
 194 295 194 295 177 335 c 0,8,9
 172 348 172 348 172 360 c 128,-1,10
 172 372 172 372 173 381 c 2,11,-1
 206 589 l 2,12,13
 211 620 211 620 211 648 c 0,14,15
 211 719 211 719 141 719 c 0,16,17
 138 719 138 719 134 719 c 1,18,-1
 151 821 l 1,19,20
 205 821 205 821 243.5 803 c 128,-1,21
 282 785 282 785 300 755 c 0,22,23
 327 708 327 708 327 652 c 0,24,25
 327 630 327 630 322 607 c 1,26,-1
 290 388 l 2,27,28
 289 384 289 384 289 380 c 0,29,30
 289 357 289 357 309 343 c 128,-1,31
 329 329 329 329 358 329 c 0,32,33
 359 329 359 329 361 329 c 1,34,-1
 346 237 l 1,35,36
 300 238 300 238 287 230 c 0,37,38
 263 216 263 216 259 191 c 2,39,-1
 219 -53 l 2,40,41
 203 -146 203 -146 147.5 -188.5 c 128,-1,42
 92 -231 92 -231 -16 -231 c 1,43,-1
 0 -133 l 2,44,45
 1 -133 1 -133 2 -133 c 0,0,1
EndSplineSet
EndChar

StartChar: asciitilde
Encoding: 126 126 97
Width: 425
GlyphClass: 2
Flags: W
LayerCount: 2
Fore
SplineSet
244 649 m 128,-1,1
 254 651 254 651 270.5 651 c 128,-1,2
 287 651 287 651 316 633.5 c 128,-1,3
 345 616 345 616 364 616 c 0,4,5
 365 616 365 616 374 616 c 128,-1,6
 383 616 383 616 403 623 c 0,7,8
 427 632 427 632 464 656 c 1,9,-1
 479 603 l 1,10,11
 477 601 477 601 469 593.5 c 128,-1,12
 461 586 461 586 454 579.5 c 128,-1,13
 447 573 447 573 433 562.5 c 128,-1,14
 419 552 419 552 408 546 c 0,15,16
 380 531 380 531 355.5 531 c 128,-1,17
 331 531 331 531 298.5 548.5 c 128,-1,18
 266 566 266 566 250 566 c 128,-1,19
 234 566 234 566 220 562.5 c 128,-1,20
 206 559 206 559 198 555.5 c 128,-1,21
 190 552 190 552 173.5 543.5 c 128,-1,22
 157 535 157 535 149 531 c 1,23,-1
 134 581 l 1,24,25
 136 583 136 583 148 593.5 c 128,-1,26
 160 604 160 604 163.5 606.5 c 128,-1,27
 167 609 167 609 178 617.5 c 128,-1,28
 189 626 189 626 194 629 c 128,-1,29
 199 632 199 632 209.5 637.5 c 128,-1,30
 220 643 220 643 227 645 c 128,-1,0
 234 647 234 647 244 649 c 128,-1,1
EndSplineSet
EndChar

StartChar: exclamdown
Encoding: 161 161 98
Width: 274
GlyphClass: 2
Flags: W
LayerCount: 2
Fore
SplineSet
31 -269 m 1,0,-1
 129 263 l 1,1,-1
 229 263 l 1,2,-1
 159 -269 l 1,3,-1
 31 -269 l 1,0,-1
134 358 m 0,4,5
 134 360 134 360 134 363 c 2,6,-1
 146 439 l 2,7,8
 149 460 149 460 174 462 c 1,9,-1
 245 462 l 1,10,11
 255 461 255 461 261 453.5 c 128,-1,12
 267 446 267 446 265 436 c 2,13,-1
 254 363 l 1,14,15
 249 341 249 341 229 338 c 1,16,-1
 152 338 l 1,17,18
 134 339 134 339 134 358 c 0,4,5
EndSplineSet
Substitution2: "'case' Case-Sensitive Forms lookup 18 subtable" exclamdown.alt
Substitution2: "'smcp' Lowercase to Small Capitals lookup 1 subtable" exclamdown.smcp
EndChar

StartChar: cent
Encoding: 162 162 99
Width: 486
GlyphClass: 2
Flags: W
LayerCount: 2
Fore
SplineSet
188 516 m 128,-1,1
 216 531 216 531 238 534.5 c 128,-1,2
 260 538 260 538 276.5 538 c 128,-1,3
 293 538 293 538 302 537 c 1,4,-1
 318 634 l 1,5,-1
 395 634 l 1,6,-1
 378 533 l 1,7,8
 464 524 464 524 526 506 c 1,9,-1
 514 432 l 1,10,11
 404 439 404 439 348 439 c 128,-1,12
 292 439 292 439 280 437 c 128,-1,13
 268 435 268 435 253 426 c 128,-1,14
 238 417 238 417 228 399 c 1,15,16
 206 354 206 354 189 263 c 1,17,18
 181 202 181 202 181 172 c 128,-1,19
 181 142 181 142 191 124 c 128,-1,20
 201 106 201 106 217 99 c 128,-1,21
 233 92 233 92 266 92 c 0,22,23
 341 92 341 92 437 100 c 1,24,-1
 469 102 l 1,25,-1
 457 26 l 1,26,27
 385 -2 385 -2 291 -5 c 1,28,-1
 278 -96 l 1,29,-1
 201 -96 l 1,30,-1
 215 -6 l 1,31,32
 130 -5 130 -5 90 63 c 0,33,34
 65 106 65 106 65 163.5 c 128,-1,35
 65 221 65 221 75.5 284 c 128,-1,36
 86 347 86 347 104 396.5 c 128,-1,37
 122 446 122 446 141 473.5 c 128,-1,0
 160 501 160 501 188 516 c 128,-1,1
EndSplineSet
EndChar

StartChar: sterling
Encoding: 163 163 100
Width: 587
GlyphClass: 2
Flags: W
LayerCount: 2
Fore
SplineSet
624 720 m 2,0,-1
 658 716 l 1,1,-1
 644 624 l 1,2,-1
 458 624 l 2,3,4
 377 624 377 624 347.5 601 c 128,-1,5
 318 578 318 578 306 499 c 2,6,-1
 291 402 l 1,7,-1
 527 386 l 1,8,-1
 517 320 l 1,9,-1
 277 320 l 1,10,-1
 244 109 l 1,11,-1
 562 109 l 1,12,-1
 544 0 l 1,13,-1
 42 0 l 1,14,-1
 57 91 l 1,15,-1
 128 109 l 1,16,-1
 161 320 l 1,17,-1
 93 320 l 1,18,-1
 103 382 l 1,19,-1
 175 403 l 1,20,-1
 190 502 l 1,21,22
 212 640 212 640 272 686 c 0,23,24
 294 703 294 703 312.5 712 c 128,-1,25
 331 721 331 721 361 725 c 0,26,27
 404 732 404 732 463.5 732 c 128,-1,28
 523 732 523 732 624 720 c 2,0,-1
EndSplineSet
Substitution2: "'smcp' Lowercase to Small Capitals lookup 1 subtable" sterling.smcp
EndChar

StartChar: currency
Encoding: 164 164 101
Width: 454
GlyphClass: 2
Flags: W
LayerCount: 2
Fore
SplineSet
437 332 m 0,0,1
 437 265 437 265 394 213 c 1,2,-1
 437 164 l 1,3,-1
 384 118 l 1,4,-1
 341 169 l 1,5,6
 304 146 304 146 253.5 146 c 128,-1,7
 203 146 203 146 166 174 c 1,8,-1
 114 128 l 1,9,-1
 73 179 l 1,10,-1
 127 225 l 1,11,12
 111 259 111 259 111 292 c 0,13,14
 111 352 111 352 147 397 c 1,15,-1
 107 443 l 1,16,-1
 159 487 l 1,17,-1
 197 443 l 1,18,19
 242 472 242 472 295.5 472 c 128,-1,20
 349 472 349 472 385 443 c 1,21,-1
 440 490 l 1,22,-1
 481 441 l 1,23,-1
 424 392 l 1,24,25
 437 364 437 364 437 332 c 0,0,1
184 296 m 0,26,27
 184 268 184 268 203 244 c 0,28,29
 223 219 223 219 262.5 219 c 128,-1,30
 302 219 302 219 329 244 c 128,-1,31
 356 269 356 269 364 309 c 0,32,33
 366 318 366 318 366 335.5 c 128,-1,34
 366 353 366 353 347 376.5 c 128,-1,35
 328 400 328 400 289 400 c 0,36,37
 247 400 247 400 219 375 c 0,38,39
 184 343 184 343 184 296 c 0,26,27
EndSplineSet
EndChar

StartChar: yen
Encoding: 165 165 102
Width: 622
GlyphClass: 2
Flags: W
LayerCount: 2
Fore
SplineSet
114 144 m 1,0,-1
 126 217 l 1,1,-1
 273 217 l 1,2,-1
 279 258 l 1,3,-1
 132 258 l 1,4,-1
 145 332 l 1,5,-1
 266 332 l 1,6,-1
 133 732 l 1,7,-1
 257 732 l 1,8,-1
 356 402 l 1,9,-1
 582 732 l 1,10,-1
 721 732 l 1,11,-1
 430 332 l 1,12,-1
 572 332 l 1,13,-1
 559 258 l 1,14,-1
 395 258 l 1,15,-1
 389 217 l 1,16,-1
 553 217 l 1,17,-1
 541 144 l 1,18,-1
 379 144 l 1,19,-1
 359 0 l 1,20,-1
 243 0 l 1,21,-1
 263 144 l 1,22,-1
 114 144 l 1,0,-1
EndSplineSet
Substitution2: "'smcp' Lowercase to Small Capitals lookup 1 subtable" yen.smcp
EndChar

StartChar: brokenbar
Encoding: 166 166 103
Width: 247
GlyphClass: 2
Flags: W
LayerCount: 2
Fore
SplineSet
61 -72 m 1,0,-1
 113 256 l 1,1,-1
 215 256 l 1,2,-1
 163 -72 l 1,3,-1
 61 -72 l 1,0,-1
140 429 m 1,4,-1
 194 770 l 1,5,-1
 296 770 l 1,6,-1
 242 429 l 1,7,-1
 140 429 l 1,4,-1
EndSplineSet
EndChar

StartChar: section
Encoding: 167 167 104
Width: 544
GlyphClass: 2
Flags: W
LayerCount: 2
Fore
SplineSet
255 585 m 0,0,1
 255 554 255 554 296 554 c 2,2,-1
 439 554 l 2,3,4
 509 554 509 554 538.5 523 c 128,-1,5
 568 492 568 492 568 449 c 0,6,7
 568 437 568 437 566 424 c 2,8,-1
 558 380 l 1,9,10
 546 295 546 295 490 282 c 1,11,12
 530 271 530 271 530 215 c 0,13,14
 530 201 530 201 527 183 c 2,15,-1
 518 120 l 1,16,17
 505 40 505 40 464 15 c 0,18,19
 428 -8 428 -8 365.5 -8 c 128,-1,20
 303 -8 303 -8 209.5 -1.5 c 128,-1,21
 116 5 116 5 85 11 c 1,22,-1
 98 94 l 1,23,-1
 346 94 l 2,24,25
 371 94 371 94 385 101 c 128,-1,26
 399 108 399 108 403 130 c 1,27,-1
 410 182 l 1,28,29
 415 211 415 211 396 217 c 0,30,31
 387 219 387 219 369 219 c 2,32,-1
 229 219 l 2,33,34
 162 219 162 219 130.5 248.5 c 128,-1,35
 99 278 99 278 99 322 c 0,36,37
 99 335 99 335 101 349 c 2,38,-1
 108 394 l 2,39,40
 114 434 114 434 128.5 458.5 c 128,-1,41
 143 483 143 483 180 494 c 1,42,43
 138 519 138 519 138 571 c 0,44,45
 138 583 138 583 140 597 c 2,46,-1
 148 653 l 2,47,48
 167 784 167 784 307 784 c 0,49,50
 358 784 358 784 453 777.5 c 128,-1,51
 548 771 548 771 581 765 c 1,52,-1
 569 682 l 1,53,-1
 316 682 l 2,54,55
 293 682 293 682 280 672.5 c 128,-1,56
 267 663 267 663 263 641 c 2,57,-1
 256 594 l 2,58,59
 255 589 255 589 255 585 c 0,0,1
448 431 m 0,60,61
 448 456 448 456 403 456 c 2,62,-1
 283 456 l 2,63,64
 253 456 253 456 242 446.5 c 128,-1,65
 231 437 231 437 227 407 c 1,66,-1
 219 361 l 2,67,68
 218 353 218 353 218 342 c 0,69,70
 218 318 218 318 261 318 c 2,71,-1
 381 318 l 2,72,73
 424 318 424 318 433 338 c 0,74,75
 436 346 436 346 439 362 c 2,76,-1
 446 409 l 2,77,78
 448 421 448 421 448 431 c 0,60,61
EndSplineSet
EndChar

StartChar: dieresis
Encoding: 168 168 105
Width: 450
GlyphClass: 2
Flags: W
LayerCount: 2
Fore
SplineSet
199 637 m 128,-1,1
 222 637 222 637 234.5 622.5 c 128,-1,2
 247 608 247 608 247 597.5 c 128,-1,3
 247 587 247 587 245.5 579 c 128,-1,4
 244 571 244 571 238 560.5 c 128,-1,5
 232 550 232 550 223 542 c 0,6,7
 205 526 205 526 181.5 526 c 128,-1,8
 158 526 158 526 146 540.5 c 128,-1,9
 134 555 134 555 134 566 c 0,10,11
 134 601 134 601 155 619 c 128,-1,0
 176 637 176 637 199 637 c 128,-1,1
454 637 m 128,-1,13
 477 637 477 637 489.5 622.5 c 128,-1,14
 502 608 502 608 502 597.5 c 128,-1,15
 502 587 502 587 500.5 579 c 128,-1,16
 499 571 499 571 493 560.5 c 128,-1,17
 487 550 487 550 478 542 c 0,18,19
 460 526 460 526 436.5 526 c 128,-1,20
 413 526 413 526 401 540.5 c 128,-1,21
 389 555 389 555 389 566 c 0,22,23
 389 601 389 601 410 619 c 128,-1,12
 431 637 431 637 454 637 c 128,-1,13
EndSplineSet
Substitution2: "'smcp' Lowercase to Small Capitals lookup 1 subtable" dieresis.smcp
EndChar

StartChar: copyright
Encoding: 169 169 106
Width: 800
GlyphClass: 2
Flags: W
LayerCount: 2
Fore
SplineSet
404 732 m 2,0,-1
 643 732 l 2,1,2
 758 732 758 732 800 633 c 0,3,4
 825 576 825 576 825 487 c 0,5,6
 825 428 825 428 814 358 c 0,7,8
 787 190 787 190 716.5 95 c 128,-1,9
 646 0 646 0 535 0 c 2,10,-1
 296 0 l 2,11,12
 203 0 203 0 155 65 c 0,13,14
 109 128 109 128 100 213 c 1,15,16
 95 250 95 250 95 270 c 0,17,18
 95 416 95 416 147 549 c 0,19,20
 178 628 178 628 241 680 c 0,21,22
 303 732 303 732 404 732 c 2,0,-1
745 504 m 0,23,24
 745 654 745 654 638 654 c 2,25,-1
 392 654 l 2,26,27
 273 654 273 654 219 510 c 0,28,29
 197 452 197 452 186.5 388 c 128,-1,30
 176 324 176 324 176 297.5 c 128,-1,31
 176 271 176 271 177.5 239.5 c 128,-1,32
 179 208 179 208 191.5 167.5 c 128,-1,33
 204 127 204 127 232.5 102.5 c 128,-1,34
 261 78 261 78 302 78 c 2,35,-1
 542 78 l 2,36,37
 607 78 607 78 658 150 c 0,38,39
 716 232 716 232 740 422 c 0,40,41
 745 466 745 466 745 504 c 0,23,24
400 573.5 m 128,-1,43
 426 583 426 583 453.5 583 c 128,-1,44
 481 583 481 583 511 580 c 0,45,46
 583 573 583 573 637 559 c 1,47,-1
 627 493 l 1,48,49
 545 505 545 505 462 505 c 0,50,51
 409 505 409 505 383 444 c 1,52,53
 371 413 371 413 364.5 372 c 128,-1,54
 358 331 358 331 358 305 c 128,-1,55
 358 279 358 279 364 260 c 0,56,57
 376 225 376 225 420 225 c 0,58,59
 494 225 494 225 593 241 c 1,60,-1
 583 175 l 1,61,62
 501 147 501 147 394 147 c 0,63,64
 329 147 329 147 296 202 c 0,65,66
 275 237 275 237 275 283.5 c 128,-1,67
 275 330 275 330 283.5 381.5 c 128,-1,68
 292 433 292 433 309 476 c 128,-1,69
 326 519 326 519 350 541.5 c 128,-1,42
 374 564 374 564 400 573.5 c 128,-1,43
EndSplineSet
EndChar

StartChar: ordfeminine
Encoding: 170 170 107
Width: 366
GlyphClass: 3
Flags: W
LayerCount: 2
Fore
SplineSet
67 264 m 1,0,-1
 77 330 l 1,1,-1
 392 330 l 1,2,-1
 382 264 l 1,3,-1
 67 264 l 1,0,-1
230.5 728 m 128,-1,5
 246 731 246 731 260 732 c 128,-1,6
 274 733 274 733 295.5 733 c 128,-1,7
 317 733 317 733 367.5 722 c 128,-1,8
 418 711 418 711 441 689 c 1,9,-1
 396 377 l 1,10,-1
 338 377 l 1,11,-1
 324 428 l 1,12,13
 299 392 299 392 240 377 c 0,14,15
 222 373 222 373 201.5 373 c 128,-1,16
 181 373 181 373 160 383 c 128,-1,17
 139 393 139 393 122 417 c 0,18,19
 98 449 98 449 98 507 c 0,20,21
 98 584 98 584 125 641 c 0,22,23
 139 671 139 671 155 688 c 128,-1,24
 171 705 171 705 193 715 c 128,-1,4
 215 725 215 725 230.5 728 c 128,-1,5
352 650 m 1,25,26
 320 660 320 660 296 660 c 128,-1,27
 272 660 272 660 260 657 c 128,-1,28
 248 654 248 654 239 649.5 c 128,-1,29
 230 645 230 645 218 634 c 0,30,31
 195 613 195 613 186 553 c 0,32,33
 183 533 183 533 183 517 c 0,34,35
 183 454 183 454 230 454 c 0,36,37
 281 454 281 454 331 499 c 1,38,-1
 352 650 l 1,25,26
EndSplineSet
Substitution2: "'smcp' Lowercase to Small Capitals lookup 1 subtable" ordfeminine.smcp
Ligature2: "'ordn' Ordinals lookup 0 subtable" a
EndChar

StartChar: guillemotleft
Encoding: 171 171 108
Width: 570
GlyphClass: 2
Flags: W
LayerCount: 2
Fore
SplineSet
98 354 m 1,0,-1
 336 557 l 1,1,-1
 395 489 l 1,2,-1
 228 346 l 1,3,-1
 350 204 l 1,4,-1
 276 146 l 1,5,-1
 98 354 l 1,0,-1
304 354 m 1,6,-1
 542 557 l 1,7,-1
 601 489 l 1,8,-1
 434 346 l 1,9,-1
 556 204 l 1,10,-1
 482 146 l 1,11,-1
 304 354 l 1,6,-1
EndSplineSet
EndChar

StartChar: logicalnot
Encoding: 172 172 109
Width: 505
GlyphClass: 2
Flags: W
LayerCount: 2
Fore
SplineSet
521 344 m 1,0,-1
 491 159 l 1,1,-1
 393 159 l 1,2,-1
 406 246 l 1,3,-1
 78 246 l 1,4,-1
 94 344 l 1,5,-1
 521 344 l 1,0,-1
EndSplineSet
EndChar

StartChar: uni00AD
Encoding: 173 173 110
Width: 354
GlyphClass: 2
Flags: W
LayerCount: 2
Fore
SplineSet
58 239 m 1,0,-1
 74 341 l 1,1,-1
 388 341 l 1,2,-1
 372 239 l 1,3,-1
 58 239 l 1,0,-1
EndSplineSet
Substitution2: "'case' Case-Sensitive Forms lookup 18 subtable" uni00AD.alt
Substitution2: "'c2sc' Capitals to Small Capitals in Latin lookup 2 subtable" uni00AD.smcp
Substitution2: "'smcp' Lowercase to Small Capitals lookup 1 subtable" uni00AD.smcp
EndChar

StartChar: registered
Encoding: 174 174 111
Width: 800
GlyphClass: 2
Flags: W
LayerCount: 2
Fore
SplineSet
404 732 m 2,0,-1
 643 732 l 2,1,2
 758 732 758 732 800 633 c 0,3,4
 825 576 825 576 825 487 c 0,5,6
 825 428 825 428 814 358 c 0,7,8
 787 190 787 190 716.5 95 c 128,-1,9
 646 0 646 0 535 0 c 2,10,-1
 296 0 l 2,11,12
 203 0 203 0 155 65 c 0,13,14
 109 128 109 128 100 213 c 1,15,16
 95 250 95 250 95 270 c 0,17,18
 95 416 95 416 147 549 c 0,19,20
 178 628 178 628 241 680 c 0,21,22
 303 732 303 732 404 732 c 2,0,-1
745 504 m 0,23,24
 745 654 745 654 638 654 c 2,25,-1
 392 654 l 2,26,27
 273 654 273 654 219 510 c 0,28,29
 197 452 197 452 186.5 388 c 128,-1,30
 176 324 176 324 176 297.5 c 128,-1,31
 176 271 176 271 177.5 239.5 c 128,-1,32
 179 208 179 208 191.5 167.5 c 128,-1,33
 204 127 204 127 232.5 102.5 c 128,-1,34
 261 78 261 78 302 78 c 2,35,-1
 542 78 l 2,36,37
 607 78 607 78 658 150 c 0,38,39
 716 232 716 232 740 422 c 0,40,41
 745 466 745 466 745 504 c 0,23,24
522 580 m 2,42,43
 571 580 571 580 605 554 c 0,44,45
 637 530 637 530 637 473 c 0,46,47
 637 460 637 460 635 445 c 0,48,49
 624 351 624 351 563 327 c 0,50,51
 555 324 555 324 530 318 c 1,52,-1
 592 153 l 1,53,-1
 503 153 l 1,54,-1
 443 316 l 1,55,-1
 383 328 l 1,56,-1
 355 153 l 1,57,-1
 274 153 l 1,58,-1
 342 580 l 1,59,-1
 522 580 l 2,42,43
483 386 m 2,60,61
 522 386 522 386 535 397.5 c 128,-1,62
 548 409 548 409 551.5 433.5 c 128,-1,63
 555 458 555 458 555 472 c 0,64,65
 555 502 555 502 502 502 c 2,66,-1
 411 502 l 1,67,-1
 392 386 l 1,68,-1
 483 386 l 2,60,61
EndSplineSet
EndChar

StartChar: macron
Encoding: 175 175 112
Width: 376
GlyphClass: 2
Flags: W
LayerCount: 2
Fore
SplineSet
126 531 m 1,0,-1
 138 604 l 1,1,-1
 430 604 l 1,2,-1
 418 531 l 1,3,-1
 126 531 l 1,0,-1
EndSplineSet
Substitution2: "'smcp' Lowercase to Small Capitals lookup 1 subtable" macron.smcp
EndChar

StartChar: degree
Encoding: 176 176 113
Width: 284
GlyphClass: 2
Flags: W
LayerCount: 2
Fore
SplineSet
245 734 m 128,-1,1
 287 734 287 734 315 705 c 128,-1,2
 343 676 343 676 343 636 c 0,3,4
 343 591 343 591 312.5 561.5 c 128,-1,5
 282 532 282 532 239.5 532 c 128,-1,6
 197 532 197 532 168.5 560 c 128,-1,7
 140 588 140 588 140 630.5 c 128,-1,8
 140 673 140 673 171.5 703.5 c 128,-1,0
 203 734 203 734 245 734 c 128,-1,1
219.5 673.5 m 128,-1,10
 208 667 208 667 201 655.5 c 128,-1,11
 194 644 194 644 194 628 c 128,-1,12
 194 612 194 612 207.5 598.5 c 128,-1,13
 221 585 221 585 237.5 585 c 128,-1,14
 254 585 254 585 265 591 c 0,15,16
 290 605 290 605 290 633 c 0,17,18
 290 660 290 660 267 674 c 0,19,20
 257 680 257 680 244 680 c 128,-1,9
 231 680 231 680 219.5 673.5 c 128,-1,10
EndSplineSet
Substitution2: "'smcp' Lowercase to Small Capitals lookup 1 subtable" degree.smcp
EndChar

StartChar: plusminus
Encoding: 177 177 114
Width: 509
GlyphClass: 2
Flags: W
LayerCount: 2
Fore
SplineSet
59 76 m 1,0,-1
 75 178 l 1,1,-1
 491 178 l 1,2,-1
 475 76 l 1,3,-1
 59 76 l 1,0,-1
109 384 m 1,4,-1
 124 486 l 1,5,-1
 280 486 l 1,6,-1
 305 642 l 1,7,-1
 407 642 l 1,8,-1
 382 486 l 1,9,-1
 540 486 l 1,10,-1
 525 384 l 1,11,-1
 367 384 l 1,12,-1
 341 226 l 1,13,-1
 239 226 l 1,14,-1
 265 384 l 1,15,-1
 109 384 l 1,4,-1
EndSplineSet
EndChar

StartChar: twosuperior
Encoding: 178 178 115
Width: 393
GlyphClass: 2
Flags: W
LayerCount: 2
Fore
SplineSet
349 661.5 m 128,-1,1
 357 677 357 677 359 689 c 128,-1,2
 361 701 361 701 361 716 c 128,-1,3
 361 731 361 731 348.5 743.5 c 128,-1,4
 336 756 336 756 294 756 c 2,5,-1
 130 756 l 2,6,7
 129 756 129 756 138 808 c 2,8,-1
 141 824 l 1,9,10
 256 842 256 842 334 842 c 0,11,12
 380 842 380 842 410 817 c 0,13,14
 456 778 456 778 456 717 c 0,15,16
 456 677 456 677 437.5 640 c 128,-1,17
 419 603 419 603 400.5 579.5 c 128,-1,18
 382 556 382 556 357.5 532 c 128,-1,19
 333 508 333 508 314 493 c 128,-1,20
 295 478 295 478 274 462.5 c 128,-1,21
 253 447 253 447 247 442 c 1,22,-1
 413 442 l 1,23,-1
 399 356 l 1,24,-1
 70 356 l 1,25,-1
 83 437 l 1,26,27
 85 439 85 439 109.5 455 c 128,-1,28
 134 471 134 471 145 478.5 c 128,-1,29
 156 486 156 486 182 504 c 128,-1,30
 208 522 208 522 223 533.5 c 128,-1,31
 238 545 238 545 261 563.5 c 128,-1,32
 284 582 284 582 298 597 c 128,-1,33
 312 612 312 612 326.5 629 c 128,-1,0
 341 646 341 646 349 661.5 c 128,-1,1
EndSplineSet
EndChar

StartChar: threesuperior
Encoding: 179 179 116
Width: 406
GlyphClass: 2
Flags: W
LayerCount: 2
Fore
SplineSet
266 351 m 2,0,-1
 228 351 l 2,1,2
 219 351 219 351 216 351 c 128,-1,3
 213 351 213 351 195 351.5 c 128,-1,4
 177 352 177 352 171 352.5 c 128,-1,5
 165 353 165 353 150.5 354 c 128,-1,6
 136 355 136 355 129 356.5 c 128,-1,7
 122 358 122 358 110 359 c 1,8,9
 92 363 92 363 71 370 c 1,10,-1
 83 437 l 1,11,-1
 249 437 l 2,12,13
 319 437 319 437 326 486 c 1,14,-1
 329 502 l 2,15,16
 330 509 330 509 330 521.5 c 128,-1,17
 330 534 330 534 316.5 544.5 c 128,-1,18
 303 555 303 555 272 556 c 2,19,-1
 142 560 l 1,20,-1
 154 633 l 1,21,-1
 285 639 l 2,22,23
 353 642 353 642 360 688 c 1,24,-1
 362 704 l 2,25,26
 363 711 363 711 363 722 c 128,-1,27
 363 733 363 733 351 742 c 128,-1,28
 339 751 339 751 303 751 c 2,29,-1
 128 751 l 1,30,-1
 138 817 l 1,31,32
 196 837 196 837 294 837 c 0,33,34
 319 837 319 837 348 837 c 0,35,36
 404 836 404 836 430 804 c 128,-1,37
 456 772 456 772 456 735 c 0,38,39
 456 724 456 724 454 713 c 2,40,-1
 449 681 l 2,41,42
 443 645 443 645 425.5 621 c 128,-1,43
 408 597 408 597 383 591 c 1,44,45
 421 573 421 573 421 517 c 0,46,47
 421 505 421 505 419 493 c 2,48,-1
 415 468 l 2,49,50
 406 410 406 410 371 380.5 c 128,-1,51
 336 351 336 351 269 351 c 0,52,53
 267 351 267 351 266 351 c 2,0,-1
EndSplineSet
EndChar

StartChar: acute
Encoding: 180 180 117
Width: 242
GlyphClass: 2
Flags: W
LayerCount: 2
Fore
SplineSet
101 531 m 1,0,-1
 219 668 l 1,1,-1
 332 668 l 1,2,-1
 184 531 l 1,3,-1
 101 531 l 1,0,-1
EndSplineSet
Substitution2: "'smcp' Lowercase to Small Capitals lookup 1 subtable" acute.smcp
EndChar

StartChar: uni00B5
Encoding: 181 181 118
Width: 590
GlyphClass: 2
Flags: W
LayerCount: 2
Fore
SplineSet
217 148 m 0,0,1
 217 90 217 90 276 90 c 0,2,3
 322 90 322 90 355 101 c 128,-1,4
 388 112 388 112 437 140 c 1,5,-1
 499 531 l 1,6,-1
 615 531 l 1,7,-1
 531 0 l 1,8,-1
 441 0 l 1,9,-1
 425 58 l 1,10,11
 421 57 421 57 399 45 c 128,-1,12
 377 33 377 33 371.5 30 c 128,-1,13
 366 27 366 27 347.5 18.5 c 128,-1,14
 329 10 329 10 319 7 c 0,15,16
 242 -15 242 -15 193 8 c 1,17,-1
 149 -270 l 1,18,-1
 33 -270 l 1,19,-1
 160 531 l 1,20,-1
 276 531 l 1,21,-1
 219 170 l 2,22,23
 217 158 217 158 217 148 c 0,0,1
EndSplineSet
EndChar

StartChar: paragraph
Encoding: 182 182 119
Width: 578
GlyphClass: 2
Flags: W
LayerCount: 2
Fore
SplineSet
305 732 m 2,0,-1
 677 732 l 1,1,-1
 663 639 l 1,2,-1
 604 639 l 1,3,-1
 503 0 l 1,4,-1
 411 0 l 1,5,-1
 513 641 l 1,6,-1
 436 641 l 1,7,-1
 292 -270 l 1,8,-1
 201 -270 l 1,9,-1
 302 372 l 2,10,11
 301 372 301 372 294.5 368.5 c 128,-1,12
 288 365 288 365 281 363 c 1,13,14
 263 355 263 355 233 355 c 128,-1,15
 203 355 203 355 175 369 c 0,16,17
 124 393 124 393 113 454 c 0,18,19
 110 468 110 468 110 481 c 128,-1,20
 110 494 110 494 112 507 c 2,21,-1
 126 600 l 1,22,23
 147 732 147 732 305 732 c 2,0,-1
205 507 m 2,24,25
 204 498 204 498 204 489 c 128,-1,26
 204 480 204 480 207 470 c 128,-1,27
 210 460 210 460 221 455 c 1,28,29
 237 446 237 446 261 446 c 2,30,-1
 313 446 l 1,31,-1
 345 642 l 1,32,-1
 294 642 l 2,33,34
 254 642 254 642 238 627 c 128,-1,35
 222 612 222 612 216 579 c 2,36,-1
 205 507 l 2,24,25
EndSplineSet
EndChar

StartChar: periodcentered
Encoding: 183 183 120
Width: 265
GlyphClass: 2
Flags: W
LayerCount: 2
Fore
SplineSet
166 448 m 2,0,-1
 240 448 l 2,1,2
 262 448 262 448 262 430 c 0,3,4
 262 427 262 427 261 423 c 2,5,-1
 249 345 l 2,6,7
 245 322 245 322 221 322 c 2,8,-1
 147 322 l 2,9,10
 136 322 136 322 130 328.5 c 128,-1,11
 124 335 124 335 126 345 c 2,12,-1
 138 423 l 2,13,14
 141 448 141 448 166 448 c 2,0,-1
EndSplineSet
Substitution2: "'smcp' Lowercase to Small Capitals lookup 1 subtable" periodcentered.smcp
EndChar

StartChar: cedilla
Encoding: 184 184 121
Width: 246
GlyphClass: 2
Flags: W
LayerCount: 2
Fore
SplineSet
69 -176 m 2,0,-1
 14 -176 l 1,1,-1
 23 -125 l 1,2,-1
 72 -110 l 1,3,4
 93 -101 93 -101 101.5 -85 c 128,-1,5
 110 -69 110 -69 115 -37 c 1,6,-1
 199 -37 l 1,7,8
 187 -115 187 -115 159 -145.5 c 128,-1,9
 131 -176 131 -176 69 -176 c 2,0,-1
EndSplineSet
EndChar

StartChar: onesuperior
Encoding: 185 185 122
Width: 278
GlyphClass: 2
Flags: W
LayerCount: 2
Fore
SplineSet
112 712 m 1,0,-1
 121 774 l 1,1,2
 155 774 155 774 196 797.5 c 128,-1,3
 237 821 237 821 250 837 c 1,4,-1
 340 837 l 1,5,-1
 263 356 l 1,6,-1
 172 356 l 1,7,-1
 234 738 l 1,8,9
 218 726 218 726 184 719 c 128,-1,10
 150 712 150 712 112 712 c 1,0,-1
EndSplineSet
EndChar

StartChar: ordmasculine
Encoding: 186 186 123
Width: 386
GlyphClass: 3
Flags: W
LayerCount: 2
Fore
SplineSet
79 266 m 1,0,-1
 89 331 l 1,1,-1
 406 331 l 1,2,-1
 396 266 l 1,3,-1
 79 266 l 1,0,-1
309 736 m 0,4,5
 366 736 366 736 400 718 c 0,6,7
 454 690 454 690 454 603 c 0,8,9
 454 576 454 576 449 543 c 0,10,11
 433 446 433 446 393 409 c 128,-1,12
 353 372 353 372 260 372 c 128,-1,13
 167 372 167 372 133 417 c 0,14,15
 110 447 110 447 110 502 c 0,16,17
 110 526 110 526 114 555 c 0,18,19
 131 660 131 660 172 698 c 256,20,21
 213 736 213 736 309 736 c 0,4,5
215 609.5 m 128,-1,23
 208 588 208 588 202.5 555 c 128,-1,24
 197 522 197 522 197 510.5 c 128,-1,25
 197 499 197 499 198 491.5 c 128,-1,26
 199 484 199 484 201 476.5 c 128,-1,27
 203 469 203 469 208.5 464.5 c 128,-1,28
 214 460 214 460 218.5 457 c 128,-1,29
 223 454 223 454 232 453 c 0,30,31
 246 450 246 450 268 450 c 128,-1,32
 290 450 290 450 301 452 c 128,-1,33
 312 454 312 454 325 463 c 1,34,35
 350 478 350 478 361 550 c 0,36,37
 366 583 366 583 366 602 c 128,-1,38
 366 621 366 621 364 632.5 c 128,-1,39
 362 644 362 644 351 649 c 1,40,41
 335 658 335 658 303.5 658 c 128,-1,42
 272 658 272 658 259.5 655.5 c 128,-1,43
 247 653 247 653 234.5 642 c 128,-1,22
 222 631 222 631 215 609.5 c 128,-1,23
EndSplineSet
Substitution2: "'smcp' Lowercase to Small Capitals lookup 1 subtable" ordmasculine.smcp
Ligature2: "'ordn' Ordinals lookup 0 subtable" o
EndChar

StartChar: guillemotright
Encoding: 187 187 124
Width: 567
GlyphClass: 2
Flags: W
LayerCount: 2
Fore
SplineSet
76 215 m 1,0,-1
 244 360 l 1,1,-1
 126 497 l 1,2,-1
 196 557 l 1,3,-1
 373 351 l 1,4,-1
 136 146 l 1,5,-1
 76 215 l 1,0,-1
284 215 m 1,6,-1
 452 360 l 1,7,-1
 334 497 l 1,8,-1
 405 557 l 1,9,-1
 581 351 l 1,10,-1
 345 146 l 1,11,-1
 284 215 l 1,6,-1
EndSplineSet
EndChar

StartChar: onequarter
Encoding: 188 188 125
Width: 944
GlyphClass: 3
Flags: W
LayerCount: 2
Fore
SplineSet
112 612 m 1,0,-1
 121 674 l 1,1,2
 155 674 155 674 196 697.5 c 128,-1,3
 237 721 237 721 250 737 c 1,4,-1
 340 737 l 1,5,-1
 263 256 l 1,6,-1
 172 256 l 1,7,-1
 234 638 l 1,8,9
 218 626 218 626 184 619 c 128,-1,10
 150 612 150 612 112 612 c 1,0,-1
185 0 m 1,11,-1
 738 770 l 1,12,-1
 827 770 l 1,13,-1
 274 0 l 1,14,-1
 185 0 l 1,11,-1
546 144 m 1,15,-1
 784 479 l 1,16,-1
 885 479 l 1,17,-1
 687 195 l 1,18,-1
 816 195 l 1,19,-1
 833 304 l 1,20,-1
 866 353 l 1,21,-1
 930 353 l 1,22,-1
 905 195 l 1,23,-1
 957 195 l 1,24,-1
 946 122 l 1,25,-1
 890 106 l 1,26,-1
 874 0 l 1,27,-1
 785 0 l 1,28,-1
 802 106 l 1,29,-1
 566 106 l 1,30,-1
 546 144 l 1,15,-1
EndSplineSet
Ligature2: "'frac' Diagonal Fractions lookup 7 subtable" one fraction four
Ligature2: "'frac' Diagonal Fractions lookup 7 subtable" one slash four
EndChar

StartChar: onehalf
Encoding: 189 189 126
Width: 1003
GlyphClass: 3
Flags: W
LayerCount: 2
Fore
SplineSet
112 612 m 1,0,-1
 121 674 l 1,1,2
 155 674 155 674 196 697.5 c 128,-1,3
 237 721 237 721 250 737 c 1,4,-1
 340 737 l 1,5,-1
 263 256 l 1,6,-1
 172 256 l 1,7,-1
 234 638 l 1,8,9
 218 626 218 626 184 619 c 128,-1,10
 150 612 150 612 112 612 c 1,0,-1
177 0 m 1,11,-1
 730 770 l 1,12,-1
 819 770 l 1,13,-1
 266 0 l 1,14,-1
 177 0 l 1,11,-1
920 305.5 m 128,-1,16
 928 321 928 321 929.5 333.5 c 128,-1,17
 931 346 931 346 931 355.5 c 128,-1,18
 931 365 931 365 928 376 c 1,19,20
 919 400 919 400 864 400 c 2,21,-1
 701 400 l 2,22,23
 699 400 699 400 708 452 c 2,24,-1
 711 468 l 1,25,26
 826 486 826 486 904 486 c 0,27,28
 950 486 950 486 980 461 c 0,29,30
 1026 422 1026 422 1026 361 c 0,31,32
 1026 316 1026 316 1003.5 274 c 128,-1,33
 981 232 981 232 953 202.5 c 128,-1,34
 925 173 925 173 902 152.5 c 128,-1,35
 879 132 879 132 851 111 c 128,-1,36
 823 90 823 90 818 86 c 1,37,-1
 983 86 l 1,38,-1
 970 0 l 1,39,-1
 640 0 l 1,40,-1
 653 81 l 1,41,42
 655 83 655 83 680 99 c 128,-1,43
 705 115 705 115 715.5 122.5 c 128,-1,44
 726 130 726 130 752.5 148 c 128,-1,45
 779 166 779 166 793.5 177.5 c 128,-1,46
 808 189 808 189 831 207.5 c 128,-1,47
 854 226 854 226 868 241 c 128,-1,48
 882 256 882 256 897 273 c 128,-1,15
 912 290 912 290 920 305.5 c 128,-1,16
EndSplineSet
Ligature2: "'frac' Diagonal Fractions lookup 7 subtable" one fraction two
Ligature2: "'frac' Diagonal Fractions lookup 7 subtable" one slash two
EndChar

StartChar: threequarters
Encoding: 190 190 127
Width: 1057
GlyphClass: 3
Flags: W
LayerCount: 2
Fore
SplineSet
383 491 m 1,0,1
 421 473 421 473 421 416 c 0,2,3
 421 405 421 405 419 393 c 2,4,-1
 415 368 l 2,5,6
 406 310 406 310 371 280.5 c 128,-1,7
 336 251 336 251 269 251 c 0,8,9
 267 251 267 251 265 251 c 128,-1,10
 263 251 263 251 242 251 c 128,-1,11
 221 251 221 251 217 251 c 128,-1,12
 213 251 213 251 195 251.5 c 128,-1,13
 177 252 177 252 171 252.5 c 128,-1,14
 165 253 165 253 150.5 254 c 128,-1,15
 136 255 136 255 129 256.5 c 128,-1,16
 122 258 122 258 110 259 c 1,17,18
 92 263 92 263 71 270 c 1,19,-1
 83 337 l 1,20,-1
 249 337 l 2,21,22
 319 337 319 337 326 386 c 1,23,-1
 329 402 l 2,24,25
 330 409 330 409 330 421.5 c 128,-1,26
 330 434 330 434 316.5 444.5 c 128,-1,27
 303 455 303 455 272 456 c 2,28,-1
 142 460 l 1,29,-1
 154 533 l 1,30,-1
 285 539 l 2,31,32
 353 542 353 542 360 588 c 1,33,-1
 362 604 l 2,34,35
 363 611 363 611 363 622 c 128,-1,36
 363 633 363 633 351 642 c 128,-1,37
 339 651 339 651 303 651 c 2,38,-1
 128 651 l 1,39,-1
 138 717 l 1,40,41
 196 737 196 737 294 737 c 0,42,43
 319 737 319 737 348 737 c 0,44,45
 404 736 404 736 430 704 c 128,-1,46
 456 672 456 672 456 635 c 0,47,48
 456 624 456 624 454 613 c 2,49,-1
 449 581 l 2,50,51
 443 545 443 545 425.5 521 c 128,-1,52
 408 497 408 497 383 491 c 1,0,1
284 0 m 1,53,-1
 837 770 l 1,54,-1
 926 770 l 1,55,-1
 373 0 l 1,56,-1
 284 0 l 1,53,-1
633 144 m 1,57,-1
 871 479 l 1,58,-1
 972 479 l 1,59,-1
 774 195 l 1,60,-1
 903 195 l 1,61,-1
 920 304 l 1,62,-1
 954 353 l 1,63,-1
 1018 353 l 1,64,-1
 992 195 l 1,65,-1
 1044 195 l 1,66,-1
 1033 122 l 1,67,-1
 977 106 l 1,68,-1
 962 0 l 1,69,-1
 872 0 l 1,70,-1
 889 106 l 1,71,-1
 653 106 l 1,72,-1
 633 144 l 1,57,-1
EndSplineSet
Ligature2: "'frac' Diagonal Fractions lookup 7 subtable" three fraction four
Ligature2: "'frac' Diagonal Fractions lookup 7 subtable" three slash four
EndChar

StartChar: questiondown
Encoding: 191 191 128
Width: 539
GlyphClass: 2
Flags: W
LayerCount: 2
Fore
SplineSet
294 181 m 1,0,-1
 309 275 l 1,1,-1
 409 275 l 1,2,-1
 380 92 l 1,3,4
 338 93 338 93 307 93 c 128,-1,5
 276 93 276 93 245 91.5 c 128,-1,6
 214 90 214 90 185 69.5 c 128,-1,7
 156 49 156 49 149 5 c 2,8,-1
 138 -66 l 2,9,10
 135 -79 135 -79 135 -94 c 128,-1,11
 135 -109 135 -109 143 -126 c 0,12,13
 158 -162 158 -162 242 -162 c 2,14,-1
 499 -162 l 1,15,-1
 486 -245 l 1,16,17
 339 -270 339 -270 246 -270 c 0,18,19
 223 -270 223 -270 200 -269 c 1,20,21
 133 -269 133 -269 88 -239 c 0,22,23
 18 -192 18 -192 18 -104 c 0,24,25
 18 -87 18 -87 21 -69 c 2,26,-1
 34 14 l 2,27,28
 50 119 50 119 115 156 c 0,29,30
 164 184 164 184 240 184 c 0,31,32
 266 184 266 184 294 181 c 1,0,-1
355 470 m 2,33,-1
 430 470 l 2,34,35
 441 470 441 470 446.5 463.5 c 128,-1,36
 452 457 452 457 451 447 c 2,37,-1
 438 369 l 1,38,39
 435 344 435 344 410 344 c 2,40,-1
 335 344 l 2,41,42
 315 344 315 344 315 362 c 0,43,44
 315 365 315 365 315 369 c 2,45,-1
 328 447 l 2,46,47
 331 470 331 470 355 470 c 2,33,-1
EndSplineSet
Substitution2: "'case' Case-Sensitive Forms lookup 18 subtable" questiondown.alt
Substitution2: "'smcp' Lowercase to Small Capitals lookup 1 subtable" questiondown.smcp
EndChar

StartChar: Agrave
Encoding: 192 192 129
Width: 677
GlyphClass: 2
Flags: W
LayerCount: 2
Fore
SplineSet
330 934 m 1,0,-1
 437 934 l 1,1,-1
 525 797 l 1,2,-1
 442 797 l 1,3,-1
 330 934 l 1,0,-1
38 0 m 1,4,-1
 409 732 l 1,5,-1
 537 732 l 1,6,-1
 666 0 l 1,7,-1
 548 0 l 1,8,-1
 515 177 l 1,9,-1
 256 177 l 1,10,-1
 166 0 l 1,11,-1
 38 0 l 1,4,-1
306 283 m 1,12,-1
 501 283 l 1,13,-1
 452 579 l 1,14,-1
 306 283 l 1,12,-1
EndSplineSet
Substitution2: "'c2sc' Capitals to Small Capitals in Latin lookup 2 subtable" agrave.smcp
EndChar

StartChar: Aacute
Encoding: 193 193 130
Width: 677
GlyphClass: 2
Flags: W
LayerCount: 2
Fore
SplineSet
442 797 m 1,0,-1
 560 934 l 1,1,-1
 673 934 l 1,2,-1
 525 797 l 1,3,-1
 442 797 l 1,0,-1
38 0 m 1,4,-1
 409 732 l 1,5,-1
 537 732 l 1,6,-1
 666 0 l 1,7,-1
 548 0 l 1,8,-1
 515 177 l 1,9,-1
 256 177 l 1,10,-1
 166 0 l 1,11,-1
 38 0 l 1,4,-1
306 283 m 1,12,-1
 501 283 l 1,13,-1
 452 579 l 1,14,-1
 306 283 l 1,12,-1
EndSplineSet
Substitution2: "'c2sc' Capitals to Small Capitals in Latin lookup 2 subtable" aacute.smcp
EndChar

StartChar: Acircumflex
Encoding: 194 194 131
Width: 677
GlyphClass: 2
Flags: W
LayerCount: 2
Fore
SplineSet
332 797 m 1,0,-1
 465 930 l 1,1,-1
 557 930 l 1,2,-1
 635 797 l 1,3,-1
 554 797 l 1,4,-1
 506 869 l 1,5,-1
 427 797 l 1,6,-1
 332 797 l 1,0,-1
38 0 m 1,7,-1
 409 732 l 1,8,-1
 537 732 l 1,9,-1
 666 0 l 1,10,-1
 548 0 l 1,11,-1
 515 177 l 1,12,-1
 256 177 l 1,13,-1
 166 0 l 1,14,-1
 38 0 l 1,7,-1
306 283 m 1,15,-1
 501 283 l 1,16,-1
 452 579 l 1,17,-1
 306 283 l 1,15,-1
EndSplineSet
Substitution2: "'c2sc' Capitals to Small Capitals in Latin lookup 2 subtable" acircumflex.smcp
EndChar

StartChar: Atilde
Encoding: 195 195 132
Width: 677
GlyphClass: 2
Flags: W
LayerCount: 2
Fore
SplineSet
507 897.5 m 128,-1,1
 537 881 537 881 544.5 880.5 c 128,-1,2
 552 880 552 880 562.5 880 c 128,-1,3
 573 880 573 880 606 893 c 128,-1,4
 639 906 639 906 651 916 c 1,5,-1
 666 863 l 1,6,7
 664 862 664 862 650 851 c 128,-1,8
 636 840 636 840 632 837 c 128,-1,9
 628 834 628 834 615.5 825.5 c 128,-1,10
 603 817 603 817 596.5 814 c 128,-1,11
 590 811 590 811 579 806 c 0,12,13
 535 785 535 785 483 815 c 0,14,15
 453 832 453 832 436 832 c 0,16,17
 405 832 405 832 386 823 c 128,-1,18
 367 814 367 814 362.5 811.5 c 128,-1,19
 358 809 358 809 349 804 c 128,-1,20
 340 799 340 799 336 797 c 1,21,-1
 320 847 l 1,22,23
 358 879 358 879 389 897 c 128,-1,24
 420 915 420 915 448.5 914.5 c 128,-1,0
 477 914 477 914 507 897.5 c 128,-1,1
38 0 m 1,25,-1
 409 732 l 1,26,-1
 537 732 l 1,27,-1
 666 0 l 1,28,-1
 548 0 l 1,29,-1
 515 177 l 1,30,-1
 256 177 l 1,31,-1
 166 0 l 1,32,-1
 38 0 l 1,25,-1
306 283 m 1,33,-1
 501 283 l 1,34,-1
 452 579 l 1,35,-1
 306 283 l 1,33,-1
EndSplineSet
Substitution2: "'c2sc' Capitals to Small Capitals in Latin lookup 2 subtable" atilde.smcp
EndChar

StartChar: Adieresis
Encoding: 196 196 133
Width: 677
GlyphClass: 2
Flags: W
LayerCount: 2
Fore
SplineSet
374 908 m 128,-1,1
 397 908 397 908 409.5 894 c 128,-1,2
 422 880 422 880 422 869 c 128,-1,3
 422 858 422 858 420.5 850 c 128,-1,4
 419 842 419 842 413 831.5 c 128,-1,5
 407 821 407 821 399 814 c 0,6,7
 380 797 380 797 357 797 c 128,-1,8
 334 797 334 797 321.5 812 c 128,-1,9
 309 827 309 827 309 838 c 0,10,11
 309 873 309 873 330 890.5 c 128,-1,0
 351 908 351 908 374 908 c 128,-1,1
629 908 m 128,-1,13
 652 908 652 908 664.5 894 c 128,-1,14
 677 880 677 880 677 869 c 128,-1,15
 677 858 677 858 675.5 850 c 128,-1,16
 674 842 674 842 668 831.5 c 128,-1,17
 662 821 662 821 654 814 c 0,18,19
 635 797 635 797 612 797 c 128,-1,20
 589 797 589 797 576.5 812 c 128,-1,21
 564 827 564 827 564 838 c 0,22,23
 564 873 564 873 585 890.5 c 128,-1,12
 606 908 606 908 629 908 c 128,-1,13
38 0 m 1,24,-1
 409 732 l 1,25,-1
 537 732 l 1,26,-1
 666 0 l 1,27,-1
 548 0 l 1,28,-1
 515 177 l 1,29,-1
 256 177 l 1,30,-1
 166 0 l 1,31,-1
 38 0 l 1,24,-1
306 283 m 1,32,-1
 501 283 l 1,33,-1
 452 579 l 1,34,-1
 306 283 l 1,32,-1
EndSplineSet
Substitution2: "'c2sc' Capitals to Small Capitals in Latin lookup 2 subtable" adieresis.smcp
EndChar

StartChar: Aring
Encoding: 197 197 134
Width: 677
GlyphClass: 2
Flags: W
LayerCount: 2
Fore
SplineSet
443.5 919.5 m 128,-1,1
 419 906 419 906 402 880.5 c 128,-1,2
 385 855 385 855 385 822 c 0,3,4
 385 786 385 786 411.5 758 c 128,-1,5
 438 730 438 730 480 730 c 0,6,7
 538 730 538 730 572 782 c 0,8,9
 589 808 589 808 589 842 c 0,10,11
 589 878 589 878 563.5 905.5 c 128,-1,12
 538 933 538 933 503 933 c 128,-1,0
 468 933 468 933 443.5 919.5 c 128,-1,1
460.5 791 m 128,-1,14
 450 797 450 797 444.5 808 c 128,-1,15
 439 819 439 819 440.5 835 c 128,-1,16
 442 851 442 851 457 865 c 128,-1,17
 472 879 472 879 491.5 879 c 128,-1,18
 511 879 511 879 523 866 c 128,-1,19
 535 853 535 853 535 833.5 c 128,-1,20
 535 814 535 814 519 799.5 c 128,-1,21
 503 785 503 785 487 785 c 128,-1,13
 471 785 471 785 460.5 791 c 128,-1,14
38 0 m 1,22,-1
 409 732 l 1,23,-1
 537 732 l 1,24,-1
 666 0 l 1,25,-1
 548 0 l 1,26,-1
 515 177 l 1,27,-1
 256 177 l 1,28,-1
 166 0 l 1,29,-1
 38 0 l 1,22,-1
306 283 m 1,30,-1
 501 283 l 1,31,-1
 452 579 l 1,32,-1
 306 283 l 1,30,-1
EndSplineSet
Substitution2: "'c2sc' Capitals to Small Capitals in Latin lookup 2 subtable" aring.smcp
EndChar

StartChar: AE
Encoding: 198 198 135
Width: 981
GlyphClass: 2
Flags: W
LayerCount: 2
Fore
SplineSet
640 732 m 2,0,-1
 684 732 l 2,1,2
 694 732 694 732 835.5 727 c 128,-1,3
 977 722 977 722 1017 716 c 1,4,-1
 1002 621 l 1,5,-1
 708 621 l 2,6,7
 672 621 672 621 662 603 c 1,8,9
 653 590 653 590 649 567 c 2,10,-1
 625 417 l 1,11,-1
 925 406 l 1,12,-1
 910 312 l 1,13,-1
 606 302 l 1,14,-1
 584 158 l 2,15,16
 578 120 578 120 598 112 c 0,17,18
 613 106 613 106 638 106 c 2,19,-1
 921 106 l 1,20,-1
 905 13 l 1,21,22
 873 8 873 8 668 -1 c 2,23,-1
 600 -4 l 2,24,25
 594 -5 594 -5 581 -5 c 128,-1,26
 568 -5 568 -5 545 1 c 0,27,28
 486 14 486 14 467 60 c 0,29,30
 460 77 460 77 460 93.5 c 128,-1,31
 460 110 460 110 462 122 c 2,32,-1
 475 208 l 1,33,-1
 293 208 l 1,34,-1
 156 0 l 1,35,-1
 25 0 l 1,36,-1
 407 586 l 2,37,38
 464 673 464 673 525 703 c 0,39,40
 583 732 583 732 640 732 c 2,0,-1
360 313 m 1,41,-1
 492 313 l 1,42,-1
 537 585 l 1,43,-1
 360 313 l 1,41,-1
EndSplineSet
EndChar

StartChar: Ccedilla
Encoding: 199 199 136
Width: 573
GlyphClass: 2
Flags: W
LayerCount: 2
Fore
SplineSet
410 740 m 0,0,1
 533 740 533 740 657 707 c 1,2,-1
 642 615 l 1,3,4
 524 631 524 631 430 631 c 0,5,6
 423 631 423 631 419 631 c 128,-1,7
 415 631 415 631 406.5 631 c 128,-1,8
 398 631 398 631 390 630.5 c 128,-1,9
 382 630 382 630 367.5 627.5 c 128,-1,10
 353 625 353 625 343.5 620.5 c 128,-1,11
 334 616 334 616 320.5 607 c 128,-1,12
 307 598 307 598 297.5 585 c 128,-1,13
 288 572 288 572 276.5 552 c 128,-1,14
 265 532 265 532 256 506 c 0,15,16
 235 445 235 445 224 375 c 128,-1,17
 213 305 213 305 213 256 c 128,-1,18
 213 207 213 207 225 173 c 0,19,20
 248 107 248 107 328 103 c 0,21,22
 344 103 344 103 392 103 c 128,-1,23
 440 103 440 103 565 111 c 1,24,-1
 551 20 l 1,25,26
 465 -6 465 -6 315 -6 c 0,27,28
 241 -6 241 -6 201 16 c 0,29,30
 95 72 95 72 95 256 c 0,31,32
 95 312 95 312 108 391.5 c 128,-1,33
 121 471 121 471 141.5 534.5 c 128,-1,34
 162 598 162 598 197 646 c 0,35,36
 265 740 265 740 410 740 c 0,0,1
235 -176 m 2,37,-1
 181 -176 l 1,38,-1
 189 -124 l 1,39,-1
 238 -109 l 2,40,41
 266 -101 266 -101 274 -71 c 0,42,43
 278 -59 278 -59 281 -37 c 1,44,-1
 366 -37 l 1,45,46
 354 -114 354 -114 325.5 -145 c 128,-1,47
 297 -176 297 -176 235 -176 c 2,37,-1
EndSplineSet
Substitution2: "'c2sc' Capitals to Small Capitals in Latin lookup 2 subtable" ccedilla.smcp
EndChar

StartChar: Egrave
Encoding: 200 200 137
Width: 562
GlyphClass: 2
Flags: W
LayerCount: 2
Fore
SplineSet
276 928 m 1,0,-1
 384 928 l 1,1,-1
 471 792 l 1,2,-1
 388 792 l 1,3,-1
 276 928 l 1,0,-1
319 732 m 0,4,5
 323 732 323 732 460.5 727 c 128,-1,6
 598 722 598 722 638 716 c 1,7,-1
 623 621 l 1,8,-1
 331 621 l 2,9,10
 295 621 295 621 283 603 c 0,11,12
 273 588 273 588 270 565 c 2,13,-1
 247 421 l 1,14,-1
 546 411 l 1,15,-1
 531 316 l 1,16,-1
 229 307 l 1,17,-1
 206 160 l 2,18,19
 200 122 200 122 220 114 c 0,20,21
 235 108 235 108 260 108 c 2,22,-1
 543 108 l 1,23,-1
 527 14 l 1,24,25
 494 10 494 10 289 0 c 2,26,-1
 221 -3 l 2,27,28
 216 -3 216 -3 202 -3 c 128,-1,29
 188 -3 188 -3 166 3 c 0,30,31
 84 24 84 24 84 110 c 0,32,33
 84 124 84 124 86 140 c 2,34,-1
 158 592 l 2,35,36
 180 732 180 732 319 732 c 0,4,5
EndSplineSet
Substitution2: "'c2sc' Capitals to Small Capitals in Latin lookup 2 subtable" egrave.smcp
EndChar

StartChar: Eacute
Encoding: 201 201 138
Width: 562
GlyphClass: 2
Flags: W
LayerCount: 2
Fore
SplineSet
388 792 m 1,0,-1
 506 928 l 1,1,-1
 618 928 l 1,2,-1
 470 792 l 1,3,-1
 388 792 l 1,0,-1
319 732 m 0,4,5
 323 732 323 732 460.5 727 c 128,-1,6
 598 722 598 722 638 716 c 1,7,-1
 623 621 l 1,8,-1
 331 621 l 2,9,10
 295 621 295 621 283 603 c 0,11,12
 273 588 273 588 270 565 c 2,13,-1
 247 421 l 1,14,-1
 546 411 l 1,15,-1
 531 316 l 1,16,-1
 229 307 l 1,17,-1
 206 160 l 2,18,19
 200 122 200 122 220 114 c 0,20,21
 235 108 235 108 260 108 c 2,22,-1
 543 108 l 1,23,-1
 527 14 l 1,24,25
 494 10 494 10 289 0 c 2,26,-1
 221 -3 l 2,27,28
 216 -3 216 -3 202 -3 c 128,-1,29
 188 -3 188 -3 166 3 c 0,30,31
 84 24 84 24 84 110 c 0,32,33
 84 124 84 124 86 140 c 2,34,-1
 158 592 l 2,35,36
 180 732 180 732 319 732 c 0,4,5
EndSplineSet
Substitution2: "'c2sc' Capitals to Small Capitals in Latin lookup 2 subtable" eacute.smcp
EndChar

StartChar: Ecircumflex
Encoding: 202 202 139
Width: 562
GlyphClass: 2
Flags: W
LayerCount: 2
Fore
SplineSet
279 792 m 1,0,-1
 411 926 l 1,1,-1
 503 926 l 1,2,-1
 581 792 l 1,3,-1
 498 792 l 1,4,-1
 453 862 l 1,5,-1
 380 792 l 1,6,-1
 279 792 l 1,0,-1
319 732 m 0,7,8
 323 732 323 732 460.5 727 c 128,-1,9
 598 722 598 722 638 716 c 1,10,-1
 623 621 l 1,11,-1
 331 621 l 2,12,13
 295 621 295 621 283 603 c 0,14,15
 273 588 273 588 270 565 c 2,16,-1
 247 421 l 1,17,-1
 546 411 l 1,18,-1
 531 316 l 1,19,-1
 229 307 l 1,20,-1
 206 160 l 2,21,22
 200 122 200 122 220 114 c 0,23,24
 235 108 235 108 260 108 c 2,25,-1
 543 108 l 1,26,-1
 527 14 l 1,27,28
 494 10 494 10 289 0 c 2,29,-1
 221 -3 l 2,30,31
 216 -3 216 -3 202 -3 c 128,-1,32
 188 -3 188 -3 166 3 c 0,33,34
 84 24 84 24 84 110 c 0,35,36
 84 124 84 124 86 140 c 2,37,-1
 158 592 l 2,38,39
 180 732 180 732 319 732 c 0,7,8
EndSplineSet
Substitution2: "'c2sc' Capitals to Small Capitals in Latin lookup 2 subtable" ecircumflex.smcp
EndChar

StartChar: Edieresis
Encoding: 203 203 140
Width: 562
GlyphClass: 2
Flags: W
LayerCount: 2
Fore
SplineSet
311 898 m 128,-1,1
 334 898 334 898 346 883.5 c 128,-1,2
 358 869 358 869 358 859 c 0,3,4
 358 824 358 824 337 805.5 c 128,-1,5
 316 787 316 787 293 787 c 128,-1,6
 270 787 270 787 257.5 801.5 c 128,-1,7
 245 816 245 816 245 827 c 0,8,9
 245 862 245 862 266.5 880 c 128,-1,0
 288 898 288 898 311 898 c 128,-1,1
566 898 m 128,-1,11
 589 898 589 898 601 883.5 c 128,-1,12
 613 869 613 869 613 859 c 0,13,14
 613 824 613 824 592 805.5 c 128,-1,15
 571 787 571 787 548 787 c 128,-1,16
 525 787 525 787 512.5 801.5 c 128,-1,17
 500 816 500 816 500 827 c 0,18,19
 500 862 500 862 521.5 880 c 128,-1,10
 543 898 543 898 566 898 c 128,-1,11
319 732 m 0,20,21
 323 732 323 732 460.5 727 c 128,-1,22
 598 722 598 722 638 716 c 1,23,-1
 623 621 l 1,24,-1
 331 621 l 2,25,26
 295 621 295 621 283 603 c 0,27,28
 273 588 273 588 270 565 c 2,29,-1
 247 421 l 1,30,-1
 546 411 l 1,31,-1
 531 316 l 1,32,-1
 229 307 l 1,33,-1
 206 160 l 2,34,35
 200 122 200 122 220 114 c 0,36,37
 235 108 235 108 260 108 c 2,38,-1
 543 108 l 1,39,-1
 527 14 l 1,40,41
 494 10 494 10 289 0 c 2,42,-1
 221 -3 l 2,43,44
 216 -3 216 -3 202 -3 c 128,-1,45
 188 -3 188 -3 166 3 c 0,46,47
 84 24 84 24 84 110 c 0,48,49
 84 124 84 124 86 140 c 2,50,-1
 158 592 l 2,51,52
 180 732 180 732 319 732 c 0,20,21
EndSplineSet
Substitution2: "'c2sc' Capitals to Small Capitals in Latin lookup 2 subtable" edieresis.smcp
EndChar

StartChar: Igrave
Encoding: 204 204 141
Width: 244
GlyphClass: 2
Flags: W
LayerCount: 2
Fore
SplineSet
105 934 m 1,0,-1
 212 934 l 1,1,-1
 300 797 l 1,2,-1
 217 797 l 1,3,-1
 105 934 l 1,0,-1
74 0 m 1,4,-1
 190 732 l 1,5,-1
 306 732 l 1,6,-1
 190 0 l 1,7,-1
 74 0 l 1,4,-1
EndSplineSet
Substitution2: "'c2sc' Capitals to Small Capitals in Latin lookup 2 subtable" igrave.smcp
EndChar

StartChar: Iacute
Encoding: 205 205 142
Width: 244
GlyphClass: 2
Flags: W
LayerCount: 2
Fore
SplineSet
217 797 m 1,0,-1
 335 934 l 1,1,-1
 448 934 l 1,2,-1
 300 797 l 1,3,-1
 217 797 l 1,0,-1
74 0 m 1,4,-1
 190 732 l 1,5,-1
 306 732 l 1,6,-1
 190 0 l 1,7,-1
 74 0 l 1,4,-1
EndSplineSet
Substitution2: "'c2sc' Capitals to Small Capitals in Latin lookup 2 subtable" iacute.smcp
EndChar

StartChar: Icircumflex
Encoding: 206 206 143
Width: 244
GlyphClass: 2
Flags: W
LayerCount: 2
Fore
SplineSet
107 797 m 1,0,-1
 240 930 l 1,1,-1
 332 930 l 1,2,-1
 410 797 l 1,3,-1
 329 797 l 1,4,-1
 281 869 l 1,5,-1
 202 797 l 1,6,-1
 107 797 l 1,0,-1
74 0 m 1,7,-1
 190 732 l 1,8,-1
 306 732 l 1,9,-1
 190 0 l 1,10,-1
 74 0 l 1,7,-1
EndSplineSet
Substitution2: "'c2sc' Capitals to Small Capitals in Latin lookup 2 subtable" icircumflex.smcp
EndChar

StartChar: Idieresis
Encoding: 207 207 144
Width: 244
GlyphClass: 2
Flags: W
LayerCount: 2
Fore
SplineSet
149 908 m 128,-1,1
 172 908 172 908 184.5 894 c 128,-1,2
 197 880 197 880 197 869 c 0,3,4
 197 834 197 834 176 815.5 c 128,-1,5
 155 797 155 797 137.5 797 c 128,-1,6
 120 797 120 797 110.5 801.5 c 128,-1,7
 101 806 101 806 95 814 c 0,8,9
 81 830 81 830 84.5 853 c 128,-1,10
 88 876 88 876 107 892 c 128,-1,0
 126 908 126 908 149 908 c 128,-1,1
404 908 m 128,-1,12
 427 908 427 908 439.5 894 c 128,-1,13
 452 880 452 880 452 869 c 0,14,15
 452 834 452 834 431 815.5 c 128,-1,16
 410 797 410 797 392.5 797 c 128,-1,17
 375 797 375 797 365.5 801.5 c 128,-1,18
 356 806 356 806 350 814 c 0,19,20
 336 830 336 830 339.5 853 c 128,-1,21
 343 876 343 876 362 892 c 128,-1,11
 381 908 381 908 404 908 c 128,-1,12
74 0 m 1,22,-1
 190 732 l 1,23,-1
 306 732 l 1,24,-1
 190 0 l 1,25,-1
 74 0 l 1,22,-1
EndSplineSet
Substitution2: "'c2sc' Capitals to Small Capitals in Latin lookup 2 subtable" idieresis.smcp
EndChar

StartChar: Eth
Encoding: 208 208 145
Width: 658
GlyphClass: 2
Flags: W
LayerCount: 2
Fore
SplineSet
474 732 m 0,0,1
 579 732 579 732 627 667 c 0,2,3
 674 603 674 603 680 518 c 0,4,5
 682 492 682 492 682 471 c 0,6,7
 682 411 682 411 672 352 c 0,8,9
 642 176 642 176 569.5 88 c 128,-1,10
 497 0 497 0 365 0 c 2,11,-1
 67 0 l 1,12,-1
 121 342 l 1,13,-1
 56 342 l 1,14,-1
 66 404 l 1,15,-1
 131 404 l 1,16,-1
 183 731 l 2,17,18
 183 732 183 732 474 732 c 0,0,1
367 107 m 2,19,20
 442 107 442 107 489.5 177 c 128,-1,21
 537 247 537 247 555 364 c 0,22,23
 566 430 566 430 566 482 c 0,24,25
 566 626 566 626 450 626 c 2,26,-1
 282 626 l 1,27,-1
 247 404 l 1,28,-1
 369 404 l 1,29,-1
 359 342 l 1,30,-1
 237 342 l 1,31,-1
 200 107 l 1,32,-1
 367 107 l 2,19,20
EndSplineSet
Substitution2: "'c2sc' Capitals to Small Capitals in Latin lookup 2 subtable" eth.smcp
EndChar

StartChar: Ntilde
Encoding: 209 209 146
Width: 665
GlyphClass: 2
Flags: W
LayerCount: 2
Fore
SplineSet
486 894 m 0,0,1
 516 877 516 877 523.5 877 c 128,-1,2
 531 877 531 877 538 877 c 128,-1,3
 545 877 545 877 567 884 c 0,4,5
 611 898 611 898 630 913 c 1,6,-1
 645 860 l 1,7,8
 643 858 643 858 629 847.5 c 128,-1,9
 615 837 615 837 611 834 c 128,-1,10
 607 831 607 831 595 822 c 128,-1,11
 583 813 583 813 576 810 c 128,-1,12
 569 807 569 807 558 802 c 0,13,14
 514 782 514 782 462 812 c 0,15,16
 432 829 432 829 415 829 c 128,-1,17
 398 829 398 829 384.5 825.5 c 128,-1,18
 371 822 371 822 361 817.5 c 128,-1,19
 351 813 351 813 346.5 810.5 c 128,-1,20
 342 808 342 808 330.5 802 c 128,-1,21
 319 796 319 796 315 794 c 1,22,-1
 300 844 l 1,23,24
 359 894 359 894 396 906 c 0,25,26
 439 919 439 919 486 894 c 0,0,1
68 0 m 1,27,-1
 184 732 l 1,28,-1
 299 732 l 1,29,-1
 533 213 l 1,30,-1
 615 732 l 1,31,-1
 731 732 l 1,32,-1
 615 0 l 1,33,-1
 501 0 l 1,34,-1
 266 515 l 1,35,-1
 185 0 l 1,36,-1
 68 0 l 1,27,-1
EndSplineSet
AlternateSubs2: "'salt' Stylistic Alternatives in Latin lookup 16 subtable" Ntilde.salt
Substitution2: "'c2sc' Capitals to Small Capitals in Latin lookup 2 subtable" ntilde.smcp
EndChar

StartChar: Ograve
Encoding: 210 210 147
Width: 666
GlyphClass: 2
Flags: W
LayerCount: 2
Fore
SplineSet
307 934 m 1,0,-1
 414 934 l 1,1,-1
 502 797 l 1,2,-1
 419 797 l 1,3,-1
 307 934 l 1,0,-1
395 735.5 m 128,-1,5
 418 737 418 737 454.5 737 c 128,-1,6
 491 737 491 737 521.5 733.5 c 128,-1,7
 552 730 552 730 582.5 719.5 c 128,-1,8
 613 709 613 709 633 691 c 0,9,10
 681 650 681 650 694 575 c 0,11,12
 700 541 700 541 700 514 c 128,-1,13
 700 487 700 487 699 455 c 128,-1,14
 698 423 698 423 687.5 353.5 c 128,-1,15
 677 284 677 284 662 231 c 128,-1,16
 647 178 647 178 629.5 140.5 c 128,-1,17
 612 103 612 103 587.5 76.5 c 128,-1,18
 563 50 563 50 539 34.5 c 128,-1,19
 515 19 515 19 482 10 c 0,20,21
 427 -4 427 -4 367 -4 c 128,-1,22
 307 -4 307 -4 277 -1 c 128,-1,23
 247 2 247 2 216 12 c 128,-1,24
 185 22 185 22 165 38 c 0,25,26
 116 77 116 77 102 150 c 0,27,28
 96 185 96 185 96 211.5 c 128,-1,29
 96 238 96 238 96.5 269 c 128,-1,30
 97 300 97 300 107 363 c 128,-1,31
 117 426 117 426 128.5 472.5 c 128,-1,32
 140 519 140 519 152.5 554.5 c 128,-1,33
 165 590 165 590 182.5 617.5 c 128,-1,34
 200 645 200 645 216 664 c 128,-1,35
 232 683 232 683 254.5 696.5 c 128,-1,36
 277 710 277 710 297 718 c 128,-1,37
 317 726 317 726 344.5 730 c 128,-1,4
 372 734 372 734 395 735.5 c 128,-1,5
254 498 m 0,38,39
 212 356 212 356 212 221 c 0,40,41
 212 156 212 156 243 131 c 0,42,43
 263 116 263 116 289 110.5 c 128,-1,44
 315 105 315 105 360.5 105 c 128,-1,45
 406 105 406 105 438 114.5 c 128,-1,46
 470 124 470 124 497 152 c 0,47,48
 547 202 547 202 572 361 c 0,49,50
 584 441 584 441 584 482.5 c 128,-1,51
 584 524 584 524 580 543.5 c 128,-1,52
 576 563 576 563 570.5 577 c 128,-1,53
 565 591 565 591 554 600.5 c 128,-1,54
 543 610 543 610 533 615.5 c 128,-1,55
 523 621 523 621 506 624 c 0,56,57
 481 628 481 628 449 628 c 128,-1,58
 417 628 417 628 403 627.5 c 128,-1,59
 389 627 389 627 370.5 624 c 128,-1,60
 352 621 352 621 340.5 616 c 128,-1,61
 329 611 329 611 315 601.5 c 128,-1,62
 301 592 301 592 292 578 c 0,63,64
 266 539 266 539 254 498 c 0,38,39
EndSplineSet
Substitution2: "'c2sc' Capitals to Small Capitals in Latin lookup 2 subtable" ograve.smcp
EndChar

StartChar: Oacute
Encoding: 211 211 148
Width: 666
GlyphClass: 2
Flags: W
LayerCount: 2
Fore
SplineSet
419 797 m 1,0,-1
 537 934 l 1,1,-1
 650 934 l 1,2,-1
 502 797 l 1,3,-1
 419 797 l 1,0,-1
395 735.5 m 128,-1,5
 418 737 418 737 454.5 737 c 128,-1,6
 491 737 491 737 521.5 733.5 c 128,-1,7
 552 730 552 730 582.5 719.5 c 128,-1,8
 613 709 613 709 633 691 c 0,9,10
 681 650 681 650 694 575 c 0,11,12
 700 541 700 541 700 514 c 128,-1,13
 700 487 700 487 699 455 c 128,-1,14
 698 423 698 423 687.5 353.5 c 128,-1,15
 677 284 677 284 662 231 c 128,-1,16
 647 178 647 178 629.5 140.5 c 128,-1,17
 612 103 612 103 587.5 76.5 c 128,-1,18
 563 50 563 50 539 34.5 c 128,-1,19
 515 19 515 19 482 10 c 0,20,21
 427 -4 427 -4 367 -4 c 128,-1,22
 307 -4 307 -4 277 -1 c 128,-1,23
 247 2 247 2 216 12 c 128,-1,24
 185 22 185 22 165 38 c 0,25,26
 116 77 116 77 102 150 c 0,27,28
 96 185 96 185 96 211.5 c 128,-1,29
 96 238 96 238 96.5 269 c 128,-1,30
 97 300 97 300 107 363 c 128,-1,31
 117 426 117 426 128.5 472.5 c 128,-1,32
 140 519 140 519 152.5 554.5 c 128,-1,33
 165 590 165 590 182.5 617.5 c 128,-1,34
 200 645 200 645 216 664 c 128,-1,35
 232 683 232 683 254.5 696.5 c 128,-1,36
 277 710 277 710 297 718 c 128,-1,37
 317 726 317 726 344.5 730 c 128,-1,4
 372 734 372 734 395 735.5 c 128,-1,5
254 498 m 0,38,39
 212 356 212 356 212 221 c 0,40,41
 212 156 212 156 243 131 c 0,42,43
 263 116 263 116 289 110.5 c 128,-1,44
 315 105 315 105 360.5 105 c 128,-1,45
 406 105 406 105 438 114.5 c 128,-1,46
 470 124 470 124 497 152 c 0,47,48
 547 202 547 202 572 361 c 0,49,50
 584 441 584 441 584 482.5 c 128,-1,51
 584 524 584 524 580 543.5 c 128,-1,52
 576 563 576 563 570.5 577 c 128,-1,53
 565 591 565 591 554 600.5 c 128,-1,54
 543 610 543 610 533 615.5 c 128,-1,55
 523 621 523 621 506 624 c 0,56,57
 481 628 481 628 449 628 c 128,-1,58
 417 628 417 628 403 627.5 c 128,-1,59
 389 627 389 627 370.5 624 c 128,-1,60
 352 621 352 621 340.5 616 c 128,-1,61
 329 611 329 611 315 601.5 c 128,-1,62
 301 592 301 592 292 578 c 0,63,64
 266 539 266 539 254 498 c 0,38,39
EndSplineSet
Substitution2: "'c2sc' Capitals to Small Capitals in Latin lookup 2 subtable" oacute.smcp
EndChar

StartChar: Ocircumflex
Encoding: 212 212 149
Width: 666
GlyphClass: 2
Flags: W
LayerCount: 2
Fore
SplineSet
309 797 m 1,0,-1
 442 930 l 1,1,-1
 534 930 l 1,2,-1
 612 797 l 1,3,-1
 531 797 l 1,4,-1
 483 869 l 1,5,-1
 404 797 l 1,6,-1
 309 797 l 1,0,-1
395 735.5 m 128,-1,8
 418 737 418 737 454.5 737 c 128,-1,9
 491 737 491 737 521.5 733.5 c 128,-1,10
 552 730 552 730 582.5 719.5 c 128,-1,11
 613 709 613 709 633 691 c 0,12,13
 681 650 681 650 694 575 c 0,14,15
 700 541 700 541 700 514 c 128,-1,16
 700 487 700 487 699 455 c 128,-1,17
 698 423 698 423 687.5 353.5 c 128,-1,18
 677 284 677 284 662 231 c 128,-1,19
 647 178 647 178 629.5 140.5 c 128,-1,20
 612 103 612 103 587.5 76.5 c 128,-1,21
 563 50 563 50 539 34.5 c 128,-1,22
 515 19 515 19 482 10 c 0,23,24
 427 -4 427 -4 367 -4 c 128,-1,25
 307 -4 307 -4 277 -1 c 128,-1,26
 247 2 247 2 216 12 c 128,-1,27
 185 22 185 22 165 38 c 0,28,29
 116 77 116 77 102 150 c 0,30,31
 96 185 96 185 96 211.5 c 128,-1,32
 96 238 96 238 96.5 269 c 128,-1,33
 97 300 97 300 107 363 c 128,-1,34
 117 426 117 426 128.5 472.5 c 128,-1,35
 140 519 140 519 152.5 554.5 c 128,-1,36
 165 590 165 590 182.5 617.5 c 128,-1,37
 200 645 200 645 216 664 c 128,-1,38
 232 683 232 683 254.5 696.5 c 128,-1,39
 277 710 277 710 297 718 c 128,-1,40
 317 726 317 726 344.5 730 c 128,-1,7
 372 734 372 734 395 735.5 c 128,-1,8
254 498 m 0,41,42
 212 356 212 356 212 221 c 0,43,44
 212 156 212 156 243 131 c 0,45,46
 263 116 263 116 289 110.5 c 128,-1,47
 315 105 315 105 360.5 105 c 128,-1,48
 406 105 406 105 438 114.5 c 128,-1,49
 470 124 470 124 497 152 c 0,50,51
 547 202 547 202 572 361 c 0,52,53
 584 441 584 441 584 482.5 c 128,-1,54
 584 524 584 524 580 543.5 c 128,-1,55
 576 563 576 563 570.5 577 c 128,-1,56
 565 591 565 591 554 600.5 c 128,-1,57
 543 610 543 610 533 615.5 c 128,-1,58
 523 621 523 621 506 624 c 0,59,60
 481 628 481 628 449 628 c 128,-1,61
 417 628 417 628 403 627.5 c 128,-1,62
 389 627 389 627 370.5 624 c 128,-1,63
 352 621 352 621 340.5 616 c 128,-1,64
 329 611 329 611 315 601.5 c 128,-1,65
 301 592 301 592 292 578 c 0,66,67
 266 539 266 539 254 498 c 0,41,42
EndSplineSet
Substitution2: "'c2sc' Capitals to Small Capitals in Latin lookup 2 subtable" ocircumflex.smcp
EndChar

StartChar: Otilde
Encoding: 213 213 150
Width: 666
GlyphClass: 2
Flags: W
LayerCount: 2
Fore
SplineSet
499 889 m 128,-1,1
 514 881 514 881 521.5 880.5 c 128,-1,2
 529 880 529 880 539.5 880 c 128,-1,3
 550 880 550 880 582.5 893 c 128,-1,4
 615 906 615 906 628 916 c 1,5,-1
 642 863 l 1,6,7
 640 862 640 862 626.5 851 c 128,-1,8
 613 840 613 840 609 837 c 128,-1,9
 605 834 605 834 592.5 825.5 c 128,-1,10
 580 817 580 817 573.5 814 c 128,-1,11
 567 811 567 811 556 806 c 0,12,13
 512 785 512 785 459 815 c 0,14,15
 430 832 430 832 413 832 c 128,-1,16
 396 832 396 832 382 828.5 c 128,-1,17
 368 825 368 825 358 820.5 c 128,-1,18
 348 816 348 816 344 814 c 128,-1,19
 340 812 340 812 328 805.5 c 128,-1,20
 316 799 316 799 312 797 c 1,21,-1
 297 847 l 1,22,23
 340 883 340 883 357 892 c 128,-1,24
 374 901 374 901 382 904.5 c 128,-1,25
 390 908 390 908 397 910 c 0,26,27
 433 921 433 921 458.5 909 c 128,-1,0
 484 897 484 897 499 889 c 128,-1,1
395 735.5 m 128,-1,29
 418 737 418 737 454.5 737 c 128,-1,30
 491 737 491 737 521.5 733.5 c 128,-1,31
 552 730 552 730 582.5 719.5 c 128,-1,32
 613 709 613 709 633 691 c 0,33,34
 681 650 681 650 694 575 c 0,35,36
 700 541 700 541 700 514 c 128,-1,37
 700 487 700 487 699 455 c 128,-1,38
 698 423 698 423 687.5 353.5 c 128,-1,39
 677 284 677 284 662 231 c 128,-1,40
 647 178 647 178 629.5 140.5 c 128,-1,41
 612 103 612 103 587.5 76.5 c 128,-1,42
 563 50 563 50 539 34.5 c 128,-1,43
 515 19 515 19 482 10 c 0,44,45
 427 -4 427 -4 367 -4 c 128,-1,46
 307 -4 307 -4 277 -1 c 128,-1,47
 247 2 247 2 216 12 c 128,-1,48
 185 22 185 22 165 38 c 0,49,50
 116 77 116 77 102 150 c 0,51,52
 96 185 96 185 96 211.5 c 128,-1,53
 96 238 96 238 96.5 269 c 128,-1,54
 97 300 97 300 107 363 c 128,-1,55
 117 426 117 426 128.5 472.5 c 128,-1,56
 140 519 140 519 152.5 554.5 c 128,-1,57
 165 590 165 590 182.5 617.5 c 128,-1,58
 200 645 200 645 216 664 c 128,-1,59
 232 683 232 683 254.5 696.5 c 128,-1,60
 277 710 277 710 297 718 c 128,-1,61
 317 726 317 726 344.5 730 c 128,-1,28
 372 734 372 734 395 735.5 c 128,-1,29
254 498 m 0,62,63
 212 356 212 356 212 221 c 0,64,65
 212 156 212 156 243 131 c 0,66,67
 263 116 263 116 289 110.5 c 128,-1,68
 315 105 315 105 360.5 105 c 128,-1,69
 406 105 406 105 438 114.5 c 128,-1,70
 470 124 470 124 497 152 c 0,71,72
 547 202 547 202 572 361 c 0,73,74
 584 441 584 441 584 482.5 c 128,-1,75
 584 524 584 524 580 543.5 c 128,-1,76
 576 563 576 563 570.5 577 c 128,-1,77
 565 591 565 591 554 600.5 c 128,-1,78
 543 610 543 610 533 615.5 c 128,-1,79
 523 621 523 621 506 624 c 0,80,81
 481 628 481 628 449 628 c 128,-1,82
 417 628 417 628 403 627.5 c 128,-1,83
 389 627 389 627 370.5 624 c 128,-1,84
 352 621 352 621 340.5 616 c 128,-1,85
 329 611 329 611 315 601.5 c 128,-1,86
 301 592 301 592 292 578 c 0,87,88
 266 539 266 539 254 498 c 0,62,63
EndSplineSet
Substitution2: "'c2sc' Capitals to Small Capitals in Latin lookup 2 subtable" otilde.smcp
EndChar

StartChar: Odieresis
Encoding: 214 214 151
Width: 666
GlyphClass: 2
Flags: W
LayerCount: 2
Fore
SplineSet
351 908 m 128,-1,1
 374 908 374 908 386.5 894 c 128,-1,2
 399 880 399 880 399 869 c 0,3,4
 399 834 399 834 378 815.5 c 128,-1,5
 357 797 357 797 339.5 797 c 128,-1,6
 322 797 322 797 312.5 801.5 c 128,-1,7
 303 806 303 806 297 814 c 0,8,9
 283 830 283 830 286.5 853 c 128,-1,10
 290 876 290 876 309 892 c 128,-1,0
 328 908 328 908 351 908 c 128,-1,1
606 908 m 128,-1,12
 629 908 629 908 641.5 894 c 128,-1,13
 654 880 654 880 654 869 c 0,14,15
 654 834 654 834 633 815.5 c 128,-1,16
 612 797 612 797 594.5 797 c 128,-1,17
 577 797 577 797 567.5 801.5 c 128,-1,18
 558 806 558 806 552 814 c 0,19,20
 538 830 538 830 541.5 853 c 128,-1,21
 545 876 545 876 564 892 c 128,-1,11
 583 908 583 908 606 908 c 128,-1,12
395 735.5 m 128,-1,23
 418 737 418 737 454.5 737 c 128,-1,24
 491 737 491 737 521.5 733.5 c 128,-1,25
 552 730 552 730 582.5 719.5 c 128,-1,26
 613 709 613 709 633 691 c 0,27,28
 681 650 681 650 694 575 c 0,29,30
 700 541 700 541 700 514 c 128,-1,31
 700 487 700 487 699 455 c 128,-1,32
 698 423 698 423 687.5 353.5 c 128,-1,33
 677 284 677 284 662 231 c 128,-1,34
 647 178 647 178 629.5 140.5 c 128,-1,35
 612 103 612 103 587.5 76.5 c 128,-1,36
 563 50 563 50 539 34.5 c 128,-1,37
 515 19 515 19 482 10 c 0,38,39
 427 -4 427 -4 367 -4 c 128,-1,40
 307 -4 307 -4 277 -1 c 128,-1,41
 247 2 247 2 216 12 c 128,-1,42
 185 22 185 22 165 38 c 0,43,44
 116 77 116 77 102 150 c 0,45,46
 96 185 96 185 96 211.5 c 128,-1,47
 96 238 96 238 96.5 269 c 128,-1,48
 97 300 97 300 107 363 c 128,-1,49
 117 426 117 426 128.5 472.5 c 128,-1,50
 140 519 140 519 152.5 554.5 c 128,-1,51
 165 590 165 590 182.5 617.5 c 128,-1,52
 200 645 200 645 216 664 c 128,-1,53
 232 683 232 683 254.5 696.5 c 128,-1,54
 277 710 277 710 297 718 c 128,-1,55
 317 726 317 726 344.5 730 c 128,-1,22
 372 734 372 734 395 735.5 c 128,-1,23
254 498 m 0,56,57
 212 356 212 356 212 221 c 0,58,59
 212 156 212 156 243 131 c 0,60,61
 263 116 263 116 289 110.5 c 128,-1,62
 315 105 315 105 360.5 105 c 128,-1,63
 406 105 406 105 438 114.5 c 128,-1,64
 470 124 470 124 497 152 c 0,65,66
 547 202 547 202 572 361 c 0,67,68
 584 441 584 441 584 482.5 c 128,-1,69
 584 524 584 524 580 543.5 c 128,-1,70
 576 563 576 563 570.5 577 c 128,-1,71
 565 591 565 591 554 600.5 c 128,-1,72
 543 610 543 610 533 615.5 c 128,-1,73
 523 621 523 621 506 624 c 0,74,75
 481 628 481 628 449 628 c 128,-1,76
 417 628 417 628 403 627.5 c 128,-1,77
 389 627 389 627 370.5 624 c 128,-1,78
 352 621 352 621 340.5 616 c 128,-1,79
 329 611 329 611 315 601.5 c 128,-1,80
 301 592 301 592 292 578 c 0,81,82
 266 539 266 539 254 498 c 0,56,57
EndSplineSet
Substitution2: "'c2sc' Capitals to Small Capitals in Latin lookup 2 subtable" odieresis.smcp
EndChar

StartChar: multiply
Encoding: 215 215 152
Width: 460
GlyphClass: 2
Flags: W
LayerCount: 2
Fore
SplineSet
86 246 m 1,0,-1
 213 356 l 1,1,-1
 122 466 l 1,2,-1
 200 535 l 1,3,-1
 292 425 l 1,4,-1
 427 540 l 1,5,-1
 488 467 l 1,6,-1
 353 350 l 1,7,-1
 447 239 l 1,8,-1
 369 174 l 1,9,-1
 277 283 l 1,10,-1
 148 171 l 1,11,-1
 86 246 l 1,0,-1
EndSplineSet
EndChar

StartChar: Oslash
Encoding: 216 216 153
Width: 666
GlyphClass: 2
Flags: W
LayerCount: 2
Fore
SplineSet
121 83 m 1,0,1
 92 136 92 136 92 213.5 c 128,-1,2
 92 291 92 291 103 359.5 c 128,-1,3
 114 428 114 428 126 474.5 c 128,-1,4
 138 521 138 521 150.5 556 c 128,-1,5
 163 591 163 591 180 618.5 c 128,-1,6
 197 646 197 646 213.5 665 c 128,-1,7
 230 684 230 684 252.5 697.5 c 128,-1,8
 275 711 275 711 295 718.5 c 128,-1,9
 315 726 315 726 342 730 c 0,10,11
 386 737 386 737 449 737 c 0,12,13
 575 737 575 737 628 696 c 1,14,-1
 657 732 l 1,15,-1
 727 732 l 1,16,-1
 665 657 l 1,17,18
 698 602 698 602 698 498 c 0,19,20
 698 434 698 434 686.5 358 c 128,-1,21
 675 282 675 282 659.5 229 c 128,-1,22
 644 176 644 176 626.5 139 c 128,-1,23
 609 102 609 102 585 75.5 c 128,-1,24
 561 49 561 49 537 33.5 c 128,-1,25
 513 18 513 18 479 10 c 0,26,27
 425 -4 425 -4 352 -4 c 128,-1,28
 279 -4 279 -4 233 5 c 128,-1,29
 187 14 187 14 156 41 c 1,30,-1
 122 0 l 1,31,-1
 52 0 l 1,32,-1
 121 83 l 1,0,1
235.5 438 m 128,-1,34
 228 404 228 404 219.5 350 c 128,-1,35
 211 296 211 296 211 257 c 128,-1,36
 211 218 211 218 217 196 c 1,37,-1
 549 604 l 1,38,39
 532 619 532 619 506 623.5 c 128,-1,40
 480 628 480 628 447.5 628 c 128,-1,41
 415 628 415 628 400.5 627.5 c 128,-1,42
 386 627 386 627 368 624 c 128,-1,43
 350 621 350 621 338.5 616 c 128,-1,44
 327 611 327 611 313 601.5 c 128,-1,45
 299 592 299 592 289.5 578 c 128,-1,46
 280 564 280 564 269.5 544.5 c 128,-1,47
 259 525 259 525 251 498.5 c 128,-1,33
 243 472 243 472 235.5 438 c 128,-1,34
355 105 m 0,48,49
 404 105 404 105 436 114.5 c 128,-1,50
 468 124 468 124 495 152 c 0,51,52
 544 202 544 202 569 361 c 0,53,54
 581 436 581 436 581 480.5 c 128,-1,55
 581 525 581 525 574 550 c 1,56,-1
 237 137 l 1,57,58
 266 105 266 105 355 105 c 0,48,49
EndSplineSet
Substitution2: "'c2sc' Capitals to Small Capitals in Latin lookup 2 subtable" oslash.smcp
EndChar

StartChar: Ugrave
Encoding: 217 217 154
Width: 654
GlyphClass: 2
Flags: W
LayerCount: 2
Fore
SplineSet
308 934 m 1,0,-1
 415 934 l 1,1,-1
 503 797 l 1,2,-1
 420 797 l 1,3,-1
 308 934 l 1,0,-1
232 308 m 2,4,5
 224 260 224 260 224 217 c 128,-1,6
 224 174 224 174 239 148 c 0,7,8
 265 104 265 104 350 104 c 128,-1,9
 435 104 435 104 477 150.5 c 128,-1,10
 519 197 519 197 536 308 c 2,11,-1
 603 732 l 1,12,-1
 720 732 l 1,13,-1
 655 298 l 1,14,15
 630 140 630 140 556.5 67.5 c 128,-1,16
 483 -5 483 -5 336 -5 c 0,17,18
 203 -5 203 -5 153 59 c 0,19,20
 107 117 107 117 107 202 c 0,21,22
 107 251 107 251 116 319 c 1,23,-1
 182 732 l 1,24,-1
 299 732 l 1,25,-1
 232 308 l 2,4,5
EndSplineSet
Substitution2: "'c2sc' Capitals to Small Capitals in Latin lookup 2 subtable" ugrave.smcp
EndChar

StartChar: Uacute
Encoding: 218 218 155
Width: 654
GlyphClass: 2
Flags: W
LayerCount: 2
Fore
SplineSet
420 797 m 1,0,-1
 538 934 l 1,1,-1
 651 934 l 1,2,-1
 503 797 l 1,3,-1
 420 797 l 1,0,-1
232 308 m 2,4,5
 224 260 224 260 224 217 c 128,-1,6
 224 174 224 174 239 148 c 0,7,8
 265 104 265 104 350 104 c 128,-1,9
 435 104 435 104 477 150.5 c 128,-1,10
 519 197 519 197 536 308 c 2,11,-1
 603 732 l 1,12,-1
 720 732 l 1,13,-1
 655 298 l 1,14,15
 630 140 630 140 556.5 67.5 c 128,-1,16
 483 -5 483 -5 336 -5 c 0,17,18
 203 -5 203 -5 153 59 c 0,19,20
 107 117 107 117 107 202 c 0,21,22
 107 251 107 251 116 319 c 1,23,-1
 182 732 l 1,24,-1
 299 732 l 1,25,-1
 232 308 l 2,4,5
EndSplineSet
Substitution2: "'c2sc' Capitals to Small Capitals in Latin lookup 2 subtable" uacute.smcp
EndChar

StartChar: Ucircumflex
Encoding: 219 219 156
Width: 654
GlyphClass: 2
Flags: W
LayerCount: 2
Fore
SplineSet
310 797 m 1,0,-1
 443 930 l 1,1,-1
 535 930 l 1,2,-1
 613 797 l 1,3,-1
 532 797 l 1,4,-1
 484 869 l 1,5,-1
 405 797 l 1,6,-1
 310 797 l 1,0,-1
232 308 m 2,7,8
 224 260 224 260 224 217 c 128,-1,9
 224 174 224 174 239 148 c 0,10,11
 265 104 265 104 350 104 c 128,-1,12
 435 104 435 104 477 150.5 c 128,-1,13
 519 197 519 197 536 308 c 2,14,-1
 603 732 l 1,15,-1
 720 732 l 1,16,-1
 655 298 l 1,17,18
 630 140 630 140 556.5 67.5 c 128,-1,19
 483 -5 483 -5 336 -5 c 0,20,21
 203 -5 203 -5 153 59 c 0,22,23
 107 117 107 117 107 202 c 0,24,25
 107 251 107 251 116 319 c 1,26,-1
 182 732 l 1,27,-1
 299 732 l 1,28,-1
 232 308 l 2,7,8
EndSplineSet
Substitution2: "'c2sc' Capitals to Small Capitals in Latin lookup 2 subtable" ucircumflex.smcp
EndChar

StartChar: Udieresis
Encoding: 220 220 157
Width: 654
GlyphClass: 2
Flags: W
LayerCount: 2
Fore
SplineSet
352 908 m 128,-1,1
 375 908 375 908 387.5 894 c 128,-1,2
 400 880 400 880 400 869 c 128,-1,3
 400 858 400 858 398.5 850 c 128,-1,4
 397 842 397 842 391 831.5 c 128,-1,5
 385 821 385 821 377 814 c 0,6,7
 358 797 358 797 335 797 c 128,-1,8
 312 797 312 797 299.5 812 c 128,-1,9
 287 827 287 827 287 838 c 0,10,11
 287 873 287 873 308 890.5 c 128,-1,0
 329 908 329 908 352 908 c 128,-1,1
607 908 m 128,-1,13
 630 908 630 908 642.5 894 c 128,-1,14
 655 880 655 880 655 869 c 128,-1,15
 655 858 655 858 654 852 c 128,-1,16
 653 846 653 846 650 838.5 c 128,-1,17
 647 831 647 831 642 825 c 128,-1,18
 637 819 637 819 631.5 813.5 c 128,-1,19
 626 808 626 808 619 805 c 0,20,21
 605 797 605 797 586 797 c 128,-1,22
 567 797 567 797 554.5 812 c 128,-1,23
 542 827 542 827 542 838 c 0,24,25
 542 873 542 873 563 890.5 c 128,-1,12
 584 908 584 908 607 908 c 128,-1,13
232 308 m 2,26,27
 224 260 224 260 224 217 c 128,-1,28
 224 174 224 174 239 148 c 0,29,30
 265 104 265 104 350 104 c 128,-1,31
 435 104 435 104 477 150.5 c 128,-1,32
 519 197 519 197 536 308 c 2,33,-1
 603 732 l 1,34,-1
 720 732 l 1,35,-1
 655 298 l 1,36,37
 630 140 630 140 556.5 67.5 c 128,-1,38
 483 -5 483 -5 336 -5 c 0,39,40
 203 -5 203 -5 153 59 c 0,41,42
 107 117 107 117 107 202 c 0,43,44
 107 251 107 251 116 319 c 1,45,-1
 182 732 l 1,46,-1
 299 732 l 1,47,-1
 232 308 l 2,26,27
EndSplineSet
Substitution2: "'c2sc' Capitals to Small Capitals in Latin lookup 2 subtable" udieresis.smcp
EndChar

StartChar: Yacute
Encoding: 221 221 158
Width: 647
GlyphClass: 2
Flags: W
LayerCount: 2
Fore
SplineSet
406 797 m 1,0,-1
 524 934 l 1,1,-1
 637 934 l 1,2,-1
 489 797 l 1,3,-1
 406 797 l 1,0,-1
143 732 m 1,4,-1
 268 732 l 1,5,-1
 368 371 l 1,6,-1
 597 732 l 1,7,-1
 731 732 l 1,8,-1
 408 239 l 1,9,-1
 370 0 l 1,10,-1
 254 0 l 1,11,-1
 292 239 l 1,12,-1
 143 732 l 1,4,-1
EndSplineSet
Substitution2: "'c2sc' Capitals to Small Capitals in Latin lookup 2 subtable" yacute.smcp
EndChar

StartChar: Thorn
Encoding: 222 222 159
Width: 549
GlyphClass: 2
Flags: W
LayerCount: 2
Fore
SplineSet
51 0 m 1,0,1
 51 0 51 0 166 729 c 1,2,-1
 282 729 l 1,3,-1
 260 588 l 1,4,-1
 425 588 l 2,5,6
 472 588 472 588 503 568.5 c 128,-1,7
 534 549 534 549 547 525 c 0,8,9
 572 479 572 479 572 423 c 0,10,11
 572 399 572 399 567 365.5 c 128,-1,12
 562 332 562 332 554 301.5 c 128,-1,13
 546 271 546 271 534.5 249 c 128,-1,14
 523 227 523 227 511.5 210.5 c 128,-1,15
 500 194 500 194 484 184 c 128,-1,16
 468 174 468 174 454.5 167.5 c 128,-1,17
 441 161 441 161 422 157 c 1,18,19
 389 152 389 152 342 152 c 0,20,21
 246 152 246 152 195 172 c 1,22,-1
 167 0 l 1,23,-1
 51 0 l 1,0,1
345 258 m 2,24,25
 369 258 369 258 383.5 261.5 c 128,-1,26
 398 265 398 265 412 277 c 0,27,28
 438 298 438 298 450 375 c 0,29,30
 453 390 453 390 453 399 c 128,-1,31
 453 408 453 408 451.5 419 c 128,-1,32
 450 430 450 430 448.5 441.5 c 128,-1,33
 447 453 447 453 439.5 460.5 c 128,-1,34
 432 468 432 468 426.5 472.5 c 128,-1,35
 421 477 421 477 412 479 c 0,36,37
 397 482 397 482 381 482 c 2,38,-1
 243 482 l 1,39,-1
 208 258 l 1,40,-1
 345 258 l 2,24,25
EndSplineSet
Substitution2: "'c2sc' Capitals to Small Capitals in Latin lookup 2 subtable" thorn.smcp
EndChar

StartChar: germandbls
Encoding: 223 223 160
Width: 571
GlyphClass: 2
Flags: W
LayerCount: 2
Fore
SplineSet
248 96 m 1,0,-1
 384 90 l 1,1,2
 412 90 412 90 433 105.5 c 128,-1,3
 454 121 454 121 459 150 c 2,4,-1
 464 176 l 2,5,6
 465 180 465 180 465 183 c 0,7,8
 465 212 465 212 413 231 c 0,9,10
 389 240 389 240 365.5 251 c 128,-1,11
 342 262 342 262 330.5 283.5 c 128,-1,12
 319 305 319 305 319 322 c 0,13,14
 319 391 319 391 351 430 c 0,15,16
 374 458 374 458 443 498 c 1,17,18
 504 538 504 538 504 608 c 0,19,20
 504 642 504 642 481 657 c 128,-1,21
 458 672 458 672 397.5 672 c 128,-1,22
 337 672 337 672 300.5 642 c 128,-1,23
 264 612 264 612 252 534 c 2,24,-1
 167 0 l 1,25,-1
 51 0 l 1,26,-1
 141 566 l 2,27,28
 166 729 166 729 315 768 c 0,29,30
 357 779 357 779 412.5 779 c 128,-1,31
 468 779 468 779 512 766 c 1,32,33
 589 741 589 741 614 675 c 0,34,35
 623 652 623 652 623 636 c 128,-1,36
 623 620 623 620 621 600 c 128,-1,37
 619 580 619 580 608 549 c 0,38,39
 584 484 584 484 532 442 c 0,40,41
 523 436 523 436 494 419 c 128,-1,42
 465 402 465 402 452 388 c 0,43,44
 434 368 434 368 434 347 c 128,-1,45
 434 326 434 326 448.5 313.5 c 128,-1,46
 463 301 463 301 487 291.5 c 128,-1,47
 511 282 511 282 535 270 c 128,-1,48
 559 258 559 258 571 236.5 c 128,-1,49
 583 215 583 215 583 198.5 c 128,-1,50
 583 182 583 182 581 170 c 2,51,-1
 576 134 l 1,52,53
 561 41 561 41 481 9 c 0,54,55
 440 -8 440 -8 405 -8 c 128,-1,56
 370 -8 370 -8 351 -7 c 128,-1,57
 332 -6 332 -6 314.5 -3 c 128,-1,58
 297 0 297 0 285.5 1.5 c 128,-1,59
 274 3 274 3 256.5 6.5 c 128,-1,60
 239 10 239 10 235 11 c 1,61,-1
 248 96 l 1,0,-1
EndSplineSet
Substitution2: "'smcp' Lowercase to Small Capitals lookup 1 subtable" germandbls.smcp
EndChar

StartChar: agrave
Encoding: 224 224 161
Width: 541
GlyphClass: 2
Flags: W
LayerCount: 2
Fore
SplineSet
202 739 m 1,0,-1
 309 739 l 1,1,-1
 397 602 l 1,2,-1
 314 602 l 1,3,-1
 202 739 l 1,0,-1
263 533.5 m 128,-1,5
 287 539 287 539 310.5 540.5 c 128,-1,6
 334 542 334 542 355 542 c 128,-1,7
 376 542 376 542 414.5 537.5 c 128,-1,8
 453 533 453 533 500 517.5 c 128,-1,9
 547 502 547 502 571 479 c 1,10,-1
 501 1 l 1,11,-1
 413 1 l 1,12,-1
 395 57 l 1,13,14
 373 34 373 34 323 14 c 128,-1,15
 273 -6 273 -6 228 -6 c 128,-1,16
 183 -6 183 -6 152 8 c 128,-1,17
 121 22 121 22 98 57 c 0,18,19
 71 97 71 97 71 159.5 c 128,-1,20
 71 222 71 222 82 287.5 c 128,-1,21
 93 353 93 353 113.5 399 c 128,-1,22
 134 445 134 445 156 471 c 128,-1,23
 178 497 178 497 208.5 512.5 c 128,-1,4
 239 528 239 528 263 533.5 c 128,-1,5
448 431 m 1,24,25
 400 446 400 446 366.5 446 c 128,-1,26
 333 446 333 446 315.5 442.5 c 128,-1,27
 298 439 298 439 286.5 435 c 128,-1,28
 275 431 275 431 259 420 c 128,-1,29
 243 409 243 409 232 391 c 0,30,31
 207 347 207 347 194 264 c 1,32,33
 186 221 186 221 186 189.5 c 128,-1,34
 186 158 186 158 194 137 c 0,35,36
 208 96 208 96 255.5 96 c 128,-1,37
 303 96 303 96 335 108 c 128,-1,38
 367 120 367 120 405 145 c 1,39,-1
 448 431 l 1,24,25
EndSplineSet
AlternateSubs2: "'salt' Stylistic Alternatives in Latin lookup 16 subtable" agrave.salt
Substitution2: "'smcp' Lowercase to Small Capitals lookup 1 subtable" agrave.smcp
EndChar

StartChar: aacute
Encoding: 225 225 162
Width: 541
GlyphClass: 2
Flags: W
LayerCount: 2
Fore
SplineSet
320 602 m 1,0,-1
 439 739 l 1,1,-1
 551 739 l 1,2,-1
 403 602 l 1,3,-1
 320 602 l 1,0,-1
263 533.5 m 128,-1,5
 287 539 287 539 310.5 540.5 c 128,-1,6
 334 542 334 542 355 542 c 128,-1,7
 376 542 376 542 414.5 537.5 c 128,-1,8
 453 533 453 533 500 517.5 c 128,-1,9
 547 502 547 502 571 479 c 1,10,-1
 501 1 l 1,11,-1
 413 1 l 1,12,-1
 395 57 l 1,13,14
 373 34 373 34 323 14 c 128,-1,15
 273 -6 273 -6 228 -6 c 128,-1,16
 183 -6 183 -6 152 8 c 128,-1,17
 121 22 121 22 98 57 c 0,18,19
 71 97 71 97 71 159.5 c 128,-1,20
 71 222 71 222 82 287.5 c 128,-1,21
 93 353 93 353 113.5 399 c 128,-1,22
 134 445 134 445 156 471 c 128,-1,23
 178 497 178 497 208.5 512.5 c 128,-1,4
 239 528 239 528 263 533.5 c 128,-1,5
448 431 m 1,24,25
 400 446 400 446 366.5 446 c 128,-1,26
 333 446 333 446 315.5 442.5 c 128,-1,27
 298 439 298 439 286.5 435 c 128,-1,28
 275 431 275 431 259 420 c 128,-1,29
 243 409 243 409 232 391 c 0,30,31
 207 347 207 347 194 264 c 1,32,33
 186 221 186 221 186 189.5 c 128,-1,34
 186 158 186 158 194 137 c 0,35,36
 208 96 208 96 255.5 96 c 128,-1,37
 303 96 303 96 335 108 c 128,-1,38
 367 120 367 120 405 145 c 1,39,-1
 448 431 l 1,24,25
EndSplineSet
AlternateSubs2: "'salt' Stylistic Alternatives in Latin lookup 16 subtable" aacute.salt
Substitution2: "'smcp' Lowercase to Small Capitals lookup 1 subtable" aacute.smcp
EndChar

StartChar: acircumflex
Encoding: 226 226 163
Width: 541
GlyphClass: 2
Flags: W
LayerCount: 2
Fore
SplineSet
204 602 m 1,0,-1
 337 736 l 1,1,-1
 429 736 l 1,2,-1
 507 602 l 1,3,-1
 426 602 l 1,4,-1
 378 674 l 1,5,-1
 299 602 l 1,6,-1
 204 602 l 1,0,-1
263 533.5 m 128,-1,8
 287 539 287 539 310.5 540.5 c 128,-1,9
 334 542 334 542 355 542 c 128,-1,10
 376 542 376 542 414.5 537.5 c 128,-1,11
 453 533 453 533 500 517.5 c 128,-1,12
 547 502 547 502 571 479 c 1,13,-1
 501 1 l 1,14,-1
 413 1 l 1,15,-1
 395 57 l 1,16,17
 373 34 373 34 323 14 c 128,-1,18
 273 -6 273 -6 228 -6 c 128,-1,19
 183 -6 183 -6 152 8 c 128,-1,20
 121 22 121 22 98 57 c 0,21,22
 71 97 71 97 71 159.5 c 128,-1,23
 71 222 71 222 82 287.5 c 128,-1,24
 93 353 93 353 113.5 399 c 128,-1,25
 134 445 134 445 156 471 c 128,-1,26
 178 497 178 497 208.5 512.5 c 128,-1,7
 239 528 239 528 263 533.5 c 128,-1,8
448 431 m 1,27,28
 400 446 400 446 366.5 446 c 128,-1,29
 333 446 333 446 315.5 442.5 c 128,-1,30
 298 439 298 439 286.5 435 c 128,-1,31
 275 431 275 431 259 420 c 128,-1,32
 243 409 243 409 232 391 c 0,33,34
 207 347 207 347 194 264 c 1,35,36
 186 221 186 221 186 189.5 c 128,-1,37
 186 158 186 158 194 137 c 0,38,39
 208 96 208 96 255.5 96 c 128,-1,40
 303 96 303 96 335 108 c 128,-1,41
 367 120 367 120 405 145 c 1,42,-1
 448 431 l 1,27,28
EndSplineSet
AlternateSubs2: "'salt' Stylistic Alternatives in Latin lookup 16 subtable" acircumflex.salt
Substitution2: "'smcp' Lowercase to Small Capitals lookup 1 subtable" acircumflex.smcp
EndChar

StartChar: atilde
Encoding: 227 227 164
Width: 541
GlyphClass: 2
Flags: W
LayerCount: 2
Fore
SplineSet
383 702.5 m 128,-1,1
 413 686 413 686 421 685.5 c 128,-1,2
 429 685 429 685 439.5 685 c 128,-1,3
 450 685 450 685 483 698.5 c 128,-1,4
 516 712 516 712 528 722 c 1,5,-1
 542 668 l 1,6,7
 541 667 541 667 527 656 c 128,-1,8
 513 645 513 645 509 642 c 128,-1,9
 505 639 505 639 492.5 630.5 c 128,-1,10
 480 622 480 622 473.5 619 c 128,-1,11
 467 616 467 616 456 611 c 0,12,13
 412 591 412 591 360 620 c 0,14,15
 330 637 330 637 313 637 c 128,-1,16
 296 637 296 637 282.5 633.5 c 128,-1,17
 269 630 269 630 259 625.5 c 128,-1,18
 249 621 249 621 244.5 619 c 128,-1,19
 240 617 240 617 228.5 610.5 c 128,-1,20
 217 604 217 604 213 602 c 1,21,-1
 197 652 l 1,22,23
 235 684 235 684 265.5 702 c 128,-1,24
 296 720 296 720 324.5 719.5 c 128,-1,0
 353 719 353 719 383 702.5 c 128,-1,1
263 533.5 m 128,-1,26
 287 539 287 539 310.5 540.5 c 128,-1,27
 334 542 334 542 355 542 c 128,-1,28
 376 542 376 542 414.5 537.5 c 128,-1,29
 453 533 453 533 500 517.5 c 128,-1,30
 547 502 547 502 571 479 c 1,31,-1
 501 1 l 1,32,-1
 413 1 l 1,33,-1
 395 57 l 1,34,35
 373 34 373 34 323 14 c 128,-1,36
 273 -6 273 -6 228 -6 c 128,-1,37
 183 -6 183 -6 152 8 c 128,-1,38
 121 22 121 22 98 57 c 0,39,40
 71 97 71 97 71 159.5 c 128,-1,41
 71 222 71 222 82 287.5 c 128,-1,42
 93 353 93 353 113.5 399 c 128,-1,43
 134 445 134 445 156 471 c 128,-1,44
 178 497 178 497 208.5 512.5 c 128,-1,25
 239 528 239 528 263 533.5 c 128,-1,26
448 431 m 1,45,46
 400 446 400 446 366.5 446 c 128,-1,47
 333 446 333 446 315.5 442.5 c 128,-1,48
 298 439 298 439 286.5 435 c 128,-1,49
 275 431 275 431 259 420 c 128,-1,50
 243 409 243 409 232 391 c 0,51,52
 207 347 207 347 194 264 c 1,53,54
 186 221 186 221 186 189.5 c 128,-1,55
 186 158 186 158 194 137 c 0,56,57
 208 96 208 96 255.5 96 c 128,-1,58
 303 96 303 96 335 108 c 128,-1,59
 367 120 367 120 405 145 c 1,60,-1
 448 431 l 1,45,46
EndSplineSet
AlternateSubs2: "'salt' Stylistic Alternatives in Latin lookup 16 subtable" atilde.salt
Substitution2: "'smcp' Lowercase to Small Capitals lookup 1 subtable" atilde.smcp
EndChar

StartChar: adieresis
Encoding: 228 228 165
Width: 541
GlyphClass: 2
Flags: W
LayerCount: 2
Fore
SplineSet
246 714 m 128,-1,1
 269 714 269 714 281 699.5 c 128,-1,2
 293 685 293 685 293 674 c 0,3,4
 293 639 293 639 272 620.5 c 128,-1,5
 251 602 251 602 228 602 c 128,-1,6
 205 602 205 602 192.5 617 c 128,-1,7
 180 632 180 632 180 643 c 0,8,9
 180 678 180 678 201.5 696 c 128,-1,0
 223 714 223 714 246 714 c 128,-1,1
501 714 m 128,-1,11
 524 714 524 714 536 699.5 c 128,-1,12
 548 685 548 685 548 674 c 0,13,14
 548 639 548 639 527 620.5 c 128,-1,15
 506 602 506 602 483 602 c 128,-1,16
 460 602 460 602 447.5 617 c 128,-1,17
 435 632 435 632 435 643 c 0,18,19
 435 678 435 678 456.5 696 c 128,-1,10
 478 714 478 714 501 714 c 128,-1,11
263 533.5 m 128,-1,21
 287 539 287 539 310.5 540.5 c 128,-1,22
 334 542 334 542 355 542 c 128,-1,23
 376 542 376 542 414.5 537.5 c 128,-1,24
 453 533 453 533 500 517.5 c 128,-1,25
 547 502 547 502 571 479 c 1,26,-1
 501 1 l 1,27,-1
 413 1 l 1,28,-1
 395 57 l 1,29,30
 373 34 373 34 323 14 c 128,-1,31
 273 -6 273 -6 228 -6 c 128,-1,32
 183 -6 183 -6 152 8 c 128,-1,33
 121 22 121 22 98 57 c 0,34,35
 71 97 71 97 71 159.5 c 128,-1,36
 71 222 71 222 82 287.5 c 128,-1,37
 93 353 93 353 113.5 399 c 128,-1,38
 134 445 134 445 156 471 c 128,-1,39
 178 497 178 497 208.5 512.5 c 128,-1,20
 239 528 239 528 263 533.5 c 128,-1,21
448 431 m 1,40,41
 400 446 400 446 366.5 446 c 128,-1,42
 333 446 333 446 315.5 442.5 c 128,-1,43
 298 439 298 439 286.5 435 c 128,-1,44
 275 431 275 431 259 420 c 128,-1,45
 243 409 243 409 232 391 c 0,46,47
 207 347 207 347 194 264 c 1,48,49
 186 221 186 221 186 189.5 c 128,-1,50
 186 158 186 158 194 137 c 0,51,52
 208 96 208 96 255.5 96 c 128,-1,53
 303 96 303 96 335 108 c 128,-1,54
 367 120 367 120 405 145 c 1,55,-1
 448 431 l 1,40,41
EndSplineSet
AlternateSubs2: "'salt' Stylistic Alternatives in Latin lookup 16 subtable" adieresis.salt
Substitution2: "'smcp' Lowercase to Small Capitals lookup 1 subtable" adieresis.smcp
EndChar

StartChar: aring
Encoding: 229 229 166
Width: 541
GlyphClass: 2
Flags: W
LayerCount: 2
Fore
SplineSet
387 806 m 128,-1,1
 429 806 429 806 454.5 778 c 128,-1,2
 480 750 480 750 480 714 c 0,3,4
 480 680 480 680 463 654 c 0,5,6
 429 602 429 602 371 602 c 0,7,8
 328 602 328 602 302 630 c 128,-1,9
 276 658 276 658 276 694 c 0,10,11
 276 742 276 742 313 776 c 0,12,0
 345 806 345 806 387 806 c 128,-1,1
382.5 751 m 128,-1,14
 363 751 363 751 347 736 c 128,-1,15
 331 721 331 721 331 701.5 c 128,-1,16
 331 682 331 682 343 669.5 c 128,-1,17
 355 657 355 657 374.5 657 c 128,-1,18
 394 657 394 657 409 670 c 0,19,20
 426 686 426 686 426 705.5 c 128,-1,21
 426 725 426 725 414 738 c 128,-1,13
 402 751 402 751 382.5 751 c 128,-1,14
263 533.5 m 128,-1,23
 287 539 287 539 310.5 540.5 c 128,-1,24
 334 542 334 542 355 542 c 128,-1,25
 376 542 376 542 414.5 537.5 c 128,-1,26
 453 533 453 533 500 517.5 c 128,-1,27
 547 502 547 502 571 479 c 1,28,-1
 501 1 l 1,29,-1
 413 1 l 1,30,-1
 395 57 l 1,31,32
 373 34 373 34 323 14 c 128,-1,33
 273 -6 273 -6 228 -6 c 128,-1,34
 183 -6 183 -6 152 8 c 128,-1,35
 121 22 121 22 98 57 c 0,36,37
 71 97 71 97 71 159.5 c 128,-1,38
 71 222 71 222 82 287.5 c 128,-1,39
 93 353 93 353 113.5 399 c 128,-1,40
 134 445 134 445 156 471 c 128,-1,41
 178 497 178 497 208.5 512.5 c 128,-1,22
 239 528 239 528 263 533.5 c 128,-1,23
448 431 m 1,42,43
 400 446 400 446 366.5 446 c 128,-1,44
 333 446 333 446 315.5 442.5 c 128,-1,45
 298 439 298 439 286.5 435 c 128,-1,46
 275 431 275 431 259 420 c 128,-1,47
 243 409 243 409 232 391 c 0,48,49
 207 347 207 347 194 264 c 1,50,51
 186 221 186 221 186 189.5 c 128,-1,52
 186 158 186 158 194 137 c 0,53,54
 208 96 208 96 255.5 96 c 128,-1,55
 303 96 303 96 335 108 c 128,-1,56
 367 120 367 120 405 145 c 1,57,-1
 448 431 l 1,42,43
EndSplineSet
AlternateSubs2: "'salt' Stylistic Alternatives in Latin lookup 16 subtable" aring.salt
Substitution2: "'smcp' Lowercase to Small Capitals lookup 1 subtable" aring.smcp
EndChar

StartChar: ae
Encoding: 230 230 167
Width: 868
GlyphClass: 2
Flags: W
LayerCount: 2
Fore
SplineSet
650 541 m 0,0,1
 856 541 856 541 856 406 c 0,2,3
 856 341 856 341 827 297.5 c 128,-1,4
 798 254 798 254 761 236 c 0,5,6
 688 201 688 201 612 201 c 0,7,8
 574 201 574 201 539.5 205.5 c 128,-1,9
 505 210 505 210 494 215 c 1,10,11
 489 184 489 184 489 158 c 128,-1,12
 489 132 489 132 498 117 c 0,13,14
 514 91 514 91 568 90 c 0,15,16
 587 89 587 89 636.5 89 c 128,-1,17
 686 89 686 89 794 106 c 1,18,-1
 780 22 l 1,19,20
 677 -8 677 -8 558 -8 c 0,21,22
 537 -8 537 -8 517 -7 c 0,23,24
 427 -4 427 -4 394 63 c 1,25,26
 365 32 365 32 306 12.5 c 128,-1,27
 247 -7 247 -7 201 -7 c 128,-1,28
 155 -7 155 -7 123.5 8.5 c 128,-1,29
 92 24 92 24 69 60 c 0,30,31
 42 102 42 102 42 163.5 c 128,-1,32
 42 225 42 225 51.5 278 c 128,-1,33
 61 331 61 331 71.5 365 c 128,-1,34
 82 399 82 399 95.5 423.5 c 128,-1,35
 109 448 109 448 122.5 467 c 128,-1,36
 136 486 136 486 153 498 c 128,-1,37
 170 510 170 510 184.5 518 c 128,-1,38
 199 526 199 526 218 531 c 0,39,40
 266 542 266 542 308 542 c 0,41,42
 423 542 423 542 494 504 c 1,43,44
 551 541 551 541 650 541 c 0,0,1
427 428 m 1,45,46
 368 445 368 445 334.5 445 c 128,-1,47
 301 445 301 445 285.5 442 c 128,-1,48
 270 439 270 439 258.5 435 c 128,-1,49
 247 431 247 431 231 419.5 c 128,-1,50
 215 408 215 408 205 390 c 0,51,52
 179 347 179 347 166 263 c 1,53,54
 157 217 157 217 157 186 c 128,-1,55
 157 155 157 155 163 137 c 0,56,57
 177 95 177 95 233 95 c 0,58,59
 274 95 274 95 315.5 106.5 c 128,-1,60
 357 118 357 118 374 137 c 1,61,62
 373 152 373 152 373 187 c 128,-1,63
 373 222 373 222 388 303 c 128,-1,64
 403 384 403 384 427 428 c 1,45,46
504 293 m 1,65,66
 530 290 530 290 554.5 290 c 128,-1,67
 579 290 579 290 595 290.5 c 128,-1,68
 611 291 611 291 637.5 296 c 128,-1,69
 664 301 664 301 683.5 310 c 128,-1,70
 703 319 703 319 718 336 c 0,71,72
 739 359 739 359 739 389.5 c 128,-1,73
 739 420 739 420 720.5 431.5 c 128,-1,74
 702 443 702 443 648 443 c 0,75,76
 576 443 576 443 548 410 c 0,77,78
 523 381 523 381 512 334 c 0,79,80
 510 324 510 324 507.5 310.5 c 128,-1,81
 505 297 505 297 504 293 c 1,65,66
EndSplineSet
Substitution2: "'smcp' Lowercase to Small Capitals lookup 1 subtable" ae.smcp
EndChar

StartChar: ccedilla
Encoding: 231 231 168
Width: 494
GlyphClass: 2
Flags: W
LayerCount: 2
Fore
SplineSet
254 534 m 128,-1,1
 274 537 274 537 311.5 537 c 128,-1,2
 349 537 349 537 415.5 529.5 c 128,-1,3
 482 522 482 522 535 506 c 1,4,-1
 523 431 l 1,5,6
 413 439 413 439 357 439 c 128,-1,7
 301 439 301 439 289.5 437 c 128,-1,8
 278 435 278 435 262.5 426 c 128,-1,9
 247 417 247 417 238 399 c 0,10,11
 215 354 215 354 199 263 c 1,12,13
 190 202 190 202 190 172 c 128,-1,14
 190 142 190 142 200 124 c 128,-1,15
 210 106 210 106 226 99 c 128,-1,16
 242 92 242 92 276 92 c 0,17,18
 350 92 350 92 446 100 c 1,19,-1
 478 102 l 1,20,-1
 466 26 l 1,21,22
 427 10 427 10 380 2.5 c 128,-1,23
 333 -5 333 -5 310 -5.5 c 128,-1,24
 287 -6 287 -6 261.5 -6 c 128,-1,25
 236 -6 236 -6 222 -6 c 0,26,27
 139 -5 139 -5 99 64 c 0,28,29
 74 107 74 107 74 164.5 c 128,-1,30
 74 222 74 222 83.5 278 c 128,-1,31
 93 334 93 334 106.5 378 c 128,-1,32
 120 422 120 422 137 450 c 128,-1,33
 154 478 154 478 171 496 c 128,-1,34
 188 514 188 514 211 522.5 c 128,-1,0
 234 531 234 531 254 534 c 128,-1,1
189 -177 m 2,35,-1
 135 -177 l 1,36,-1
 143 -125 l 1,37,-1
 193 -110 l 1,38,39
 214 -102 214 -102 222 -86 c 128,-1,40
 230 -70 230 -70 235 -37 c 1,41,-1
 320 -37 l 1,42,43
 307 -115 307 -115 279 -146 c 128,-1,44
 251 -177 251 -177 189 -177 c 2,35,-1
EndSplineSet
Substitution2: "'smcp' Lowercase to Small Capitals lookup 1 subtable" ccedilla.smcp
EndChar

StartChar: egrave
Encoding: 232 232 169
Width: 526
GlyphClass: 2
Flags: W
LayerCount: 2
Fore
SplineSet
207 738 m 1,0,-1
 315 738 l 1,1,-1
 402 601 l 1,2,-1
 319 601 l 1,3,-1
 207 738 l 1,0,-1
352 541 m 0,4,5
 553 541 553 541 553 407 c 0,6,7
 553 341 553 341 524 297.5 c 128,-1,8
 495 254 495 254 457 236 c 0,9,10
 385 201 385 201 308 201 c 0,11,12
 270 201 270 201 236 205.5 c 128,-1,13
 202 210 202 210 190 215 c 1,14,15
 185 185 185 185 185 168 c 0,16,17
 185 117 185 117 210 101 c 1,18,19
 228 91 228 91 256 90 c 128,-1,20
 284 89 284 89 335 89 c 128,-1,21
 386 89 386 89 493 106 c 1,22,-1
 480 22 l 1,23,24
 377 -8 377 -8 255 -8 c 0,25,26
 234 -8 234 -8 213 -7 c 0,27,28
 118 -4 118 -4 87 70 c 0,29,30
 70 110 70 110 70 166.5 c 128,-1,31
 70 223 70 223 81.5 284.5 c 128,-1,32
 93 346 93 346 104 381 c 128,-1,33
 115 416 115 416 134 449 c 128,-1,34
 153 482 153 482 181 501 c 0,35,36
 241 541 241 541 352 541 c 0,4,5
201 293 m 1,37,38
 227 290 227 290 250.5 290 c 128,-1,39
 274 290 274 290 293 291 c 128,-1,40
 312 292 312 292 329 295 c 128,-1,41
 346 298 346 298 364.5 304.5 c 128,-1,42
 383 311 383 311 397 320 c 0,43,44
 436 346 436 346 436 394 c 0,45,46
 436 421 436 421 420 429 c 1,47,48
 396 443 396 443 345 443 c 0,49,50
 273 443 273 443 244 410 c 0,51,52
 219 381 219 381 209 334 c 0,53,54
 207 324 207 324 204 310.5 c 128,-1,55
 201 297 201 297 201 293 c 1,37,38
EndSplineSet
Substitution2: "'smcp' Lowercase to Small Capitals lookup 1 subtable" egrave.smcp
EndChar

StartChar: eacute
Encoding: 233 233 170
Width: 526
GlyphClass: 2
Flags: W
LayerCount: 2
Fore
SplineSet
319 601 m 1,0,-1
 438 738 l 1,1,-1
 550 738 l 1,2,-1
 402 601 l 1,3,-1
 319 601 l 1,0,-1
352 541 m 0,4,5
 553 541 553 541 553 407 c 0,6,7
 553 341 553 341 524 297.5 c 128,-1,8
 495 254 495 254 457 236 c 0,9,10
 385 201 385 201 308 201 c 0,11,12
 270 201 270 201 236 205.5 c 128,-1,13
 202 210 202 210 190 215 c 1,14,15
 185 185 185 185 185 168 c 0,16,17
 185 117 185 117 210 101 c 1,18,19
 228 91 228 91 256 90 c 128,-1,20
 284 89 284 89 335 89 c 128,-1,21
 386 89 386 89 493 106 c 1,22,-1
 480 22 l 1,23,24
 377 -8 377 -8 255 -8 c 0,25,26
 234 -8 234 -8 213 -7 c 0,27,28
 118 -4 118 -4 87 70 c 0,29,30
 70 110 70 110 70 166.5 c 128,-1,31
 70 223 70 223 81.5 284.5 c 128,-1,32
 93 346 93 346 104 381 c 128,-1,33
 115 416 115 416 134 449 c 128,-1,34
 153 482 153 482 181 501 c 0,35,36
 241 541 241 541 352 541 c 0,4,5
201 293 m 1,37,38
 227 290 227 290 250.5 290 c 128,-1,39
 274 290 274 290 293 291 c 128,-1,40
 312 292 312 292 329 295 c 128,-1,41
 346 298 346 298 364.5 304.5 c 128,-1,42
 383 311 383 311 397 320 c 0,43,44
 436 346 436 346 436 394 c 0,45,46
 436 421 436 421 420 429 c 1,47,48
 396 443 396 443 345 443 c 0,49,50
 273 443 273 443 244 410 c 0,51,52
 219 381 219 381 209 334 c 0,53,54
 207 324 207 324 204 310.5 c 128,-1,55
 201 297 201 297 201 293 c 1,37,38
EndSplineSet
Substitution2: "'smcp' Lowercase to Small Capitals lookup 1 subtable" eacute.smcp
EndChar

StartChar: ecircumflex
Encoding: 234 234 171
Width: 526
GlyphClass: 2
Flags: W
LayerCount: 2
Fore
SplineSet
210 601 m 1,0,-1
 342 734 l 1,1,-1
 434 734 l 1,2,-1
 512 601 l 1,3,-1
 431 601 l 1,4,-1
 383 673 l 1,5,-1
 304 601 l 1,6,-1
 210 601 l 1,0,-1
352 541 m 0,7,8
 553 541 553 541 553 407 c 0,9,10
 553 341 553 341 524 297.5 c 128,-1,11
 495 254 495 254 457 236 c 0,12,13
 385 201 385 201 308 201 c 0,14,15
 270 201 270 201 236 205.5 c 128,-1,16
 202 210 202 210 190 215 c 1,17,18
 185 185 185 185 185 168 c 0,19,20
 185 117 185 117 210 101 c 1,21,22
 228 91 228 91 256 90 c 128,-1,23
 284 89 284 89 335 89 c 128,-1,24
 386 89 386 89 493 106 c 1,25,-1
 480 22 l 1,26,27
 377 -8 377 -8 255 -8 c 0,28,29
 234 -8 234 -8 213 -7 c 0,30,31
 118 -4 118 -4 87 70 c 0,32,33
 70 110 70 110 70 166.5 c 128,-1,34
 70 223 70 223 81.5 284.5 c 128,-1,35
 93 346 93 346 104 381 c 128,-1,36
 115 416 115 416 134 449 c 128,-1,37
 153 482 153 482 181 501 c 0,38,39
 241 541 241 541 352 541 c 0,7,8
201 293 m 1,40,41
 227 290 227 290 250.5 290 c 128,-1,42
 274 290 274 290 293 291 c 128,-1,43
 312 292 312 292 329 295 c 128,-1,44
 346 298 346 298 364.5 304.5 c 128,-1,45
 383 311 383 311 397 320 c 0,46,47
 436 346 436 346 436 394 c 0,48,49
 436 421 436 421 420 429 c 1,50,51
 396 443 396 443 345 443 c 0,52,53
 273 443 273 443 244 410 c 0,54,55
 219 381 219 381 209 334 c 0,56,57
 207 324 207 324 204 310.5 c 128,-1,58
 201 297 201 297 201 293 c 1,40,41
EndSplineSet
Substitution2: "'smcp' Lowercase to Small Capitals lookup 1 subtable" ecircumflex.smcp
EndChar

StartChar: edieresis
Encoding: 235 235 172
Width: 526
GlyphClass: 2
Flags: W
LayerCount: 2
Fore
SplineSet
251.5 712 m 128,-1,1
 275 712 275 712 287 698 c 128,-1,2
 299 684 299 684 299 673 c 128,-1,3
 299 662 299 662 297.5 654 c 128,-1,4
 296 646 296 646 290 635.5 c 128,-1,5
 284 625 284 625 276 618 c 0,6,7
 257 601 257 601 234 601 c 128,-1,8
 211 601 211 601 198.5 616 c 128,-1,9
 186 631 186 631 186 642 c 0,10,11
 186 677 186 677 207 694.5 c 128,-1,0
 228 712 228 712 251.5 712 c 128,-1,1
506.5 712 m 128,-1,13
 530 712 530 712 542 698 c 128,-1,14
 554 684 554 684 554 673 c 128,-1,15
 554 662 554 662 552.5 654 c 128,-1,16
 551 646 551 646 545 635.5 c 128,-1,17
 539 625 539 625 531 618 c 0,18,19
 512 601 512 601 489 601 c 128,-1,20
 466 601 466 601 453.5 616 c 128,-1,21
 441 631 441 631 441 642 c 0,22,23
 441 677 441 677 462 694.5 c 128,-1,12
 483 712 483 712 506.5 712 c 128,-1,13
352 541 m 0,24,25
 553 541 553 541 553 407 c 0,26,27
 553 341 553 341 524 297.5 c 128,-1,28
 495 254 495 254 457 236 c 0,29,30
 385 201 385 201 308 201 c 0,31,32
 270 201 270 201 236 205.5 c 128,-1,33
 202 210 202 210 190 215 c 1,34,35
 185 185 185 185 185 168 c 0,36,37
 185 117 185 117 210 101 c 1,38,39
 228 91 228 91 256 90 c 128,-1,40
 284 89 284 89 335 89 c 128,-1,41
 386 89 386 89 493 106 c 1,42,-1
 480 22 l 1,43,44
 377 -8 377 -8 255 -8 c 0,45,46
 234 -8 234 -8 213 -7 c 0,47,48
 118 -4 118 -4 87 70 c 0,49,50
 70 110 70 110 70 166.5 c 128,-1,51
 70 223 70 223 81.5 284.5 c 128,-1,52
 93 346 93 346 104 381 c 128,-1,53
 115 416 115 416 134 449 c 128,-1,54
 153 482 153 482 181 501 c 0,55,56
 241 541 241 541 352 541 c 0,24,25
201 293 m 1,57,58
 227 290 227 290 250.5 290 c 128,-1,59
 274 290 274 290 293 291 c 128,-1,60
 312 292 312 292 329 295 c 128,-1,61
 346 298 346 298 364.5 304.5 c 128,-1,62
 383 311 383 311 397 320 c 0,63,64
 436 346 436 346 436 394 c 0,65,66
 436 421 436 421 420 429 c 1,67,68
 396 443 396 443 345 443 c 0,69,70
 273 443 273 443 244 410 c 0,71,72
 219 381 219 381 209 334 c 0,73,74
 207 324 207 324 204 310.5 c 128,-1,75
 201 297 201 297 201 293 c 1,57,58
EndSplineSet
Substitution2: "'smcp' Lowercase to Small Capitals lookup 1 subtable" edieresis.smcp
EndChar

StartChar: igrave
Encoding: 236 236 173
Width: 214
GlyphClass: 2
Flags: W
LayerCount: 2
Fore
SplineSet
44 734 m 1,0,-1
 151 734 l 1,1,-1
 239 597 l 1,2,-1
 156 597 l 1,3,-1
 44 734 l 1,0,-1
46 0 m 1,4,-1
 130 531 l 1,5,-1
 246 531 l 1,6,-1
 162 0 l 1,7,-1
 46 0 l 1,4,-1
EndSplineSet
Substitution2: "'smcp' Lowercase to Small Capitals lookup 1 subtable" igrave.smcp
EndChar

StartChar: iacute
Encoding: 237 237 174
Width: 214
GlyphClass: 2
Flags: W
LayerCount: 2
Fore
SplineSet
155 597 m 1,0,-1
 273 734 l 1,1,-1
 386 734 l 1,2,-1
 238 597 l 1,3,-1
 155 597 l 1,0,-1
46 0 m 1,4,-1
 130 531 l 1,5,-1
 246 531 l 1,6,-1
 162 0 l 1,7,-1
 46 0 l 1,4,-1
EndSplineSet
Substitution2: "'smcp' Lowercase to Small Capitals lookup 1 subtable" iacute.smcp
EndChar

StartChar: icircumflex
Encoding: 238 238 175
Width: 214
GlyphClass: 2
Flags: W
LayerCount: 2
Fore
SplineSet
44 597 m 1,0,-1
 176 731 l 1,1,-1
 268 731 l 1,2,-1
 347 597 l 1,3,-1
 265 597 l 1,4,-1
 218 669 l 1,5,-1
 139 597 l 1,6,-1
 44 597 l 1,0,-1
46 0 m 1,7,-1
 130 531 l 1,8,-1
 246 531 l 1,9,-1
 162 0 l 1,10,-1
 46 0 l 1,7,-1
EndSplineSet
Substitution2: "'smcp' Lowercase to Small Capitals lookup 1 subtable" icircumflex.smcp
EndChar

StartChar: idieresis
Encoding: 239 239 176
Width: 214
GlyphClass: 2
Flags: W
LayerCount: 2
Fore
SplineSet
83.5 709 m 128,-1,1
 107 709 107 709 119 694.5 c 128,-1,2
 131 680 131 680 131 669 c 0,3,4
 131 634 131 634 110 615.5 c 128,-1,5
 89 597 89 597 66 597 c 128,-1,6
 43 597 43 597 30.5 612 c 128,-1,7
 18 627 18 627 18 638 c 0,8,9
 18 673 18 673 39 691 c 128,-1,0
 60 709 60 709 83.5 709 c 128,-1,1
338.5 709 m 128,-1,11
 362 709 362 709 374 694.5 c 128,-1,12
 386 680 386 680 386 669 c 0,13,14
 386 634 386 634 365 615.5 c 128,-1,15
 344 597 344 597 326.5 597 c 128,-1,16
 309 597 309 597 299.5 601.5 c 128,-1,17
 290 606 290 606 284 614 c 0,18,19
 270 630 270 630 273.5 653 c 128,-1,20
 277 676 277 676 296 692.5 c 128,-1,10
 315 709 315 709 338.5 709 c 128,-1,11
46 0 m 1,21,-1
 130 531 l 1,22,-1
 246 531 l 1,23,-1
 162 0 l 1,24,-1
 46 0 l 1,21,-1
EndSplineSet
Substitution2: "'smcp' Lowercase to Small Capitals lookup 1 subtable" idieresis.smcp
EndChar

StartChar: eth
Encoding: 240 240 177
Width: 538
GlyphClass: 2
Flags: W
LayerCount: 2
Fore
SplineSet
214 0 m 2,0,1
 65 0 65 0 65 185 c 0,2,3
 65 225 65 225 73 268 c 0,4,5
 97 407 97 407 147.5 469 c 128,-1,6
 198 531 198 531 298 531 c 2,7,-1
 372 531 l 2,8,9
 429 531 429 531 443 520 c 1,10,11
 433 588 433 588 397 629 c 1,12,-1
 264 574 l 1,13,-1
 246 633 l 1,14,-1
 337 670 l 1,15,16
 299 687 299 687 234 687 c 0,17,18
 224 687 224 687 213 687 c 1,19,-1
 228 783 l 1,20,21
 381 783 381 783 458 723 c 1,22,-1
 566 768 l 1,23,-1
 585 709 l 1,24,-1
 503 676 l 1,25,26
 562 593 562 593 562 436 c 0,27,28
 562 353 562 353 543 233.5 c 128,-1,29
 524 114 524 114 471.5 57 c 128,-1,30
 419 0 419 0 322 0 c 2,31,-1
 214 0 l 2,0,1
189 260 m 1,32,33
 182 201 182 201 182 175 c 0,34,35
 182 127 182 127 212 114 c 0,36,37
 223 110 223 110 233 110 c 128,-1,38
 243 110 243 110 245 110 c 2,39,-1
 324 110 l 2,40,41
 325 110 325 110 335.5 110 c 128,-1,42
 346 110 346 110 359.5 114.5 c 128,-1,43
 373 119 373 119 387 134 c 0,44,45
 414 163 414 163 429 260 c 1,46,47
 439 317 439 317 439 346.5 c 128,-1,48
 439 376 439 376 434 389 c 0,49,50
 423 422 423 422 372 422 c 2,51,-1
 298 422 l 2,52,53
 268 422 268 422 250 410 c 0,54,55
 210 384 210 384 189 260 c 1,32,33
EndSplineSet
Substitution2: "'smcp' Lowercase to Small Capitals lookup 1 subtable" eth.smcp
EndChar

StartChar: ntilde
Encoding: 241 241 178
Width: 547
GlyphClass: 2
Flags: W
LayerCount: 2
Fore
SplineSet
395.5 700.5 m 128,-1,1
 425 684 425 684 433 683.5 c 128,-1,2
 441 683 441 683 451.5 683 c 128,-1,3
 462 683 462 683 495 696 c 128,-1,4
 528 709 528 709 540 719 c 1,5,-1
 555 666 l 1,6,7
 553 665 553 665 539 654 c 128,-1,8
 525 643 525 643 521 640 c 128,-1,9
 517 637 517 637 504.5 628.5 c 128,-1,10
 492 620 492 620 485.5 617 c 128,-1,11
 479 614 479 614 468 609 c 0,12,13
 424 588 424 588 372 618 c 0,14,15
 342 635 342 635 325 635 c 128,-1,16
 308 635 308 635 294.5 631.5 c 128,-1,17
 281 628 281 628 271 623.5 c 128,-1,18
 261 619 261 619 256.5 617 c 128,-1,19
 252 615 252 615 240.5 608.5 c 128,-1,20
 229 602 229 602 225 600 c 1,21,-1
 209 650 l 1,22,23
 247 682 247 682 278 700 c 128,-1,24
 309 718 309 718 337.5 717.5 c 128,-1,0
 366 717 366 717 395.5 700.5 c 128,-1,1
361 530 m 128,-1,26
 396 540 396 540 435 540 c 128,-1,27
 474 540 474 540 504 525 c 0,28,29
 555 500 555 500 566 428 c 0,30,31
 567 415 567 415 567 398 c 128,-1,32
 567 381 567 381 563 360 c 2,33,-1
 506 0 l 1,34,-1
 390 0 l 1,35,-1
 447 361 l 2,36,37
 449 373 449 373 449 384 c 0,38,39
 449 442 449 442 390 442 c 0,40,41
 332 442 332 442 284 420 c 0,42,43
 262 410 262 410 229 392 c 1,44,-1
 167 0 l 1,45,-1
 51 0 l 1,46,-1
 135 531 l 1,47,-1
 225 531 l 1,48,-1
 242 472 l 1,49,50
 245 474 245 474 266 486.5 c 128,-1,51
 287 499 287 499 306.5 509.5 c 128,-1,25
 326 520 326 520 361 530 c 128,-1,26
EndSplineSet
AlternateSubs2: "'salt' Stylistic Alternatives in Latin lookup 16 subtable" ntilde.salt
Substitution2: "'smcp' Lowercase to Small Capitals lookup 1 subtable" ntilde.smcp
EndChar

StartChar: ograve
Encoding: 242 242 179
Width: 560
GlyphClass: 2
Flags: W
LayerCount: 2
Fore
SplineSet
215 734 m 1,0,-1
 322 734 l 1,1,-1
 410 597 l 1,2,-1
 327 597 l 1,3,-1
 215 734 l 1,0,-1
363 537 m 0,4,5
 492 537 492 537 538 467 c 0,6,7
 568 422 568 422 568 342 c 0,8,9
 568 300 568 300 560 249 c 0,10,11
 536 101 536 101 478.5 48 c 128,-1,12
 421 -5 421 -5 287.5 -5 c 128,-1,13
 154 -5 154 -5 106 59 c 0,14,15
 74 103 74 103 74 182 c 0,16,17
 74 220 74 220 84.5 284.5 c 128,-1,18
 95 349 95 349 115 400.5 c 128,-1,19
 135 452 135 452 169 483 c 128,-1,20
 203 514 203 514 248.5 525.5 c 128,-1,21
 294 537 294 537 363 537 c 0,4,5
219 354 m 128,-1,23
 208 319 208 319 199 267 c 128,-1,24
 190 215 190 215 190 184.5 c 128,-1,25
 190 154 190 154 196 136 c 128,-1,26
 202 118 202 118 217 109 c 0,27,28
 241 93 241 93 286.5 93.5 c 128,-1,29
 332 94 332 94 352 98 c 128,-1,30
 372 102 372 102 391.5 118.5 c 128,-1,31
 411 135 411 135 423 168 c 128,-1,32
 435 201 435 201 443 253 c 0,33,34
 453 312 453 312 453 341 c 128,-1,35
 453 370 453 370 449 389 c 128,-1,36
 445 408 445 408 431 419 c 0,37,38
 407 439 407 439 359.5 439 c 128,-1,39
 312 439 312 439 290 433 c 128,-1,40
 268 427 268 427 249 408 c 128,-1,22
 230 389 230 389 219 354 c 128,-1,23
EndSplineSet
Substitution2: "'smcp' Lowercase to Small Capitals lookup 1 subtable" ograve.smcp
EndChar

StartChar: oacute
Encoding: 243 243 180
Width: 560
GlyphClass: 2
Flags: W
LayerCount: 2
Fore
SplineSet
329 597 m 1,0,-1
 448 734 l 1,1,-1
 560 734 l 1,2,-1
 412 597 l 1,3,-1
 329 597 l 1,0,-1
363 537 m 0,4,5
 492 537 492 537 538 467 c 0,6,7
 568 422 568 422 568 342 c 0,8,9
 568 300 568 300 560 249 c 0,10,11
 536 101 536 101 478.5 48 c 128,-1,12
 421 -5 421 -5 287.5 -5 c 128,-1,13
 154 -5 154 -5 106 59 c 0,14,15
 74 103 74 103 74 182 c 0,16,17
 74 220 74 220 84.5 284.5 c 128,-1,18
 95 349 95 349 115 400.5 c 128,-1,19
 135 452 135 452 169 483 c 128,-1,20
 203 514 203 514 248.5 525.5 c 128,-1,21
 294 537 294 537 363 537 c 0,4,5
219 354 m 128,-1,23
 208 319 208 319 199 267 c 128,-1,24
 190 215 190 215 190 184.5 c 128,-1,25
 190 154 190 154 196 136 c 128,-1,26
 202 118 202 118 217 109 c 0,27,28
 241 93 241 93 286.5 93.5 c 128,-1,29
 332 94 332 94 352 98 c 128,-1,30
 372 102 372 102 391.5 118.5 c 128,-1,31
 411 135 411 135 423 168 c 128,-1,32
 435 201 435 201 443 253 c 0,33,34
 453 312 453 312 453 341 c 128,-1,35
 453 370 453 370 449 389 c 128,-1,36
 445 408 445 408 431 419 c 0,37,38
 407 439 407 439 359.5 439 c 128,-1,39
 312 439 312 439 290 433 c 128,-1,40
 268 427 268 427 249 408 c 128,-1,22
 230 389 230 389 219 354 c 128,-1,23
EndSplineSet
Substitution2: "'smcp' Lowercase to Small Capitals lookup 1 subtable" oacute.smcp
EndChar

StartChar: ocircumflex
Encoding: 244 244 181
Width: 560
GlyphClass: 2
Flags: W
LayerCount: 2
Fore
SplineSet
216 597 m 1,0,-1
 349 731 l 1,1,-1
 441 731 l 1,2,-1
 519 597 l 1,3,-1
 438 597 l 1,4,-1
 390 669 l 1,5,-1
 311 597 l 1,6,-1
 216 597 l 1,0,-1
363 537 m 0,7,8
 492 537 492 537 538 467 c 0,9,10
 568 422 568 422 568 342 c 0,11,12
 568 300 568 300 560 249 c 0,13,14
 536 101 536 101 478.5 48 c 128,-1,15
 421 -5 421 -5 287.5 -5 c 128,-1,16
 154 -5 154 -5 106 59 c 0,17,18
 74 103 74 103 74 182 c 0,19,20
 74 220 74 220 84.5 284.5 c 128,-1,21
 95 349 95 349 115 400.5 c 128,-1,22
 135 452 135 452 169 483 c 128,-1,23
 203 514 203 514 248.5 525.5 c 128,-1,24
 294 537 294 537 363 537 c 0,7,8
219 354 m 128,-1,26
 208 319 208 319 199 267 c 128,-1,27
 190 215 190 215 190 184.5 c 128,-1,28
 190 154 190 154 196 136 c 128,-1,29
 202 118 202 118 217 109 c 0,30,31
 241 93 241 93 286.5 93.5 c 128,-1,32
 332 94 332 94 352 98 c 128,-1,33
 372 102 372 102 391.5 118.5 c 128,-1,34
 411 135 411 135 423 168 c 128,-1,35
 435 201 435 201 443 253 c 0,36,37
 453 312 453 312 453 341 c 128,-1,38
 453 370 453 370 449 389 c 128,-1,39
 445 408 445 408 431 419 c 0,40,41
 407 439 407 439 359.5 439 c 128,-1,42
 312 439 312 439 290 433 c 128,-1,43
 268 427 268 427 249 408 c 128,-1,25
 230 389 230 389 219 354 c 128,-1,26
EndSplineSet
Substitution2: "'smcp' Lowercase to Small Capitals lookup 1 subtable" ocircumflex.smcp
EndChar

StartChar: otilde
Encoding: 245 245 182
Width: 560
GlyphClass: 2
Flags: W
LayerCount: 2
Fore
SplineSet
392 697.5 m 128,-1,1
 422 681 422 681 429.5 680.5 c 128,-1,2
 437 680 437 680 444.5 680 c 128,-1,3
 452 680 452 680 473 687 c 0,4,5
 517 701 517 701 536 716 c 1,6,-1
 551 663 l 1,7,8
 547 661 547 661 536.5 652.5 c 128,-1,9
 526 644 526 644 521.5 640.5 c 128,-1,10
 517 637 517 637 507 629.5 c 128,-1,11
 497 622 497 622 491 619 c 128,-1,12
 485 616 485 616 475.5 611 c 128,-1,13
 466 606 466 606 459 603 c 0,14,15
 440 597 440 597 419 597.5 c 128,-1,16
 398 598 398 598 368 615 c 128,-1,17
 338 632 338 632 321 632 c 128,-1,18
 304 632 304 632 290.5 628.5 c 128,-1,19
 277 625 277 625 267 620.5 c 128,-1,20
 257 616 257 616 252.5 614 c 128,-1,21
 248 612 248 612 236.5 605.5 c 128,-1,22
 225 599 225 599 221 597 c 1,23,-1
 206 647 l 1,24,25
 243 679 243 679 274 697 c 128,-1,26
 305 715 305 715 333.5 714.5 c 128,-1,0
 362 714 362 714 392 697.5 c 128,-1,1
363 537 m 0,27,28
 492 537 492 537 538 467 c 0,29,30
 568 422 568 422 568 342 c 0,31,32
 568 300 568 300 560 249 c 0,33,34
 536 101 536 101 478.5 48 c 128,-1,35
 421 -5 421 -5 287.5 -5 c 128,-1,36
 154 -5 154 -5 106 59 c 0,37,38
 74 103 74 103 74 182 c 0,39,40
 74 220 74 220 84.5 284.5 c 128,-1,41
 95 349 95 349 115 400.5 c 128,-1,42
 135 452 135 452 169 483 c 128,-1,43
 203 514 203 514 248.5 525.5 c 128,-1,44
 294 537 294 537 363 537 c 0,27,28
219 354 m 128,-1,46
 208 319 208 319 199 267 c 128,-1,47
 190 215 190 215 190 184.5 c 128,-1,48
 190 154 190 154 196 136 c 128,-1,49
 202 118 202 118 217 109 c 0,50,51
 241 93 241 93 286.5 93.5 c 128,-1,52
 332 94 332 94 352 98 c 128,-1,53
 372 102 372 102 391.5 118.5 c 128,-1,54
 411 135 411 135 423 168 c 128,-1,55
 435 201 435 201 443 253 c 0,56,57
 453 312 453 312 453 341 c 128,-1,58
 453 370 453 370 449 389 c 128,-1,59
 445 408 445 408 431 419 c 0,60,61
 407 439 407 439 359.5 439 c 128,-1,62
 312 439 312 439 290 433 c 128,-1,63
 268 427 268 427 249 408 c 128,-1,45
 230 389 230 389 219 354 c 128,-1,46
EndSplineSet
Substitution2: "'smcp' Lowercase to Small Capitals lookup 1 subtable" otilde.smcp
EndChar

StartChar: odieresis
Encoding: 246 246 183
Width: 560
GlyphClass: 2
Flags: W
LayerCount: 2
Fore
SplineSet
261 709 m 128,-1,1
 284 709 284 709 296 694.5 c 128,-1,2
 308 680 308 680 308 669 c 0,3,4
 308 634 308 634 287 615.5 c 128,-1,5
 266 597 266 597 243 597 c 128,-1,6
 220 597 220 597 207.5 612 c 128,-1,7
 195 627 195 627 195 638 c 0,8,9
 195 673 195 673 216.5 691 c 128,-1,0
 238 709 238 709 261 709 c 128,-1,1
516 709 m 128,-1,11
 539 709 539 709 551 694.5 c 128,-1,12
 563 680 563 680 563 669 c 0,13,14
 563 634 563 634 542 615.5 c 128,-1,15
 521 597 521 597 504 597 c 128,-1,16
 487 597 487 597 477 601.5 c 128,-1,17
 467 606 467 606 461 614 c 0,18,19
 447 630 447 630 450.5 653 c 128,-1,20
 454 676 454 676 473.5 692.5 c 128,-1,10
 493 709 493 709 516 709 c 128,-1,11
363 537 m 0,21,22
 492 537 492 537 538 467 c 0,23,24
 568 422 568 422 568 342 c 0,25,26
 568 300 568 300 560 249 c 0,27,28
 536 101 536 101 478.5 48 c 128,-1,29
 421 -5 421 -5 287.5 -5 c 128,-1,30
 154 -5 154 -5 106 59 c 0,31,32
 74 103 74 103 74 182 c 0,33,34
 74 220 74 220 84.5 284.5 c 128,-1,35
 95 349 95 349 115 400.5 c 128,-1,36
 135 452 135 452 169 483 c 128,-1,37
 203 514 203 514 248.5 525.5 c 128,-1,38
 294 537 294 537 363 537 c 0,21,22
219 354 m 128,-1,40
 208 319 208 319 199 267 c 128,-1,41
 190 215 190 215 190 184.5 c 128,-1,42
 190 154 190 154 196 136 c 128,-1,43
 202 118 202 118 217 109 c 0,44,45
 241 93 241 93 286.5 93.5 c 128,-1,46
 332 94 332 94 352 98 c 128,-1,47
 372 102 372 102 391.5 118.5 c 128,-1,48
 411 135 411 135 423 168 c 128,-1,49
 435 201 435 201 443 253 c 0,50,51
 453 312 453 312 453 341 c 128,-1,52
 453 370 453 370 449 389 c 128,-1,53
 445 408 445 408 431 419 c 0,54,55
 407 439 407 439 359.5 439 c 128,-1,56
 312 439 312 439 290 433 c 128,-1,57
 268 427 268 427 249 408 c 128,-1,39
 230 389 230 389 219 354 c 128,-1,40
EndSplineSet
Substitution2: "'smcp' Lowercase to Small Capitals lookup 1 subtable" odieresis.smcp
EndChar

StartChar: divide
Encoding: 247 247 184
Width: 504
GlyphClass: 2
Flags: W
LayerCount: 2
Fore
SplineSet
90 302 m 1,0,-1
 106 404 l 1,1,-1
 526 404 l 1,2,-1
 510 302 l 1,3,-1
 90 302 l 1,0,-1
259 248 m 2,4,-1
 324 248 l 2,5,6
 344 248 344 248 344 230 c 0,7,8
 344 227 344 227 344 224 c 2,9,-1
 333 161 l 1,10,11
 330 138 330 138 306 138 c 2,12,-1
 241 138 l 2,13,14
 231 138 231 138 225 144.5 c 128,-1,15
 219 151 219 151 220 161 c 2,16,-1
 231 224 l 1,17,18
 234 248 234 248 259 248 c 2,4,-1
308 563 m 2,20,-1
 373 563 l 2,21,22
 394 563 394 563 394 545 c 0,23,24
 394 542 394 542 393 538 c 2,25,-1
 384 476 l 2,26,27
 380 453 380 453 356 453 c 2,28,-1
 291 453 l 2,29,30
 280 453 280 453 274.5 459 c 128,-1,31
 269 465 269 465 271 476 c 2,32,-1
 280 538 l 2,33,19
 284 563 284 563 308 563 c 2,20,-1
EndSplineSet
EndChar

StartChar: oslash
Encoding: 248 248 185
Width: 562
GlyphClass: 2
Flags: W
LayerCount: 2
Fore
SplineSet
99 67 m 1,0,1
 75 107 75 107 75 161.5 c 128,-1,2
 75 216 75 216 85.5 282 c 128,-1,3
 96 348 96 348 116 400 c 128,-1,4
 136 452 136 452 170.5 482.5 c 128,-1,5
 205 513 205 513 250 524.5 c 128,-1,6
 295 536 295 536 376 536 c 128,-1,7
 457 536 457 536 506 504 c 1,8,-1
 530 531 l 1,9,-1
 603 531 l 1,10,-1
 543 466 l 1,11,12
 571 423 571 423 571 347 c 0,13,14
 571 304 571 304 562 250 c 0,15,16
 538 102 538 102 480 48.5 c 128,-1,17
 422 -5 422 -5 287 -5 c 0,18,19
 185 -5 185 -5 134 30 c 1,20,-1
 106 0 l 1,21,-1
 36 0 l 1,22,-1
 99 67 l 1,0,1
426 421 m 1,23,24
 405 437 405 437 362.5 437 c 128,-1,25
 320 437 320 437 301 433.5 c 128,-1,26
 282 430 282 430 265 420 c 128,-1,27
 248 410 248 410 237 390 c 0,28,29
 214 348 214 348 199 258 c 0,30,31
 194 227 194 227 194 205.5 c 128,-1,32
 194 184 194 184 198 171 c 1,33,-1
 426 421 l 1,23,24
214 114 m 1,34,35
 234 93 234 93 284 93 c 128,-1,36
 334 93 334 93 354 97.5 c 128,-1,37
 374 102 374 102 393.5 118.5 c 128,-1,38
 413 135 413 135 424.5 168 c 128,-1,39
 436 201 436 201 444 248.5 c 128,-1,40
 452 296 452 296 452 323 c 128,-1,41
 452 350 452 350 446 366 c 1,42,-1
 214 114 l 1,34,35
EndSplineSet
Substitution2: "'smcp' Lowercase to Small Capitals lookup 1 subtable" oslash.smcp
EndChar

StartChar: ugrave
Encoding: 249 249 186
Width: 546
GlyphClass: 2
Flags: W
LayerCount: 2
Fore
SplineSet
211 734 m 1,0,-1
 318 734 l 1,1,-1
 406 597 l 1,2,-1
 323 597 l 1,3,-1
 211 734 l 1,0,-1
185 170 m 2,4,5
 183 156 183 156 183 137.5 c 128,-1,6
 183 119 183 119 196 104.5 c 128,-1,7
 209 90 209 90 248.5 90 c 128,-1,8
 288 90 288 90 321 101 c 128,-1,9
 354 112 354 112 404 140 c 1,10,-1
 465 531 l 1,11,-1
 581 531 l 1,12,-1
 497 0 l 1,13,-1
 406 0 l 1,14,-1
 391 58 l 1,15,16
 353 35 353 35 332 23.5 c 128,-1,17
 311 12 311 12 275 1.5 c 128,-1,18
 239 -9 239 -9 201 -9 c 0,19,20
 118 -9 118 -9 88 40 c 0,21,22
 66 75 66 75 66 126 c 0,23,24
 66 147 66 147 70 172 c 2,25,-1
 126 531 l 1,26,-1
 242 531 l 1,27,-1
 185 170 l 2,4,5
EndSplineSet
AlternateSubs2: "'salt' Stylistic Alternatives in Latin lookup 16 subtable" ugrave.salt
Substitution2: "'smcp' Lowercase to Small Capitals lookup 1 subtable" ugrave.smcp
EndChar

StartChar: uacute
Encoding: 250 250 187
Width: 546
GlyphClass: 2
Flags: W
LayerCount: 2
Fore
SplineSet
323 597 m 1,0,-1
 441 734 l 1,1,-1
 553 734 l 1,2,-1
 406 597 l 1,3,-1
 323 597 l 1,0,-1
185 170 m 2,4,5
 183 156 183 156 183 137.5 c 128,-1,6
 183 119 183 119 196 104.5 c 128,-1,7
 209 90 209 90 248.5 90 c 128,-1,8
 288 90 288 90 321 101 c 128,-1,9
 354 112 354 112 404 140 c 1,10,-1
 465 531 l 1,11,-1
 581 531 l 1,12,-1
 497 0 l 1,13,-1
 406 0 l 1,14,-1
 391 58 l 1,15,16
 353 35 353 35 332 23.5 c 128,-1,17
 311 12 311 12 275 1.5 c 128,-1,18
 239 -9 239 -9 201 -9 c 0,19,20
 118 -9 118 -9 88 40 c 0,21,22
 66 75 66 75 66 126 c 0,23,24
 66 147 66 147 70 172 c 2,25,-1
 126 531 l 1,26,-1
 242 531 l 1,27,-1
 185 170 l 2,4,5
EndSplineSet
AlternateSubs2: "'salt' Stylistic Alternatives in Latin lookup 16 subtable" uacute.salt
Substitution2: "'smcp' Lowercase to Small Capitals lookup 1 subtable" uacute.smcp
EndChar

StartChar: ucircumflex
Encoding: 251 251 188
Width: 546
GlyphClass: 2
Flags: W
LayerCount: 2
Fore
SplineSet
213 597 m 1,0,-1
 346 731 l 1,1,-1
 438 731 l 1,2,-1
 516 597 l 1,3,-1
 435 597 l 1,4,-1
 387 669 l 1,5,-1
 308 597 l 1,6,-1
 213 597 l 1,0,-1
185 170 m 2,7,8
 183 156 183 156 183 137.5 c 128,-1,9
 183 119 183 119 196 104.5 c 128,-1,10
 209 90 209 90 248.5 90 c 128,-1,11
 288 90 288 90 321 101 c 128,-1,12
 354 112 354 112 404 140 c 1,13,-1
 465 531 l 1,14,-1
 581 531 l 1,15,-1
 497 0 l 1,16,-1
 406 0 l 1,17,-1
 391 58 l 1,18,19
 353 35 353 35 332 23.5 c 128,-1,20
 311 12 311 12 275 1.5 c 128,-1,21
 239 -9 239 -9 201 -9 c 0,22,23
 118 -9 118 -9 88 40 c 0,24,25
 66 75 66 75 66 126 c 0,26,27
 66 147 66 147 70 172 c 2,28,-1
 126 531 l 1,29,-1
 242 531 l 1,30,-1
 185 170 l 2,7,8
EndSplineSet
AlternateSubs2: "'salt' Stylistic Alternatives in Latin lookup 16 subtable" ucircumflex.salt
Substitution2: "'smcp' Lowercase to Small Capitals lookup 1 subtable" ucircumflex.smcp
EndChar

StartChar: udieresis
Encoding: 252 252 189
Width: 546
GlyphClass: 2
Flags: W
LayerCount: 2
Fore
SplineSet
255 709 m 128,-1,1
 278 709 278 709 290 694.5 c 128,-1,2
 302 680 302 680 302 669 c 0,3,4
 302 634 302 634 281 615.5 c 128,-1,5
 260 597 260 597 237 597 c 128,-1,6
 214 597 214 597 201.5 612 c 128,-1,7
 189 627 189 627 189 638 c 0,8,9
 189 673 189 673 210.5 691 c 128,-1,0
 232 709 232 709 255 709 c 128,-1,1
510 709 m 128,-1,11
 533 709 533 709 545 694.5 c 128,-1,12
 557 680 557 680 557 669 c 0,13,14
 557 634 557 634 536 615.5 c 128,-1,15
 515 597 515 597 498 597 c 128,-1,16
 481 597 481 597 471.5 601.5 c 128,-1,17
 462 606 462 606 455 614 c 0,18,19
 441 630 441 630 444.5 653 c 128,-1,20
 448 676 448 676 467.5 692.5 c 128,-1,10
 487 709 487 709 510 709 c 128,-1,11
185 170 m 2,21,22
 183 156 183 156 183 137.5 c 128,-1,23
 183 119 183 119 196 104.5 c 128,-1,24
 209 90 209 90 248.5 90 c 128,-1,25
 288 90 288 90 321 101 c 128,-1,26
 354 112 354 112 404 140 c 1,27,-1
 465 531 l 1,28,-1
 581 531 l 1,29,-1
 497 0 l 1,30,-1
 406 0 l 1,31,-1
 391 58 l 1,32,33
 353 35 353 35 332 23.5 c 128,-1,34
 311 12 311 12 275 1.5 c 128,-1,35
 239 -9 239 -9 201 -9 c 0,36,37
 118 -9 118 -9 88 40 c 0,38,39
 66 75 66 75 66 126 c 0,40,41
 66 147 66 147 70 172 c 2,42,-1
 126 531 l 1,43,-1
 242 531 l 1,44,-1
 185 170 l 2,21,22
EndSplineSet
AlternateSubs2: "'salt' Stylistic Alternatives in Latin lookup 16 subtable" udieresis.salt
Substitution2: "'smcp' Lowercase to Small Capitals lookup 1 subtable" udieresis.smcp
EndChar

StartChar: yacute
Encoding: 253 253 190
Width: 558
GlyphClass: 2
Flags: W
LayerCount: 2
Fore
SplineSet
314 593 m 1,0,-1
 432 729 l 1,1,-1
 545 729 l 1,2,-1
 397 593 l 1,3,-1
 314 593 l 1,0,-1
600 492 m 0,4,5
 600 447 600 447 577 397 c 2,6,-1
 388 1 l 1,7,8
 288 -211 288 -211 151 -265 c 0,9,10
 124 -276 124 -276 94 -281 c 1,11,-1
 94 -199 l 1,12,13
 153 -165 153 -165 192 -115.5 c 128,-1,14
 231 -66 231 -66 265 0 c 1,15,16
 216 0 216 0 180.5 29.5 c 128,-1,17
 145 59 145 59 137 126 c 2,18,-1
 88 531 l 1,19,-1
 208 531 l 1,20,-1
 252 144 l 1,21,22
 256 118 256 118 281 108 c 0,23,24
 285 107 285 107 288.5 106.5 c 128,-1,25
 292 106 292 106 295.5 105.5 c 128,-1,26
 299 105 299 105 302 105 c 128,-1,27
 305 105 305 105 307 105 c 128,-1,28
 309 105 309 105 310 105 c 2,29,-1
 465 432 l 2,30,31
 483 471 483 471 491 533 c 1,32,-1
 595 533 l 1,33,34
 600 513 600 513 600 492 c 0,4,5
EndSplineSet
Substitution2: "'smcp' Lowercase to Small Capitals lookup 1 subtable" yacute.smcp
EndChar

StartChar: thorn
Encoding: 254 254 191
Width: 553
GlyphClass: 2
Flags: W
LayerCount: 2
Fore
SplineSet
382 530 m 0,0,1
 410 536 410 536 443 536 c 128,-1,2
 476 536 476 536 506 513 c 0,3,4
 560 472 560 472 569 361 c 0,5,6
 571 346 571 346 571 320 c 128,-1,7
 571 294 571 294 565 259.5 c 128,-1,8
 559 225 559 225 554.5 202 c 128,-1,9
 550 179 550 179 541.5 149.5 c 128,-1,10
 533 120 533 120 522.5 98.5 c 128,-1,11
 512 77 512 77 495.5 55 c 128,-1,12
 479 33 479 33 458 19 c 0,13,14
 412 -12 412 -12 346 -12 c 0,15,16
 309 -12 309 -12 261.5 -2 c 128,-1,17
 214 8 214 8 179 26 c 1,18,-1
 132 -270 l 1,19,-1
 16 -270 l 1,20,-1
 184 782 l 1,21,-1
 300 782 l 1,22,-1
 250 472 l 1,23,24
 307 512 307 512 382 530 c 0,0,1
452 333 m 0,25,26
 452 434 452 434 396 434 c 0,27,28
 328 434 328 434 238 393 c 1,29,-1
 192 106 l 1,30,31
 218 97 218 97 233 94.5 c 128,-1,32
 248 92 248 92 252.5 91 c 128,-1,33
 257 90 257 90 267.5 89 c 128,-1,34
 278 88 278 88 281 88 c 128,-1,35
 284 88 284 88 295 87 c 128,-1,36
 306 86 306 86 307.5 86 c 128,-1,37
 309 86 309 86 321.5 85.5 c 128,-1,38
 334 85 334 85 334 85 c 1,39,40
 375 85 375 85 404 123 c 128,-1,41
 433 161 433 161 447 263 c 0,42,43
 452 302 452 302 452 333 c 0,25,26
EndSplineSet
Substitution2: "'smcp' Lowercase to Small Capitals lookup 1 subtable" thorn.smcp
EndChar

StartChar: ydieresis
Encoding: 255 255 192
Width: 558
GlyphClass: 2
Flags: W
LayerCount: 2
Fore
SplineSet
247.5 697 m 128,-1,1
 271 697 271 697 283 682.5 c 128,-1,2
 295 668 295 668 295 658 c 0,3,4
 295 623 295 623 274 604.5 c 128,-1,5
 253 586 253 586 234 586 c 128,-1,6
 215 586 215 586 203 593 c 0,7,8
 178 610 178 610 182 637.5 c 128,-1,9
 186 665 186 665 205 681 c 128,-1,0
 224 697 224 697 247.5 697 c 128,-1,1
502.5 697 m 128,-1,11
 526 697 526 697 538 682.5 c 128,-1,12
 550 668 550 668 550 658 c 0,13,14
 550 623 550 623 529 604.5 c 128,-1,15
 508 586 508 586 485 586 c 128,-1,16
 462 586 462 586 449.5 600.5 c 128,-1,17
 437 615 437 615 437 626 c 0,18,19
 437 661 437 661 458 679 c 128,-1,10
 479 697 479 697 502.5 697 c 128,-1,11
600 492 m 0,20,21
 600 447 600 447 577 397 c 2,22,-1
 388 1 l 1,23,24
 288 -211 288 -211 151 -265 c 0,25,26
 124 -276 124 -276 94 -281 c 1,27,-1
 94 -199 l 1,28,29
 153 -165 153 -165 192 -115.5 c 128,-1,30
 231 -66 231 -66 265 0 c 1,31,32
 216 0 216 0 180.5 29.5 c 128,-1,33
 145 59 145 59 137 126 c 2,34,-1
 88 531 l 1,35,-1
 208 531 l 1,36,-1
 252 144 l 1,37,38
 256 118 256 118 281 108 c 0,39,40
 285 107 285 107 288.5 106.5 c 128,-1,41
 292 106 292 106 295.5 105.5 c 128,-1,42
 299 105 299 105 302 105 c 128,-1,43
 305 105 305 105 307 105 c 128,-1,44
 309 105 309 105 310 105 c 2,45,-1
 465 432 l 2,46,47
 483 471 483 471 491 533 c 1,48,-1
 595 533 l 1,49,50
 600 513 600 513 600 492 c 0,20,21
EndSplineSet
Substitution2: "'smcp' Lowercase to Small Capitals lookup 1 subtable" ydieresis.smcp
EndChar

StartChar: Amacron
Encoding: 256 256 193
Width: 677
GlyphClass: 2
Flags: W
LayerCount: 2
Fore
SplineSet
338 797 m 1,0,-1
 349 870 l 1,1,-1
 641 870 l 1,2,-1
 630 797 l 1,3,-1
 338 797 l 1,0,-1
38 0 m 1,4,-1
 409 732 l 1,5,-1
 537 732 l 1,6,-1
 666 0 l 1,7,-1
 548 0 l 1,8,-1
 515 177 l 1,9,-1
 256 177 l 1,10,-1
 166 0 l 1,11,-1
 38 0 l 1,4,-1
306 283 m 1,12,-1
 501 283 l 1,13,-1
 452 579 l 1,14,-1
 306 283 l 1,12,-1
EndSplineSet
Substitution2: "'c2sc' Capitals to Small Capitals in Latin lookup 2 subtable" amacron.smcp
EndChar

StartChar: amacron
Encoding: 257 257 194
Width: 541
GlyphClass: 2
Flags: W
LayerCount: 2
Fore
SplineSet
210 602 m 1,0,-1
 222 676 l 1,1,-1
 514 676 l 1,2,-1
 502 602 l 1,3,-1
 210 602 l 1,0,-1
263 533.5 m 128,-1,5
 287 539 287 539 310.5 540.5 c 128,-1,6
 334 542 334 542 355 542 c 128,-1,7
 376 542 376 542 414.5 537.5 c 128,-1,8
 453 533 453 533 500 517.5 c 128,-1,9
 547 502 547 502 571 479 c 1,10,-1
 501 1 l 1,11,-1
 413 1 l 1,12,-1
 395 57 l 1,13,14
 373 34 373 34 323 14 c 128,-1,15
 273 -6 273 -6 228 -6 c 128,-1,16
 183 -6 183 -6 152 8 c 128,-1,17
 121 22 121 22 98 57 c 0,18,19
 71 97 71 97 71 159.5 c 128,-1,20
 71 222 71 222 82 287.5 c 128,-1,21
 93 353 93 353 113.5 399 c 128,-1,22
 134 445 134 445 156 471 c 128,-1,23
 178 497 178 497 208.5 512.5 c 128,-1,4
 239 528 239 528 263 533.5 c 128,-1,5
448 431 m 1,24,25
 400 446 400 446 366.5 446 c 128,-1,26
 333 446 333 446 315.5 442.5 c 128,-1,27
 298 439 298 439 286.5 435 c 128,-1,28
 275 431 275 431 259 420 c 128,-1,29
 243 409 243 409 232 391 c 0,30,31
 207 347 207 347 194 264 c 1,32,33
 186 221 186 221 186 189.5 c 128,-1,34
 186 158 186 158 194 137 c 0,35,36
 208 96 208 96 255.5 96 c 128,-1,37
 303 96 303 96 335 108 c 128,-1,38
 367 120 367 120 405 145 c 1,39,-1
 448 431 l 1,24,25
EndSplineSet
AlternateSubs2: "'salt' Stylistic Alternatives in Latin lookup 16 subtable" amacron.salt
Substitution2: "'smcp' Lowercase to Small Capitals lookup 1 subtable" amacron.smcp
EndChar

StartChar: Abreve
Encoding: 258 258 195
Width: 677
GlyphClass: 2
Flags: W
LayerCount: 2
Fore
SplineSet
441 910 m 1,0,1
 440 905 440 905 440 892 c 128,-1,2
 440 879 440 879 453 864.5 c 128,-1,3
 466 850 466 850 491 850 c 0,4,5
 492 850 492 850 493 850 c 0,6,7
 554 850 554 850 562 910 c 1,8,-1
 616 910 l 1,9,10
 602 797 602 797 491 797 c 0,11,12
 445 797 445 797 416 826 c 128,-1,13
 387 855 387 855 387 898 c 0,14,15
 387 904 387 904 388 910 c 1,16,-1
 441 910 l 1,0,1
38 0 m 1,17,-1
 409 732 l 1,18,-1
 537 732 l 1,19,-1
 666 0 l 1,20,-1
 548 0 l 1,21,-1
 515 177 l 1,22,-1
 256 177 l 1,23,-1
 166 0 l 1,24,-1
 38 0 l 1,17,-1
306 283 m 1,25,-1
 501 283 l 1,26,-1
 452 579 l 1,27,-1
 306 283 l 1,25,-1
EndSplineSet
Substitution2: "'c2sc' Capitals to Small Capitals in Latin lookup 2 subtable" abreve.smcp
EndChar

StartChar: abreve
Encoding: 259 259 196
Width: 541
GlyphClass: 2
Flags: W
LayerCount: 2
Fore
SplineSet
312 716 m 1,0,1
 312 711 312 711 312 698 c 128,-1,2
 312 685 312 685 325 670.5 c 128,-1,3
 338 656 338 656 363 656 c 0,4,5
 364 656 364 656 365 656 c 0,6,7
 425 656 425 656 434 716 c 1,8,-1
 487 716 l 1,9,10
 480 660 480 660 448 631.5 c 128,-1,11
 416 603 416 603 366 603 c 128,-1,12
 316 603 316 603 287.5 632 c 128,-1,13
 259 661 259 661 259 704 c 0,14,15
 259 710 259 710 259 716 c 1,16,-1
 312 716 l 1,0,1
263 533.5 m 128,-1,18
 287 539 287 539 310.5 540.5 c 128,-1,19
 334 542 334 542 355 542 c 128,-1,20
 376 542 376 542 414.5 537.5 c 128,-1,21
 453 533 453 533 500 517.5 c 128,-1,22
 547 502 547 502 571 479 c 1,23,-1
 501 1 l 1,24,-1
 413 1 l 1,25,-1
 395 57 l 1,26,27
 373 34 373 34 323 14 c 128,-1,28
 273 -6 273 -6 228 -6 c 128,-1,29
 183 -6 183 -6 152 8 c 128,-1,30
 121 22 121 22 98 57 c 0,31,32
 71 97 71 97 71 159.5 c 128,-1,33
 71 222 71 222 82 287.5 c 128,-1,34
 93 353 93 353 113.5 399 c 128,-1,35
 134 445 134 445 156 471 c 128,-1,36
 178 497 178 497 208.5 512.5 c 128,-1,17
 239 528 239 528 263 533.5 c 128,-1,18
448 431 m 1,37,38
 400 446 400 446 366.5 446 c 128,-1,39
 333 446 333 446 315.5 442.5 c 128,-1,40
 298 439 298 439 286.5 435 c 128,-1,41
 275 431 275 431 259 420 c 128,-1,42
 243 409 243 409 232 391 c 0,43,44
 207 347 207 347 194 264 c 1,45,46
 186 221 186 221 186 189.5 c 128,-1,47
 186 158 186 158 194 137 c 0,48,49
 208 96 208 96 255.5 96 c 128,-1,50
 303 96 303 96 335 108 c 128,-1,51
 367 120 367 120 405 145 c 1,52,-1
 448 431 l 1,37,38
EndSplineSet
Substitution2: "'smcp' Lowercase to Small Capitals lookup 1 subtable" abreve.smcp
EndChar

StartChar: Aogonek
Encoding: 260 260 197
Width: 741
GlyphClass: 2
Flags: W
LayerCount: 2
Fore
SplineSet
561 -108 m 0,0,1
 561 -40 561 -40 652 0 c 1,2,-1
 702 0 l 1,3,4
 637 -45 637 -45 637 -81 c 0,5,6
 637 -114 637 -114 682 -114 c 0,7,8
 686 -114 686 -114 690 -114 c 1,9,-1
 679 -184 l 1,10,11
 665 -187 665 -187 652 -187 c 0,12,13
 614 -187 614 -187 587.5 -163.5 c 128,-1,14
 561 -140 561 -140 561 -108 c 0,0,1
104 0 m 1,15,-1
 475 732 l 1,16,-1
 604 732 l 1,17,-1
 732 0 l 1,18,-1
 614 0 l 1,19,-1
 581 177 l 1,20,-1
 322 177 l 1,21,-1
 232 0 l 1,22,-1
 104 0 l 1,15,-1
372 283 m 1,23,-1
 568 283 l 1,24,-1
 519 579 l 1,25,-1
 372 283 l 1,23,-1
EndSplineSet
Substitution2: "'c2sc' Capitals to Small Capitals in Latin lookup 2 subtable" aogonek.smcp
EndChar

